SplineFontDB: 3.2
FontName: Quicksand-Light
FullName: Quicksand Light
FamilyName: Quicksand Light
Weight: Light
Copyright: Copyright 2011 The Quicksand Project Authors (https://github.com/andrew-paglinawan/QuicksandFamily), with Reserved Font Name "Quicksand".
Version: 3.000
ItalicAngle: 0
UnderlinePosition: -100
UnderlineWidth: 50
Ascent: 800
Descent: 200
InvalidEm: 0
sfntRevision: 0x00030000
LayerCount: 2
Layer: 0 1 "Back" 1
Layer: 1 1 "Fore" 0
XUID: [1021 933 835020959 21025]
StyleMap: 0x0040
FSType: 0
OS2Version: 4
OS2_WeightWidthSlopeOnly: 0
OS2_UseTypoMetrics: 1
CreationTime: 1318445840
ModificationTime: 1772829406
PfmFamily: 81
TTFWeight: 300
TTFWidth: 5
LineGap: 0
VLineGap: 0
Panose: 0 0 4 0 0 0 0 0 0 0
OS2TypoAscent: 1000
OS2TypoAOffset: 0
OS2TypoDescent: -250
OS2TypoDOffset: 0
OS2TypoLinegap: 0
OS2WinAscent: 1183
OS2WinAOffset: 0
OS2WinDescent: 303
OS2WinDOffset: 0
HheadAscent: 1000
HheadAOffset: 0
HheadDescent: -250
HheadDOffset: 0
OS2SubXSize: 650
OS2SubYSize: 600
OS2SubXOff: 0
OS2SubYOff: 75
OS2SupXSize: 650
OS2SupYSize: 600
OS2SupXOff: 0
OS2SupYOff: 350
OS2StrikeYSize: 50
OS2StrikeYPos: 301
OS2CapHeight: 700
OS2XHeight: 503
OS2Vendor: 'PfEd'
OS2CodePages: 20000193.00000000
OS2UnicodeRanges: 2000000f.00000001.00000000.00000000
Lookup: 6 0 0 "'locl' Localized Forms in Latin lookup 0" { "'locl' Localized Forms in Latin lookup 0 contextual 0"  "'locl' Localized Forms in Latin lookup 0 contextual 1"  } ['locl' ('latn' <'CAT ' > ) ]
Lookup: 1 0 0 "'locl' Localized Forms in Latin lookup 1" { "'locl' Localized Forms in Latin lookup 1 subtable"  } ['locl' ('latn' <'ROM ' > ) ]
Lookup: 1 0 0 "'locl' Localized Forms in Latin lookup 2" { "'locl' Localized Forms in Latin lookup 2 subtable"  } ['locl' ('latn' <'MOL ' > ) ]
Lookup: 1 0 0 "'locl' Localized Forms in Latin lookup 3" { "'locl' Localized Forms in Latin lookup 3 subtable"  } ['locl' ('latn' <'KAZ ' > ) ]

StartChar: .notdef
Encoding: 65536 -1 0
Width: 584
Flags: W
LayerCount: 2
Fore
SplineSet
75 700 m 2,1,-1
 509 700 l 2,2,3
 544 700 544 700 544 665 c 2,4,-1
 544 35 l 2,5,6
 544 0 544 0 509 0 c 2,7,-1
 75 0 l 2,8,9
 40 0 40 0 40 35 c 2,10,-1
 40 665 l 2,11,0
 40 700 40 700 75 700 c 2,1,-1
91 668 m 128,-1,13
 90 666 90 666 92 664 c 2,14,-1
 508 65 l 2,15,16
 510 62 510 62 512 62.5 c 128,-1,17
 514 63 514 63 514 67 c 2,18,-1
 514 665 l 2,19,20
 514 670 514 670 509 670 c 2,21,-1
 95 670 l 2,22,12
 92 670 92 670 91 668 c 128,-1,13
75 30 m 2,24,-1
 488 30 l 2,25,26
 491 30 491 30 492 32 c 128,-1,27
 493 34 493 34 491 36 c 2,28,-1
 76 635 l 2,29,30
 74 638 74 638 72 637.5 c 128,-1,31
 70 637 70 637 70 633 c 2,32,-1
 70 35 l 2,33,23
 70 30 70 30 75 30 c 2,24,-1
EndSplineSet
EndChar

StartChar: A
Encoding: 65 65 4
Width: 649
GlyphClass: 2
Flags: W
AnchorPoint: "Anchor-8" 0 0 basechar 0
AnchorPoint: "Anchor-7" 0 0 basechar 0
AnchorPoint: "Anchor-6" 325 700 basechar 0
AnchorPoint: "Anchor-5" 584 10 basechar 0
AnchorPoint: "Anchor-4" 325 0 basechar 0
LayerCount: 2
Fore
SplineSet
614 19 m 0,1,2
 614 10 614 10 608 5 c 128,-1,3
 602 0 602 0 593 0 c 0,4,5
 586 0 586 0 580.5 3.5 c 128,-1,6
 575 7 575 7 573 13 c 2,7,-1
 489 219 l 1,8,-1
 490 217 l 1,9,-1
 155 217 l 1,10,-1
 74 13 l 2,11,12
 69 0 69 0 56 0 c 0,13,14
 47 0 47 0 41.5 5 c 128,-1,15
 36 10 36 10 35 17 c 0,16,17
 34 21 34 21 36 27 c 2,18,-1
 305 689 l 2,19,20
 308 697 308 697 312.5 699.5 c 128,-1,21
 317 702 317 702 324 702 c 0,22,23
 339 702 339 702 344 689 c 2,24,-1
 613 27 l 2,25,0
 614 24 614 24 614 19 c 0,1,2
474 257 m 1,26,-1
 321 634 l 1,27,-1
 171 257 l 1,28,-1
 474 257 l 1,26,-1
EndSplineSet
Substitution2: "Single Substitution lookup 20 subtable" ordfeminine
EndChar

StartChar: Aogonek
Encoding: 260 260 26
Width: 649
GlyphClass: 2
Flags: W
AnchorPoint: "Anchor-8" 0 0 basechar 0
AnchorPoint: "Anchor-7" 0 0 basechar 0
AnchorPoint: "Anchor-6" 325 700 basechar 0
AnchorPoint: "Anchor-5" 584 10 basechar 0
AnchorPoint: "Anchor-4" 325 0 basechar 0
LayerCount: 2
Fore
SplineSet
641.5 -126.5 m 128,-1,1
 646 -131 646 -131 646 -136 c 0,2,3
 646 -156 646 -156 624 -170.5 c 128,-1,4
 602 -185 602 -185 574 -185 c 0,5,6
 539 -185 539 -185 512.5 -159 c 128,-1,7
 486 -133 486 -133 486 -93 c 0,8,9
 486 -50 486 -50 510.5 -20.5 c 128,-1,10
 535 9 535 9 569 22 c 1,11,-1
 489 219 l 1,12,-1
 490 217 l 1,13,-1
 155 217 l 1,14,-1
 74 13 l 2,15,16
 69 0 69 0 56 0 c 0,17,18
 47 0 47 0 41.5 5 c 128,-1,19
 36 10 36 10 35 17 c 0,20,21
 34 21 34 21 36 27 c 2,22,-1
 305 689 l 2,23,24
 308 697 308 697 312.5 699.5 c 128,-1,25
 317 702 317 702 324 702 c 0,26,27
 339 702 339 702 344 689 c 2,28,-1
 613 27 l 2,29,30
 615 21 615 21 615 18 c 0,31,32
 615 10 615 10 610 6 c 128,-1,33
 605 2 605 2 595 0 c 0,34,35
 568 -5 568 -5 546 -30.5 c 128,-1,36
 524 -56 524 -56 524 -85 c 256,37,38
 524 -114 524 -114 540.5 -131 c 128,-1,39
 557 -148 557 -148 579 -148 c 0,40,41
 604 -148 604 -148 611 -136 c 0,42,43
 616 -129 616 -129 619.5 -125.5 c 128,-1,44
 623 -122 623 -122 630 -122 c 256,45,0
 637 -122 637 -122 641.5 -126.5 c 128,-1,1
474 257 m 1,46,-1
 321 634 l 1,47,-1
 171 257 l 1,48,-1
 474 257 l 1,46,-1
EndSplineSet
EndChar

StartChar: Aring
Encoding: 197 197 27
Width: 649
GlyphClass: 2
Flags: W
AnchorPoint: "Anchor-8" 0 0 basechar 0
AnchorPoint: "Anchor-7" 0 0 basechar 0
AnchorPoint: "Anchor-6" 325 859 basechar 0
AnchorPoint: "Anchor-5" 584 10 basechar 0
AnchorPoint: "Anchor-4" 0 0 basechar 0
LayerCount: 2
Fore
SplineSet
614 19 m 0,1,2
 614 10 614 10 608 5 c 128,-1,3
 602 0 602 0 593 0 c 0,4,5
 586 0 586 0 580.5 3.5 c 128,-1,6
 575 7 575 7 573 13 c 2,7,-1
 489 219 l 1,8,-1
 490 217 l 1,9,-1
 155 217 l 1,10,-1
 74 13 l 2,11,12
 69 0 69 0 56 0 c 0,13,14
 47 0 47 0 41.5 5 c 128,-1,15
 36 10 36 10 35 17 c 0,16,17
 34 21 34 21 36 27 c 2,18,-1
 299 675 l 1,19,20
 268 683 268 683 247.5 708 c 128,-1,21
 227 733 227 733 227 765 c 0,22,23
 227 804 227 804 256.5 831.5 c 128,-1,24
 286 859 286 859 325 859 c 256,25,26
 364 859 364 859 393.5 831.5 c 128,-1,27
 423 804 423 804 423 765 c 0,28,29
 423 733 423 733 402 707.5 c 128,-1,30
 381 682 381 682 350 674 c 1,31,-1
 613 27 l 2,32,0
 614 24 614 24 614 19 c 0,1,2
281.5 721.5 m 128,-1,34
 300 703 300 703 325 703 c 0,35,36
 351 703 351 703 369 721.5 c 128,-1,37
 387 740 387 740 387 765 c 0,38,39
 387 791 387 791 369 809 c 128,-1,40
 351 827 351 827 325 827 c 0,41,42
 300 827 300 827 281.5 809 c 128,-1,43
 263 791 263 791 263 765 c 0,44,33
 263 740 263 740 281.5 721.5 c 128,-1,34
474 257 m 1,45,-1
 321 634 l 1,46,-1
 171 257 l 1,47,-1
 474 257 l 1,45,-1
EndSplineSet
EndChar

StartChar: AE
Encoding: 198 198 30
Width: 931
GlyphClass: 2
Flags: W
AnchorPoint: "Anchor-8" 0 0 basechar 0
AnchorPoint: "Anchor-7" 0 0 basechar 0
AnchorPoint: "Anchor-6" 633 700 basechar 0
AnchorPoint: "Anchor-5" 0 0 basechar 0
AnchorPoint: "Anchor-4" 466 0 basechar 0
LayerCount: 2
Fore
SplineSet
875 34 m 128,-1,1
 881 28 881 28 881 20 c 0,2,3
 881 11 881 11 875 5.5 c 128,-1,4
 869 0 869 0 861 0 c 2,5,-1
 494 0 l 2,6,7
 486 0 486 0 480 6 c 128,-1,8
 474 12 474 12 474 20 c 2,9,-1
 474 177 l 1,10,-1
 163 177 l 1,11,-1
 45 8 l 2,12,13
 39 -1 39 -1 28 -1 c 0,14,15
 20 -1 20 -1 14.5 5 c 128,-1,16
 9 11 9 11 9 20 c 0,17,18
 9 27 9 27 12 31 c 2,19,-1
 474 691 l 2,20,21
 482 700 482 700 492 700 c 2,22,-1
 861 700 l 2,23,24
 869 700 869 700 875 694 c 128,-1,25
 881 688 881 688 881 680 c 0,26,27
 881 671 881 671 875 665.5 c 128,-1,28
 869 660 869 660 861 660 c 2,29,-1
 514 660 l 1,30,-1
 514 381 l 1,31,-1
 816 381 l 2,32,33
 824 381 824 381 830 375 c 128,-1,34
 836 369 836 369 836 361 c 0,35,36
 836 352 836 352 830 346.5 c 128,-1,37
 824 341 824 341 816 341 c 2,38,-1
 514 341 l 1,39,-1
 514 40 l 1,40,-1
 861 40 l 2,41,0
 869 40 869 40 875 34 c 128,-1,1
191 217 m 1,42,-1
 474 217 l 1,43,-1
 474 621 l 1,44,-1
 191 217 l 1,42,-1
EndSplineSet
EndChar

StartChar: B
Encoding: 66 66 32
Width: 650
GlyphClass: 2
Flags: W
AnchorPoint: "Anchor-8" 0 0 basechar 0
AnchorPoint: "Anchor-7" 0 0 basechar 0
AnchorPoint: "Anchor-6" 325 700 basechar 0
AnchorPoint: "Anchor-5" 0 0 basechar 0
AnchorPoint: "Anchor-4" 325 0 basechar 0
LayerCount: 2
Fore
SplineSet
561.5 308 m 128,-1,1
 600 262 600 262 600 189 c 0,2,3
 600 98 600 98 542.5 49 c 128,-1,4
 485 0 485 0 396 0 c 2,5,-1
 120 0 l 2,6,7
 112 0 112 0 106 6 c 128,-1,8
 100 12 100 12 100 20 c 2,9,-1
 100 680 l 2,10,11
 100 688 100 688 106 694 c 128,-1,12
 112 700 112 700 120 700 c 2,13,-1
 389 700 l 2,14,15
 469 700 469 700 517 654 c 128,-1,16
 565 608 565 608 565 530 c 0,17,18
 565 474 565 474 537 428.5 c 128,-1,19
 509 383 509 383 459 366 c 1,20,0
 523 354 523 354 561.5 308 c 128,-1,1
486.5 625 m 128,-1,22
 450 660 450 660 384 660 c 2,23,-1
 142 660 l 1,24,-1
 142 379 l 1,25,-1
 384 379 l 2,26,27
 446 380 446 380 484.5 419.5 c 128,-1,28
 523 459 523 459 523 531 c 0,29,21
 523 590 523 590 486.5 625 c 128,-1,22
512 77.5 m 128,-1,31
 558 115 558 115 558 189 c 256,32,33
 558 263 558 263 512 300.5 c 128,-1,34
 466 338 466 338 391 338 c 2,35,-1
 142 338 l 1,36,-1
 142 40 l 1,37,-1
 391 40 l 2,38,30
 466 40 466 40 512 77.5 c 128,-1,31
EndSplineSet
EndChar

StartChar: C
Encoding: 67 67 33
Width: 662
GlyphClass: 2
Flags: W
AnchorPoint: "Anchor-8" 0 0 basechar 0
AnchorPoint: "Anchor-7" 0 0 basechar 0
AnchorPoint: "Anchor-6" 399 700 basechar 0
AnchorPoint: "Anchor-5" 0 0 basechar 0
AnchorPoint: "Anchor-4" 411 0 basechar 0
LayerCount: 2
Fore
SplineSet
627 626 m 0,1,2
 627 618 627 618 623 613 c 0,3,4
 617 605 617 605 608 605 c 0,5,6
 604 605 604 605 596 609 c 0,7,8
 503 672 503 672 399 672 c 0,9,10
 315 672 315 672 244.5 630.5 c 128,-1,11
 174 589 174 589 133 515.5 c 128,-1,12
 92 442 92 442 92 350 c 256,13,14
 92 258 92 258 133 184.5 c 128,-1,15
 174 111 174 111 244.5 69.5 c 128,-1,16
 315 28 315 28 399 28 c 0,17,18
 504 28 504 28 595 90 c 0,19,20
 600 94 600 94 607 94 c 0,21,22
 617 94 617 94 623 86 c 0,23,24
 627 81 627 81 627 74 c 0,25,26
 627 64 627 64 619 58 c 0,27,28
 580 30 580 30 518.5 10 c 128,-1,29
 457 -10 457 -10 399 -10 c 0,30,31
 304 -10 304 -10 224 37 c 128,-1,32
 144 84 144 84 97 166.5 c 128,-1,33
 50 249 50 249 50 350 c 256,34,35
 50 451 50 451 97 533.5 c 128,-1,36
 144 616 144 616 224 663 c 128,-1,37
 304 710 304 710 399 710 c 0,38,39
 459 710 459 710 515.5 692 c 128,-1,40
 572 674 572 674 618 642 c 0,41,0
 627 635 627 635 627 626 c 0,1,2
EndSplineSet
EndChar

StartChar: Ccedilla
Encoding: 199 199 36
Width: 662
GlyphClass: 2
Flags: W
AnchorPoint: "Anchor-8" 0 0 basechar 0
AnchorPoint: "Anchor-7" 0 0 basechar 0
AnchorPoint: "Anchor-6" 0 0 basechar 0
AnchorPoint: "Anchor-5" 0 0 basechar 0
AnchorPoint: "Anchor-4" 406 -141 basechar 0
LayerCount: 2
Fore
SplineSet
627 74 m 0,1,2
 627 64 627 64 619 58 c 0,3,4
 584 33 584 33 529 14 c 128,-1,5
 474 -5 474 -5 419 -9 c 1,6,-1
 362 -126 l 2,7,8
 355 -141 355 -141 341 -141 c 0,9,10
 331 -141 331 -141 318.5 -132.5 c 128,-1,11
 306 -124 306 -124 306 -114 c 0,12,13
 306 -105 306 -105 311 -100 c 2,14,-1
 385 -10 l 1,15,16
 293 -6 293 -6 216.5 41.5 c 128,-1,17
 140 89 140 89 95 170 c 128,-1,18
 50 251 50 251 50 350 c 0,19,20
 50 451 50 451 97 533.5 c 128,-1,21
 144 616 144 616 224 663 c 128,-1,22
 304 710 304 710 399 710 c 0,23,24
 459 710 459 710 515.5 692 c 128,-1,25
 572 674 572 674 618 642 c 0,26,27
 627 635 627 635 627 626 c 0,28,29
 627 618 627 618 623 613 c 0,30,31
 617 605 617 605 608 605 c 0,32,33
 604 605 604 605 596 609 c 0,34,35
 503 672 503 672 399 672 c 0,36,37
 315 672 315 672 244.5 630.5 c 128,-1,38
 174 589 174 589 133 515.5 c 128,-1,39
 92 442 92 442 92 350 c 256,40,41
 92 258 92 258 133 184.5 c 128,-1,42
 174 111 174 111 244.5 69.5 c 128,-1,43
 315 28 315 28 399 28 c 0,44,45
 504 28 504 28 595 90 c 0,46,47
 600 94 600 94 607 94 c 0,48,49
 617 94 617 94 623 86 c 0,50,0
 627 81 627 81 627 74 c 0,1,2
EndSplineSet
EndChar

StartChar: uni1E08
Encoding: 7688 7688 37
Width: 662
GlyphClass: 2
Flags: W
AnchorPoint: "Anchor-8" 0 0 basechar 0
AnchorPoint: "Anchor-7" 0 0 basechar 0
AnchorPoint: "Anchor-6" 0 0 basechar 0
AnchorPoint: "Anchor-5" 0 0 basechar 0
AnchorPoint: "Anchor-4" 406 -141 basechar 0
LayerCount: 2
Fore
SplineSet
394 751.5 m 128,-1,1
 391 755 391 755 391 760 c 0,2,3
 391 768 391 768 400 775 c 2,4,-1
 490 842 l 2,5,6
 500 850 500 850 512 850 c 0,7,8
 523 850 523 850 529 843 c 128,-1,9
 535 836 535 836 535 826 c 0,10,11
 535 810 535 810 521 802 c 2,12,-1
 424 755 l 2,13,14
 410 748 410 748 403 748 c 0,15,0
 397 748 397 748 394 751.5 c 128,-1,1
627 74 m 0,17,18
 627 64 627 64 619 58 c 0,19,20
 584 33 584 33 529 14 c 128,-1,21
 474 -5 474 -5 419 -9 c 1,22,-1
 362 -126 l 2,23,24
 355 -141 355 -141 341 -141 c 0,25,26
 331 -141 331 -141 318.5 -132.5 c 128,-1,27
 306 -124 306 -124 306 -114 c 0,28,29
 306 -105 306 -105 311 -100 c 2,30,-1
 385 -10 l 1,31,32
 293 -6 293 -6 216.5 41.5 c 128,-1,33
 140 89 140 89 95 170 c 128,-1,34
 50 251 50 251 50 350 c 0,35,36
 50 451 50 451 97 533.5 c 128,-1,37
 144 616 144 616 224 663 c 128,-1,38
 304 710 304 710 399 710 c 0,39,40
 459 710 459 710 515.5 692 c 128,-1,41
 572 674 572 674 618 642 c 0,42,43
 627 635 627 635 627 626 c 0,44,45
 627 618 627 618 623 613 c 0,46,47
 617 605 617 605 608 605 c 0,48,49
 604 605 604 605 596 609 c 0,50,51
 503 672 503 672 399 672 c 0,52,53
 315 672 315 672 244.5 630.5 c 128,-1,54
 174 589 174 589 133 515.5 c 128,-1,55
 92 442 92 442 92 350 c 256,56,57
 92 258 92 258 133 184.5 c 128,-1,58
 174 111 174 111 244.5 69.5 c 128,-1,59
 315 28 315 28 399 28 c 0,60,61
 504 28 504 28 595 90 c 0,62,63
 600 94 600 94 607 94 c 0,64,65
 617 94 617 94 623 86 c 0,66,16
 627 81 627 81 627 74 c 0,17,18
EndSplineSet
EndChar

StartChar: D
Encoding: 68 68 40
Width: 720
GlyphClass: 2
Flags: W
AnchorPoint: "Anchor-8" 0 0 basechar 0
AnchorPoint: "Anchor-7" 124 350 basechar 0
AnchorPoint: "Anchor-6" 313 700 basechar 0
AnchorPoint: "Anchor-5" 0 0 basechar 0
AnchorPoint: "Anchor-4" 320 0 basechar 0
LayerCount: 2
Fore
SplineSet
541.5 652 m 128,-1,1
 607 604 607 604 638.5 524.5 c 128,-1,2
 670 445 670 445 670 350 c 0,3,4
 670 251 670 251 638.5 172 c 128,-1,5
 607 93 607 93 542 46.5 c 128,-1,6
 477 0 477 0 380 0 c 2,7,-1
 120 0 l 2,8,9
 112 0 112 0 106 6 c 128,-1,10
 100 12 100 12 100 20 c 2,11,-1
 100 680 l 2,12,13
 100 688 100 688 106 694 c 128,-1,14
 112 700 112 700 120 700 c 2,15,-1
 380 700 l 2,16,0
 476 700 476 700 541.5 652 c 128,-1,1
564 125.5 m 128,-1,18
 628 211 628 211 628 350 c 0,19,20
 628 435 628 435 600.5 505.5 c 128,-1,21
 573 576 573 576 515.5 618 c 128,-1,22
 458 660 458 660 370 660 c 2,23,-1
 142 660 l 1,24,-1
 142 40 l 1,25,-1
 370 40 l 2,26,17
 500 40 500 40 564 125.5 c 128,-1,18
EndSplineSet
EndChar

StartChar: Eth
Encoding: 208 208 42
Width: 720
GlyphClass: 2
Flags: W
AnchorPoint: "Anchor-8" 0 0 basechar 0
AnchorPoint: "Anchor-7" 124 350 basechar 0
AnchorPoint: "Anchor-6" 313 700 basechar 0
AnchorPoint: "Anchor-5" 0 0 basechar 0
AnchorPoint: "Anchor-4" 320 0 basechar 0
LayerCount: 2
Fore
SplineSet
541.5 652 m 128,-1,1
 607 604 607 604 638.5 524.5 c 128,-1,2
 670 445 670 445 670 350 c 0,3,4
 670 251 670 251 638.5 172 c 128,-1,5
 607 93 607 93 542 46.5 c 128,-1,6
 477 0 477 0 380 0 c 2,7,-1
 120 0 l 2,8,9
 112 0 112 0 106 6 c 128,-1,10
 100 12 100 12 100 20 c 2,11,-1
 100 332 l 1,12,-1
 44 332 l 2,13,14
 24 332 24 332 24 351 c 256,15,16
 24 370 24 370 44 370 c 2,17,-1
 100 370 l 1,18,-1
 100 680 l 2,19,20
 100 688 100 688 106 694 c 128,-1,21
 112 700 112 700 120 700 c 2,22,-1
 380 700 l 2,23,0
 476 700 476 700 541.5 652 c 128,-1,1
564 125.5 m 128,-1,25
 628 211 628 211 628 350 c 0,26,27
 628 435 628 435 600.5 505.5 c 128,-1,28
 573 576 573 576 515.5 618 c 128,-1,29
 458 660 458 660 370 660 c 2,30,-1
 142 660 l 1,31,-1
 142 370 l 1,32,-1
 204 370 l 2,33,34
 224 370 224 370 224 350 c 0,35,36
 224 332 224 332 204 332 c 2,37,-1
 142 332 l 1,38,-1
 142 40 l 1,39,-1
 370 40 l 2,40,24
 500 40 500 40 564 125.5 c 128,-1,25
EndSplineSet
EndChar

StartChar: E
Encoding: 69 69 49
Width: 567
GlyphClass: 2
Flags: W
AnchorPoint: "Anchor-8" 0 0 basechar 0
AnchorPoint: "Anchor-7" 0 0 basechar 0
AnchorPoint: "Anchor-6" 322 700 basechar 0
AnchorPoint: "Anchor-5" 510 10 basechar 0
AnchorPoint: "Anchor-4" 320 0 basechar 0
LayerCount: 2
Fore
SplineSet
511 34 m 128,-1,1
 517 28 517 28 517 20 c 0,2,3
 517 11 517 11 511 5.5 c 128,-1,4
 505 0 505 0 497 0 c 2,5,-1
 120 0 l 2,6,7
 112 0 112 0 106 6 c 128,-1,8
 100 12 100 12 100 20 c 2,9,-1
 100 680 l 2,10,11
 100 688 100 688 106 694 c 128,-1,12
 112 700 112 700 120 700 c 2,13,-1
 497 700 l 2,14,15
 505 700 505 700 511 694 c 128,-1,16
 517 688 517 688 517 680 c 0,17,18
 517 671 517 671 511 665.5 c 128,-1,19
 505 660 505 660 497 660 c 2,20,-1
 142 660 l 1,21,-1
 142 381 l 1,22,-1
 452 381 l 2,23,24
 460 381 460 381 466 375 c 128,-1,25
 472 369 472 369 472 361 c 0,26,27
 472 352 472 352 466 346.5 c 128,-1,28
 460 341 460 341 452 341 c 2,29,-1
 142 341 l 1,30,-1
 142 40 l 1,31,-1
 497 40 l 2,32,0
 505 40 505 40 511 34 c 128,-1,1
EndSplineSet
EndChar

StartChar: uni1E1C
Encoding: 7708 7708 53
Width: 567
GlyphClass: 2
Flags: W
AnchorPoint: "Anchor-8" 0 0 basechar 0
AnchorPoint: "Anchor-7" 0 0 basechar 0
AnchorPoint: "Anchor-6" 0 0 basechar 0
AnchorPoint: "Anchor-5" 510 10 basechar 0
AnchorPoint: "Anchor-4" 315 -141 basechar 0
LayerCount: 2
Fore
SplineSet
238 807 m 128,-1,1
 204 834 204 834 192 883 c 0,2,3
 191 885 191 885 191 890 c 0,4,5
 191 905 191 905 207 905 c 0,6,7
 216 905 216 905 219.5 901.5 c 128,-1,8
 223 898 223 898 227 888 c 0,9,10
 254 819 254 819 322 819 c 0,11,12
 389 819 389 819 416 888 c 0,13,14
 419 897 419 897 423.5 900.5 c 128,-1,15
 428 904 428 904 436 904 c 0,16,17
 447 904 447 904 450.5 899 c 128,-1,18
 454 894 454 894 452 883 c 0,19,20
 440 834 440 834 406 807 c 128,-1,21
 372 780 372 780 322 780 c 256,22,0
 272 780 272 780 238 807 c 128,-1,1
511 34 m 128,-1,24
 517 28 517 28 517 20 c 0,25,26
 517 11 517 11 511 5.5 c 128,-1,27
 505 0 505 0 497 0 c 2,28,-1
 333 0 l 1,29,-1
 271 -126 l 2,30,31
 264 -141 264 -141 250 -141 c 0,32,33
 240 -141 240 -141 227.5 -132.5 c 128,-1,34
 215 -124 215 -124 215 -114 c 0,35,36
 215 -105 215 -105 220 -100 c 2,37,-1
 302 0 l 1,38,-1
 120 0 l 2,39,40
 112 0 112 0 106 6 c 128,-1,41
 100 12 100 12 100 20 c 2,42,-1
 100 680 l 2,43,44
 100 688 100 688 106 694 c 128,-1,45
 112 700 112 700 120 700 c 2,46,-1
 497 700 l 2,47,48
 505 700 505 700 511 694 c 128,-1,49
 517 688 517 688 517 680 c 0,50,51
 517 671 517 671 511 665.5 c 128,-1,52
 505 660 505 660 497 660 c 2,53,-1
 142 660 l 1,54,-1
 142 381 l 1,55,-1
 452 381 l 2,56,57
 460 381 460 381 466 375 c 128,-1,58
 472 369 472 369 472 361 c 0,59,60
 472 352 472 352 466 346.5 c 128,-1,61
 460 341 460 341 452 341 c 2,62,-1
 142 341 l 1,63,-1
 142 40 l 1,64,-1
 497 40 l 2,65,23
 505 40 505 40 511 34 c 128,-1,24
EndSplineSet
EndChar

StartChar: Eogonek
Encoding: 280 280 70
Width: 581
GlyphClass: 2
Flags: W
AnchorPoint: "Anchor-8" 0 0 basechar 0
AnchorPoint: "Anchor-7" 0 0 basechar 0
AnchorPoint: "Anchor-6" 304 700 basechar 0
AnchorPoint: "Anchor-5" 510 10 basechar 0
AnchorPoint: "Anchor-4" 320 0 basechar 0
LayerCount: 2
Fore
SplineSet
527 -126 m 128,-1,1
 531 -130 531 -130 531 -136 c 0,2,3
 531 -156 531 -156 510.5 -170.5 c 128,-1,4
 490 -185 490 -185 459 -185 c 0,5,6
 424 -185 424 -185 397.5 -159 c 128,-1,7
 371 -133 371 -133 371 -93 c 0,8,9
 371 -35 371 -35 422 0 c 1,10,-1
 120 0 l 2,11,12
 112 0 112 0 106 6 c 128,-1,13
 100 12 100 12 100 20 c 2,14,-1
 100 680 l 2,15,16
 100 688 100 688 106 694 c 128,-1,17
 112 700 112 700 120 700 c 2,18,-1
 497 700 l 2,19,20
 505 700 505 700 511 694 c 128,-1,21
 517 688 517 688 517 680 c 0,22,23
 517 671 517 671 511 665.5 c 128,-1,24
 505 660 505 660 497 660 c 2,25,-1
 142 660 l 1,26,-1
 142 381 l 1,27,-1
 452 381 l 2,28,29
 460 381 460 381 466 375 c 128,-1,30
 472 369 472 369 472 361 c 0,31,32
 472 352 472 352 466 346.5 c 128,-1,33
 460 341 460 341 452 341 c 2,34,-1
 142 341 l 1,35,-1
 142 40 l 1,36,-1
 497 40 l 2,37,38
 505 40 505 40 511 34 c 128,-1,39
 517 28 517 28 517 20 c 0,40,41
 517 11 517 11 510.5 5.5 c 128,-1,42
 504 0 504 0 492 -1 c 0,43,44
 463 -3 463 -3 436 -27.5 c 128,-1,45
 409 -52 409 -52 409 -85 c 0,46,47
 409 -114 409 -114 425.5 -131 c 128,-1,48
 442 -148 442 -148 464 -148 c 0,49,50
 491 -148 491 -148 496 -137 c 0,51,52
 504 -122 504 -122 517 -122 c 0,53,0
 523 -122 523 -122 527 -126 c 128,-1,1
EndSplineSet
EndChar

StartChar: F
Encoding: 70 70 72
Width: 567
GlyphClass: 2
Flags: W
AnchorPoint: "Anchor-8" 0 0 basechar 0
AnchorPoint: "Anchor-7" 127 214 basechar 0
AnchorPoint: "Anchor-6" 284 700 basechar 0
AnchorPoint: "Anchor-5" 0 0 basechar 0
AnchorPoint: "Anchor-4" 284 0 basechar 0
LayerCount: 2
Fore
SplineSet
511 694 m 128,-1,1
 517 688 517 688 517 680 c 0,2,3
 517 671 517 671 511 665.5 c 128,-1,4
 505 660 505 660 497 660 c 2,5,-1
 140 660 l 1,6,-1
 140 384 l 1,7,-1
 452 384 l 2,8,9
 460 384 460 384 466 378 c 128,-1,10
 472 372 472 372 472 364 c 0,11,12
 472 355 472 355 466 349.5 c 128,-1,13
 460 344 460 344 452 344 c 2,14,-1
 140 344 l 1,15,-1
 140 20 l 2,16,17
 140 12 140 12 134.5 6 c 128,-1,18
 129 0 129 0 120 0 c 256,19,20
 111 0 111 0 105.5 6 c 128,-1,21
 100 12 100 12 100 20 c 2,22,-1
 100 680 l 2,23,24
 100 688 100 688 106 694 c 128,-1,25
 112 700 112 700 120 700 c 2,26,-1
 497 700 l 2,27,0
 505 700 505 700 511 694 c 128,-1,1
EndSplineSet
EndChar

StartChar: G
Encoding: 71 71 73
Width: 694
GlyphClass: 2
Flags: W
AnchorPoint: "Anchor-8" 0 0 basechar 0
AnchorPoint: "Anchor-7" 0 0 basechar 0
AnchorPoint: "Anchor-6" 377 700 basechar 0
AnchorPoint: "Anchor-5" 0 0 basechar 0
AnchorPoint: "Anchor-4" 388 0 basechar 0
LayerCount: 2
Fore
SplineSet
623.5 339 m 128,-1,1
 629 333 629 333 629 325 c 2,2,-1
 629 74 l 2,3,4
 629 62 629 62 620 56 c 0,5,6
 574 25 574 25 519.5 7.5 c 128,-1,7
 465 -10 465 -10 409 -10 c 0,8,9
 306 -10 306 -10 224.5 36.5 c 128,-1,10
 143 83 143 83 96.5 165 c 128,-1,11
 50 247 50 247 50 350 c 256,12,13
 50 453 50 453 96.5 535 c 128,-1,14
 143 617 143 617 224.5 663.5 c 128,-1,15
 306 710 306 710 409 710 c 0,16,17
 465 710 465 710 515.5 696.5 c 128,-1,18
 566 683 566 683 606 656 c 0,19,20
 615 650 615 650 615 639 c 0,21,22
 615 630 615 630 608.5 624.5 c 128,-1,23
 602 619 602 619 596 619 c 0,24,25
 591 619 591 619 583 623 c 0,26,27
 499 670 499 670 409 670 c 0,28,29
 317 670 317 670 245 629 c 128,-1,30
 173 588 173 588 132.5 515 c 128,-1,31
 92 442 92 442 92 350 c 256,32,33
 92 258 92 258 132.5 185 c 128,-1,34
 173 112 173 112 245 71 c 128,-1,35
 317 30 317 30 409 30 c 0,36,37
 455 30 455 30 502.5 44.5 c 128,-1,38
 550 59 550 59 589 83 c 1,39,-1
 589 305 l 1,40,-1
 409 305 l 2,41,42
 401 305 401 305 395 311 c 128,-1,43
 389 317 389 317 389 325 c 0,44,45
 389 334 389 334 395 339.5 c 128,-1,46
 401 345 401 345 409 345 c 2,47,-1
 609 345 l 2,48,0
 618 345 618 345 623.5 339 c 128,-1,1
EndSplineSet
EndChar

StartChar: H
Encoding: 72 72 80
Width: 720
GlyphClass: 2
Flags: W
AnchorPoint: "Anchor-8" 0 0 basechar 0
AnchorPoint: "Anchor-7" 360 350 basechar 0
AnchorPoint: "Anchor-6" 360 700 basechar 0
AnchorPoint: "Anchor-5" 0 0 basechar 0
AnchorPoint: "Anchor-4" 360 0 basechar 0
LayerCount: 2
Fore
SplineSet
614 694 m 128,-1,1
 620 688 620 688 620 679 c 2,2,-1
 620 21 l 2,3,4
 619 12 619 12 613 6 c 128,-1,5
 607 0 607 0 599 0 c 0,6,7
 589 0 589 0 583.5 6 c 128,-1,8
 578 12 578 12 578 21 c 2,9,-1
 578 340 l 1,10,-1
 142 340 l 1,11,-1
 142 21 l 2,12,13
 141 12 141 12 135 6 c 128,-1,14
 129 0 129 0 121 0 c 0,15,16
 111 0 111 0 105.5 6 c 128,-1,17
 100 12 100 12 100 21 c 2,18,-1
 100 679 l 2,19,20
 100 688 100 688 106 694 c 128,-1,21
 112 700 112 700 121 700 c 256,22,23
 130 700 130 700 136 694 c 128,-1,24
 142 688 142 688 142 679 c 2,25,-1
 142 380 l 1,26,-1
 578 380 l 1,27,-1
 578 679 l 2,28,29
 578 688 578 688 584 694 c 128,-1,30
 590 700 590 700 599 700 c 256,31,0
 608 700 608 700 614 694 c 128,-1,1
EndSplineSet
EndChar

StartChar: Hbar
Encoding: 294 294 81
Width: 841
GlyphClass: 2
Flags: W
AnchorPoint: "Anchor-8" 0 0 basechar 0
AnchorPoint: "Anchor-7" 420 350 basechar 0
AnchorPoint: "Anchor-6" 420 700 basechar 0
AnchorPoint: "Anchor-5" 0 0 basechar 0
AnchorPoint: "Anchor-4" 420 0 basechar 0
LayerCount: 2
Fore
SplineSet
735 523 m 128,-1,1
 741 517 741 517 741 509 c 0,2,3
 741 500 741 500 735 494.5 c 128,-1,4
 729 489 729 489 721 489 c 2,5,-1
 680 489 l 1,6,-1
 680 21 l 2,7,8
 679 12 679 12 673 6 c 128,-1,9
 667 0 667 0 659 0 c 0,10,11
 649 0 649 0 643.5 6 c 128,-1,12
 638 12 638 12 638 21 c 2,13,-1
 638 340 l 1,14,-1
 202 340 l 1,15,-1
 202 21 l 2,16,17
 201 12 201 12 195 6 c 128,-1,18
 189 0 189 0 181 0 c 0,19,20
 171 0 171 0 165.5 6 c 128,-1,21
 160 12 160 12 160 21 c 2,22,-1
 160 489 l 1,23,-1
 120 489 l 2,24,25
 112 489 112 489 106 495 c 128,-1,26
 100 501 100 501 100 509 c 0,27,28
 100 518 100 518 106 523.5 c 128,-1,29
 112 529 112 529 120 529 c 2,30,-1
 160 529 l 1,31,-1
 160 679 l 2,32,33
 160 688 160 688 166 694 c 128,-1,34
 172 700 172 700 181 700 c 256,35,36
 190 700 190 700 196 694 c 128,-1,37
 202 688 202 688 202 679 c 2,38,-1
 202 529 l 1,39,-1
 638 529 l 1,40,-1
 638 679 l 2,41,42
 638 688 638 688 644 694 c 128,-1,43
 650 700 650 700 659 700 c 256,44,45
 668 700 668 700 674 694 c 128,-1,46
 680 688 680 688 680 679 c 2,47,-1
 680 529 l 1,48,-1
 721 529 l 2,49,0
 729 529 729 529 735 523 c 128,-1,1
638 489 m 1,50,-1
 202 489 l 1,51,-1
 202 380 l 1,52,-1
 638 380 l 1,53,-1
 638 489 l 1,50,-1
EndSplineSet
EndChar

StartChar: I
Encoding: 73 73 85
Width: 242
GlyphClass: 2
Flags: W
AnchorPoint: "Anchor-8" 0 0 basechar 0
AnchorPoint: "Anchor-7" 0 0 basechar 0
AnchorPoint: "Anchor-6" 121 700 basechar 0
AnchorPoint: "Anchor-5" 218 10 basechar 0
AnchorPoint: "Anchor-4" 121 0 basechar 0
LayerCount: 2
Fore
SplineSet
135 6 m 128,-1,1
 129 0 129 0 121 0 c 0,2,3
 111 0 111 0 105.5 6 c 128,-1,4
 100 12 100 12 100 21 c 2,5,-1
 100 679 l 2,6,7
 100 688 100 688 106 694 c 128,-1,8
 112 700 112 700 121 700 c 256,9,10
 130 700 130 700 136 694 c 128,-1,11
 142 688 142 688 142 679 c 2,12,-1
 142 21 l 2,13,0
 141 12 141 12 135 6 c 128,-1,1
EndSplineSet
EndChar

StartChar: IJ
Encoding: 306 306 86
Width: 603
GlyphClass: 2
Flags: W
AnchorPoint: "Anchor-8" 0 0 basechar 0
AnchorPoint: "Anchor-7" 0 0 basechar 0
AnchorPoint: "Anchor-6" 483 700 basechar 0
AnchorPoint: "Anchor-5" 234 10 basechar 0
AnchorPoint: "Anchor-4" 137 0 basechar 0
LayerCount: 2
Fore
SplineSet
177.5 28 m 128,-1,1
 127 66 127 66 102 129 c 0,2,3
 100 135 100 135 100 139 c 0,4,5
 100 147 100 147 106 152 c 128,-1,6
 112 157 112 157 120 157 c 0,7,8
 133 157 133 157 139 144 c 0,9,10
 158 93 158 93 199 61.5 c 128,-1,11
 240 30 240 30 292 30 c 0,12,13
 369 30 369 30 415 76 c 128,-1,14
 461 122 461 122 461 199 c 2,15,-1
 461 680 l 2,16,17
 461 688 461 688 467 694 c 128,-1,18
 473 700 473 700 483 700 c 0,19,20
 492 700 492 700 497.5 694 c 128,-1,21
 503 688 503 688 503 680 c 2,22,-1
 503 199 l 2,23,24
 503 137 503 137 476.5 89.5 c 128,-1,25
 450 42 450 42 402 16 c 128,-1,26
 354 -10 354 -10 292 -10 c 0,27,0
 228 -10 228 -10 177.5 28 c 128,-1,1
151 236 m 128,-1,29
 145 230 145 230 137 230 c 0,30,31
 127 230 127 230 121.5 236 c 128,-1,32
 116 242 116 242 116 251 c 2,33,-1
 116 679 l 2,34,35
 116 688 116 688 122 694 c 128,-1,36
 128 700 128 700 137 700 c 256,37,38
 146 700 146 700 152 694 c 128,-1,39
 158 688 158 688 158 679 c 2,40,-1
 158 251 l 2,41,28
 157 242 157 242 151 236 c 128,-1,29
EndSplineSet
EndChar

StartChar: Iogonek
Encoding: 302 302 100
Width: 220
GlyphClass: 2
Flags: W
AnchorPoint: "Anchor-8" 0 0 basechar 0
AnchorPoint: "Anchor-7" 0 0 basechar 0
AnchorPoint: "Anchor-6" 119 700 basechar 0
AnchorPoint: "Anchor-5" 216 10 basechar 0
AnchorPoint: "Anchor-4" 122 0 basechar 0
LayerCount: 2
Fore
SplineSet
171 -126 m 128,-1,1
 175 -130 175 -130 175 -136 c 0,2,3
 175 -156 175 -156 154.5 -170.5 c 128,-1,4
 134 -185 134 -185 103 -185 c 0,5,6
 68 -185 68 -185 41.5 -159 c 128,-1,7
 15 -133 15 -133 15 -93 c 0,8,9
 15 -50 15 -50 39 -19.5 c 128,-1,10
 63 11 63 11 98 23 c 1,11,-1
 98 679 l 2,12,13
 98 688 98 688 104 694 c 128,-1,14
 110 700 110 700 119 700 c 256,15,16
 128 700 128 700 134 694 c 128,-1,17
 140 688 140 688 140 679 c 2,18,-1
 140 30 l 2,19,20
 140 20 140 20 136 15.5 c 128,-1,21
 132 11 132 11 120 6 c 0,22,23
 94 -5 94 -5 73.5 -29 c 128,-1,24
 53 -53 53 -53 53 -85 c 0,25,26
 53 -114 53 -114 69.5 -131 c 128,-1,27
 86 -148 86 -148 108 -148 c 0,28,29
 123 -148 123 -148 131 -143.5 c 128,-1,30
 139 -139 139 -139 146.5 -130.5 c 128,-1,31
 154 -122 154 -122 161 -122 c 0,32,0
 167 -122 167 -122 171 -126 c 128,-1,1
EndSplineSet
EndChar

StartChar: J
Encoding: 74 74 102
Width: 578
GlyphClass: 2
Flags: W
AnchorPoint: "Anchor-8" 0 0 basechar 0
AnchorPoint: "Anchor-7" 0 0 basechar 0
AnchorPoint: "Anchor-6" 458 700 basechar 0
AnchorPoint: "Anchor-5" 0 0 basechar 0
AnchorPoint: "Anchor-4" 289 0 basechar 0
LayerCount: 2
Fore
SplineSet
152.5 28 m 128,-1,1
 102 66 102 66 77 129 c 0,2,3
 75 135 75 135 75 139 c 0,4,5
 75 147 75 147 81 152 c 128,-1,6
 87 157 87 157 95 157 c 0,7,8
 108 157 108 157 114 144 c 0,9,10
 133 93 133 93 174 61.5 c 128,-1,11
 215 30 215 30 267 30 c 0,12,13
 344 30 344 30 390 76 c 128,-1,14
 436 122 436 122 436 199 c 2,15,-1
 436 680 l 2,16,17
 436 688 436 688 442 694 c 128,-1,18
 448 700 448 700 458 700 c 0,19,20
 467 700 467 700 472.5 694 c 128,-1,21
 478 688 478 688 478 680 c 2,22,-1
 478 199 l 2,23,24
 478 137 478 137 451.5 89.5 c 128,-1,25
 425 42 425 42 377 16 c 128,-1,26
 329 -10 329 -10 267 -10 c 0,27,0
 203 -10 203 -10 152.5 28 c 128,-1,1
EndSplineSet
EndChar

StartChar: K
Encoding: 75 75 104
Width: 682
GlyphClass: 2
Flags: W
AnchorPoint: "Anchor-8" 0 0 basechar 0
AnchorPoint: "Anchor-7" 0 0 basechar 0
AnchorPoint: "Anchor-6" 341 700 basechar 0
AnchorPoint: "Anchor-5" 0 0 basechar 0
AnchorPoint: "Anchor-4" 300 0 basechar 0
LayerCount: 2
Fore
SplineSet
629 16 m 0,1,2
 629 5 629 5 621.5 0 c 128,-1,3
 614 -5 614 -5 606 -5 c 256,4,5
 598 -5 598 -5 592 2 c 2,6,-1
 292 373 l 1,7,-1
 142 234 l 1,8,-1
 142 21 l 2,9,10
 141 12 141 12 135 6 c 128,-1,11
 129 0 129 0 121 0 c 0,12,13
 111 0 111 0 105.5 6 c 128,-1,14
 100 12 100 12 100 21 c 2,15,-1
 100 679 l 2,16,17
 100 688 100 688 106 694 c 128,-1,18
 112 700 112 700 121 700 c 256,19,20
 130 700 130 700 136 694 c 128,-1,21
 142 688 142 688 142 679 c 2,22,-1
 142 285 l 1,23,-1
 574 690 l 2,24,25
 580 696 580 696 588 696 c 256,26,27
 596 696 596 696 602 690 c 128,-1,28
 608 684 608 684 608 676 c 256,29,30
 608 668 608 668 602 662 c 2,31,-1
 325 404 l 1,32,-1
 624 30 l 2,33,0
 629 23 629 23 629 16 c 0,1,2
EndSplineSet
EndChar

StartChar: L
Encoding: 76 76 106
Width: 522
GlyphClass: 2
Flags: W
AnchorPoint: "Anchor-8" 502 700 basechar 0
AnchorPoint: "Anchor-7" 261 350 basechar 0
AnchorPoint: "Anchor-6" 111 700 basechar 0
AnchorPoint: "Anchor-5" 0 0 basechar 0
AnchorPoint: "Anchor-4" 286 0 basechar 0
LayerCount: 2
Fore
SplineSet
501 34 m 128,-1,1
 507 28 507 28 507 20 c 0,2,3
 507 11 507 11 501 5.5 c 128,-1,4
 495 0 495 0 487 0 c 2,5,-1
 120 0 l 2,6,7
 111 0 111 0 105.5 6 c 128,-1,8
 100 12 100 12 100 20 c 2,9,-1
 100 680 l 2,10,11
 100 688 100 688 106 694 c 128,-1,12
 112 700 112 700 121 700 c 256,13,14
 130 700 130 700 136 694 c 128,-1,15
 142 688 142 688 142 680 c 2,16,-1
 142 40 l 1,17,-1
 487 40 l 2,18,0
 495 40 495 40 501 34 c 128,-1,1
EndSplineSet
EndChar

StartChar: Lcaron
Encoding: 317 317 109
Width: 523
Flags: W
LayerCount: 2
Fore
SplineSet
494.5 599.5 m 128,-1,1
 481 573 481 573 460.5 557.5 c 128,-1,2
 440 542 440 542 422 542 c 0,3,4
 415 542 415 542 409.5 546 c 128,-1,5
 404 550 404 550 404 558 c 0,6,7
 404 567 404 567 408 570 c 128,-1,8
 412 573 412 573 422.5 576 c 128,-1,9
 433 579 433 579 439 582 c 0,10,11
 453 589 453 589 460.5 604 c 128,-1,12
 468 619 468 619 468 635 c 0,13,14
 468 659 468 659 451 659 c 0,15,16
 436 659 436 659 425 650 c 1,17,18
 417 660 417 660 417 670 c 0,19,20
 417 683 417 683 430.5 693 c 128,-1,21
 444 703 444 703 461 703 c 0,22,23
 482 703 482 703 495 690 c 128,-1,24
 508 677 508 677 508 656 c 0,25,0
 508 626 508 626 494.5 599.5 c 128,-1,1
501 34 m 128,-1,27
 507 28 507 28 507 20 c 0,28,29
 507 11 507 11 501 5.5 c 128,-1,30
 495 0 495 0 487 0 c 2,31,-1
 120 0 l 2,32,33
 111 0 111 0 105.5 6 c 128,-1,34
 100 12 100 12 100 20 c 2,35,-1
 100 680 l 2,36,37
 100 688 100 688 106 694 c 128,-1,38
 112 700 112 700 120 700 c 0,39,40
 129 700 129 700 134.5 694 c 128,-1,41
 140 688 140 688 140 680 c 2,42,-1
 140 45 l 2,43,44
 140 40 140 40 145 40 c 2,45,-1
 487 40 l 2,46,26
 495 40 495 40 501 34 c 128,-1,27
EndSplineSet
EndChar

StartChar: Lslash
Encoding: 321 321 115
Width: 561
Flags: W
LayerCount: 2
Fore
SplineSet
540 34 m 128,-1,1
 546 28 546 28 546 20 c 0,2,3
 546 11 546 11 540 5.5 c 128,-1,4
 534 0 534 0 526 0 c 2,5,-1
 159 0 l 2,6,7
 150 0 150 0 144.5 6 c 128,-1,8
 139 12 139 12 139 20 c 2,9,-1
 139 377 l 1,10,-1
 78 350 l 2,11,12
 75 348 75 348 68 348 c 0,13,14
 59 348 59 348 54.5 353 c 128,-1,15
 50 358 50 358 50 367 c 0,16,17
 50 380 50 380 62 386 c 2,18,-1
 139 420 l 1,19,-1
 139 680 l 2,20,21
 139 688 139 688 145 694 c 128,-1,22
 151 700 151 700 159 700 c 0,23,24
 168 700 168 700 173.5 694 c 128,-1,25
 179 688 179 688 179 680 c 2,26,-1
 179 437 l 1,27,-1
 262 474 l 2,28,29
 268 477 268 477 273 477 c 0,30,31
 282 477 282 477 286.5 470.5 c 128,-1,32
 291 464 291 464 291 457 c 0,33,34
 291 444 291 444 278 438 c 2,35,-1
 179 394 l 1,36,-1
 179 40 l 1,37,-1
 526 40 l 2,38,0
 534 40 534 40 540 34 c 128,-1,1
EndSplineSet
EndChar

StartChar: M
Encoding: 77 77 116
Width: 829
GlyphClass: 2
Flags: W
AnchorPoint: "Anchor-8" 0 0 basechar 0
AnchorPoint: "Anchor-7" 0 0 basechar 0
AnchorPoint: "Anchor-6" 415 700 basechar 0
AnchorPoint: "Anchor-5" 0 0 basechar 0
AnchorPoint: "Anchor-4" 415 0 basechar 0
LayerCount: 2
Fore
SplineSet
724 693.5 m 128,-1,1
 729 688 729 688 729 680 c 2,2,-1
 729 20 l 2,3,4
 729 12 729 12 722.5 6 c 128,-1,5
 716 0 716 0 708 0 c 0,6,7
 699 0 699 0 693 6 c 128,-1,8
 687 12 687 12 687 20 c 2,9,-1
 687 618 l 1,10,-1
 429 228 l 2,11,12
 424 220 424 220 415 220 c 0,13,14
 404 220 404 220 399 228 c 2,15,-1
 140 619 l 1,16,-1
 140 20 l 2,17,18
 140 12 140 12 134 6 c 128,-1,19
 128 0 128 0 120 0 c 0,20,21
 111 0 111 0 105.5 6 c 128,-1,22
 100 12 100 12 100 20 c 2,23,-1
 100 680 l 2,24,25
 100 687 100 687 105.5 693.5 c 128,-1,26
 111 700 111 700 119 700 c 0,27,28
 132 700 132 700 138 691 c 2,29,-1
 415 279 l 1,30,-1
 692 691 l 2,31,32
 700 702 700 702 711 700 c 0,33,0
 719 699 719 699 724 693.5 c 128,-1,1
EndSplineSet
EndChar

StartChar: N
Encoding: 78 78 118
Width: 725
GlyphClass: 2
Flags: W
AnchorPoint: "Anchor-8" 0 0 basechar 0
AnchorPoint: "Anchor-7" 0 0 basechar 0
AnchorPoint: "Anchor-6" 363 700 basechar 0
AnchorPoint: "Anchor-5" 0 0 basechar 0
AnchorPoint: "Anchor-4" 363 0 basechar 0
LayerCount: 2
Fore
SplineSet
620 694.5 m 128,-1,1
 625 689 625 689 625 681 c 2,2,-1
 625 22 l 2,3,4
 625 11 625 11 619 5.5 c 128,-1,5
 613 0 613 0 604 0 c 0,6,7
 594 0 594 0 588 8 c 2,8,-1
 138 623 l 1,9,-1
 138 17 l 2,10,11
 138 10 138 10 132.5 5 c 128,-1,12
 127 0 127 0 119 0 c 0,13,14
 110 0 110 0 105 5 c 128,-1,15
 100 10 100 10 100 17 c 2,16,-1
 100 680 l 2,17,18
 100 690 100 690 105.5 695 c 128,-1,19
 111 700 111 700 118 700 c 0,20,21
 127 700 127 700 133 693 c 2,22,-1
 587 74 l 1,23,-1
 587 681 l 2,24,25
 587 689 587 689 592.5 694.5 c 128,-1,26
 598 700 598 700 606 700 c 0,27,0
 615 700 615 700 620 694.5 c 128,-1,1
EndSplineSet
EndChar

StartChar: Eng
Encoding: 330 330 125
Width: 745
Flags: W
LayerCount: 2
Fore
SplineSet
639.5 690 m 128,-1,1
 645 684 645 684 645 676 c 2,2,-1
 645 -44 l 2,3,4
 645 -200 645 -200 470 -200 c 0,5,6
 460 -200 460 -200 454 -194.5 c 128,-1,7
 448 -189 448 -189 448 -180 c 256,8,9
 448 -171 448 -171 454 -165.5 c 128,-1,10
 460 -160 460 -160 469 -160 c 0,11,12
 549 -160 549 -160 576.5 -130.5 c 128,-1,13
 604 -101 604 -101 605 -44 c 2,14,-1
 606 12 l 1,15,-1
 140 622 l 1,16,-1
 140 20 l 2,17,18
 140 12 140 12 134 6 c 128,-1,19
 128 0 128 0 120 0 c 0,20,21
 111 0 111 0 105.5 6 c 128,-1,22
 100 12 100 12 100 20 c 2,23,-1
 100 680 l 2,24,25
 100 689 100 689 106 694.5 c 128,-1,26
 112 700 112 700 121 700 c 0,27,28
 126 700 126 700 130.5 697 c 128,-1,29
 135 694 135 694 137 691 c 2,30,-1
 605 79 l 1,31,-1
 605 676 l 2,32,33
 605 684 605 684 611 690 c 128,-1,34
 617 696 617 696 625 696 c 0,35,0
 634 696 634 696 639.5 690 c 128,-1,1
EndSplineSet
EndChar

StartChar: uni019D
Encoding: 413 413 126
Width: 725
GlyphClass: 2
Flags: W
AnchorPoint: "Anchor-8" 0 0 basechar 0
AnchorPoint: "Anchor-7" 0 0 basechar 0
AnchorPoint: "Anchor-6" 363 700 basechar 0
AnchorPoint: "Anchor-5" 0 0 basechar 0
AnchorPoint: "Anchor-4" 363 0 basechar 0
LayerCount: 2
Fore
SplineSet
620 694.5 m 128,-1,1
 625 689 625 689 625 681 c 2,2,-1
 625 22 l 2,3,4
 625 11 625 11 619 5.5 c 128,-1,5
 613 0 613 0 604 0 c 0,6,7
 594 0 594 0 588 8 c 2,8,-1
 138 623 l 1,9,-1
 138 -58 l 2,10,11
 138 -118 138 -118 98 -153.5 c 128,-1,12
 58 -189 58 -189 4 -198 c 1,13,-1
 0 -198 l 2,14,15
 -8 -198 -8 -198 -13 -193 c 128,-1,16
 -18 -188 -18 -188 -18 -180 c 0,17,18
 -18 -171 -18 -171 -13 -165.5 c 128,-1,19
 -8 -160 -8 -160 0 -159 c 0,20,21
 40 -153 40 -153 70 -128 c 128,-1,22
 100 -103 100 -103 100 -58 c 2,23,-1
 100 680 l 2,24,25
 100 690 100 690 105.5 695 c 128,-1,26
 111 700 111 700 118 700 c 0,27,28
 127 700 127 700 133 693 c 2,29,-1
 587 74 l 1,30,-1
 587 681 l 2,31,32
 587 689 587 689 592.5 694.5 c 128,-1,33
 598 700 598 700 606 700 c 0,34,0
 615 700 615 700 620 694.5 c 128,-1,1
EndSplineSet
EndChar

StartChar: O
Encoding: 79 79 130
Width: 768
GlyphClass: 2
Flags: W
AnchorPoint: "Anchor-8" 391 697 basechar 0
AnchorPoint: "Anchor-7" 384 350 basechar 0
AnchorPoint: "Anchor-6" 384 700 basechar 0
AnchorPoint: "Anchor-5" 691 10 basechar 0
AnchorPoint: "Anchor-4" 384 0 basechar 0
LayerCount: 2
Fore
SplineSet
675.5 163 m 128,-1,1
 633 81 633 81 557 35.5 c 128,-1,2
 481 -10 481 -10 384 -10 c 256,3,4
 287 -10 287 -10 211 35.5 c 128,-1,5
 135 81 135 81 92.5 163 c 128,-1,6
 50 245 50 245 50 350 c 256,7,8
 50 455 50 455 92.5 537 c 128,-1,9
 135 619 135 619 211 664.5 c 128,-1,10
 287 710 287 710 384 710 c 256,11,12
 481 710 481 710 557 664.5 c 128,-1,13
 633 619 633 619 675.5 537 c 128,-1,14
 718 455 718 455 718 350 c 256,15,0
 718 245 718 245 675.5 163 c 128,-1,1
639 517 m 128,-1,17
 602 590 602 590 535.5 630 c 128,-1,18
 469 670 469 670 384 670 c 256,19,20
 299 670 299 670 232.5 630 c 128,-1,21
 166 590 166 590 129 517 c 128,-1,22
 92 444 92 444 92 350 c 256,23,24
 92 256 92 256 129 183 c 128,-1,25
 166 110 166 110 232.5 70 c 128,-1,26
 299 30 299 30 384 30 c 256,27,28
 469 30 469 30 535.5 70 c 128,-1,29
 602 110 602 110 639 183 c 128,-1,30
 676 256 676 256 676 350 c 256,31,16
 676 444 676 444 639 517 c 128,-1,17
EndSplineSet
Substitution2: "Single Substitution lookup 20 subtable" ordmasculine
EndChar

StartChar: Ohorn
Encoding: 416 416 147
Width: 768
GlyphClass: 2
Flags: W
AnchorPoint: "Anchor-8" 391 697 basechar 0
AnchorPoint: "Anchor-7" 384 350 basechar 0
AnchorPoint: "Anchor-6" 384 700 basechar 0
AnchorPoint: "Anchor-5" 691 10 basechar 0
AnchorPoint: "Anchor-4" 384 0 basechar 0
LayerCount: 2
Fore
SplineSet
669 548.5 m 128,-1,1
 718 463 718 463 718 350 c 0,2,3
 718 245 718 245 675.5 163 c 128,-1,4
 633 81 633 81 557 35.5 c 128,-1,5
 481 -10 481 -10 384 -10 c 256,6,7
 287 -10 287 -10 211 35.5 c 128,-1,8
 135 81 135 81 92.5 163 c 128,-1,9
 50 245 50 245 50 350 c 256,10,11
 50 455 50 455 92.5 537 c 128,-1,12
 135 619 135 619 211 664.5 c 128,-1,13
 287 710 287 710 384 710 c 0,14,15
 430 710 430 710 469 700 c 1,16,17
 518 701 518 701 540 719.5 c 128,-1,18
 562 738 562 738 562 782 c 0,19,20
 562 795 562 795 566.5 803.5 c 128,-1,21
 571 812 571 812 580 812 c 0,22,23
 598 812 598 812 598 782 c 0,24,25
 598 745 598 745 581.5 718 c 128,-1,26
 565 691 565 691 535 676 c 1,27,0
 620 634 620 634 669 548.5 c 128,-1,1
535.5 70 m 128,-1,29
 602 110 602 110 639 183 c 128,-1,30
 676 256 676 256 676 350 c 256,31,32
 676 444 676 444 639 517 c 128,-1,33
 602 590 602 590 535.5 630 c 128,-1,34
 469 670 469 670 384 670 c 256,35,36
 299 670 299 670 232.5 630 c 128,-1,37
 166 590 166 590 129 517 c 128,-1,38
 92 444 92 444 92 350 c 256,39,40
 92 256 92 256 129 183 c 128,-1,41
 166 110 166 110 232.5 70 c 128,-1,42
 299 30 299 30 384 30 c 256,43,28
 469 30 469 30 535.5 70 c 128,-1,29
EndSplineSet
EndChar

StartChar: uni01EA
Encoding: 490 490 158
Width: 768
GlyphClass: 2
Flags: W
AnchorPoint: "Anchor-8" 391 697 basechar 0
AnchorPoint: "Anchor-7" 384 350 basechar 0
AnchorPoint: "Anchor-6" 384 700 basechar 0
AnchorPoint: "Anchor-5" 691 10 basechar 0
AnchorPoint: "Anchor-4" 384 0 basechar 0
LayerCount: 2
Fore
SplineSet
396 -38.5 m 128,-1,1
 379 -60 379 -60 379 -85 c 0,2,3
 379 -114 379 -114 395.5 -131 c 128,-1,4
 412 -148 412 -148 434 -148 c 0,5,6
 446 -148 446 -148 452 -147 c 128,-1,7
 458 -146 458 -146 461 -141 c 0,8,9
 469 -131 469 -131 474.5 -126.5 c 128,-1,10
 480 -122 480 -122 487 -122 c 0,11,12
 493 -122 493 -122 497 -126 c 128,-1,13
 501 -130 501 -130 501 -136 c 0,14,15
 501 -156 501 -156 480.5 -170.5 c 128,-1,16
 460 -185 460 -185 429 -185 c 0,17,18
 394 -185 394 -185 367.5 -159 c 128,-1,19
 341 -133 341 -133 341 -93 c 0,20,21
 341 -43 341 -43 379 -10 c 1,22,23
 283 -9 283 -9 208.5 37 c 128,-1,24
 134 83 134 83 92 164.5 c 128,-1,25
 50 246 50 246 50 350 c 0,26,27
 50 455 50 455 92.5 537 c 128,-1,28
 135 619 135 619 211 664.5 c 128,-1,29
 287 710 287 710 384 710 c 256,30,31
 481 710 481 710 557 664.5 c 128,-1,32
 633 619 633 619 675.5 537 c 128,-1,33
 718 455 718 455 718 350 c 0,34,35
 718 255 718 255 682.5 178.5 c 128,-1,36
 647 102 647 102 583.5 54 c 128,-1,37
 520 6 520 6 437 -6 c 1,38,0
 413 -17 413 -17 396 -38.5 c 128,-1,1
129 183 m 128,-1,40
 166 110 166 110 232.5 70 c 128,-1,41
 299 30 299 30 384 30 c 256,42,43
 469 30 469 30 535.5 70 c 128,-1,44
 602 110 602 110 639 183 c 128,-1,45
 676 256 676 256 676 350 c 256,46,47
 676 444 676 444 639 517 c 128,-1,48
 602 590 602 590 535.5 630 c 128,-1,49
 469 670 469 670 384 670 c 256,50,51
 299 670 299 670 232.5 630 c 128,-1,52
 166 590 166 590 129 517 c 128,-1,53
 92 444 92 444 92 350 c 256,54,39
 92 256 92 256 129 183 c 128,-1,40
EndSplineSet
EndChar

StartChar: Oslash
Encoding: 216 216 159
Width: 721
GlyphClass: 2
Flags: W
AnchorPoint: "Anchor-8" 391 697 basechar 0
AnchorPoint: "Anchor-7" 384 350 basechar 0
AnchorPoint: "Anchor-6" 361 700 basechar 0
AnchorPoint: "Anchor-5" 691 10 basechar 0
AnchorPoint: "Anchor-4" 361 0 basechar 0
LayerCount: 2
Fore
SplineSet
690.5 503.5 m 128,-1,1
 718 434 718 434 718 350 c 0,2,3
 718 245 718 245 675.5 163 c 128,-1,4
 633 81 633 81 557 35.5 c 128,-1,5
 481 -10 481 -10 384 -10 c 0,6,7
 317 -10 317 -10 259.5 12 c 128,-1,8
 202 34 202 34 158 76 c 1,9,-1
 91 -4 l 2,10,11
 85 -12 85 -12 80 -16 c 128,-1,12
 75 -20 75 -20 66 -20 c 0,13,14
 59 -20 59 -20 54 -15 c 128,-1,15
 49 -10 49 -10 49 -3 c 0,16,17
 49 3 49 3 54 10 c 2,18,-1
 132 104 l 1,19,20
 92 151 92 151 71 214 c 128,-1,21
 50 277 50 277 50 350 c 0,22,23
 50 455 50 455 92.5 537 c 128,-1,24
 135 619 135 619 211 664.5 c 128,-1,25
 287 710 287 710 384 710 c 0,26,27
 498 710 498 710 584 646 c 1,28,-1
 634 707 l 2,29,30
 640 714 640 714 644 716 c 128,-1,31
 648 718 648 718 656 718 c 0,32,33
 662 718 662 718 667.5 713.5 c 128,-1,34
 673 709 673 709 673 702 c 0,35,36
 673 694 673 694 667 687 c 2,37,-1
 613 622 l 1,38,0
 663 573 663 573 690.5 503.5 c 128,-1,1
159 136 m 1,40,-1
 557 615 l 1,41,42
 483 670 483 670 384 670 c 0,43,44
 299 670 299 670 232.5 630 c 128,-1,45
 166 590 166 590 129 517 c 128,-1,46
 92 444 92 444 92 350 c 0,47,39
 92 222 92 222 159 136 c 1,40,-1
535.5 70 m 128,-1,49
 602 110 602 110 639 183 c 128,-1,50
 676 256 676 256 676 350 c 0,51,52
 676 424 676 424 652.5 486 c 128,-1,53
 629 548 629 548 586 590 c 1,54,-1
 184 108 l 1,55,56
 223 70 223 70 274 50 c 128,-1,57
 325 30 325 30 384 30 c 0,58,48
 469 30 469 30 535.5 70 c 128,-1,49
EndSplineSet
EndChar

StartChar: OE
Encoding: 338 338 165
Width: 998
GlyphClass: 2
Flags: W
AnchorPoint: "Anchor-8" 0 0 basechar 0
AnchorPoint: "Anchor-7" 0 0 basechar 0
AnchorPoint: "Anchor-6" 494 700 basechar 0
AnchorPoint: "Anchor-5" 0 0 basechar 0
AnchorPoint: "Anchor-4" 494 0 basechar 0
LayerCount: 2
Fore
SplineSet
942 34 m 128,-1,1
 948 28 948 28 948 20 c 0,2,3
 948 11 948 11 942 5.5 c 128,-1,4
 936 0 936 0 928 0 c 2,5,-1
 340 0 l 2,6,7
 243 0 243 0 178 46.5 c 128,-1,8
 113 93 113 93 81.5 172 c 128,-1,9
 50 251 50 251 50 350 c 0,10,11
 50 445 50 445 81.5 524.5 c 128,-1,12
 113 604 113 604 178.5 652 c 128,-1,13
 244 700 244 700 340 700 c 2,14,-1
 928 700 l 2,15,16
 936 700 936 700 942 694 c 128,-1,17
 948 688 948 688 948 680 c 0,18,19
 948 671 948 671 942 665.5 c 128,-1,20
 936 660 936 660 928 660 c 2,21,-1
 581 660 l 1,22,-1
 581 386 l 1,23,-1
 883 386 l 2,24,25
 891 386 891 386 897 380 c 128,-1,26
 903 374 903 374 903 366 c 0,27,28
 903 357 903 357 897 351.5 c 128,-1,29
 891 346 891 346 883 346 c 2,30,-1
 581 346 l 1,31,-1
 581 40 l 1,32,-1
 928 40 l 2,33,0
 936 40 936 40 942 34 c 128,-1,1
154.5 126 m 128,-1,35
 219 40 219 40 350 40 c 2,36,-1
 540 40 l 1,37,-1
 540 660 l 1,38,-1
 350 660 l 2,39,40
 262 660 262 660 204 618 c 128,-1,41
 146 576 146 576 118 505.5 c 128,-1,42
 90 435 90 435 90 350 c 0,43,34
 90 212 90 212 154.5 126 c 128,-1,35
EndSplineSet
EndChar

StartChar: P
Encoding: 80 80 166
Width: 594
GlyphClass: 2
Flags: W
AnchorPoint: "Anchor-8" 0 0 basechar 0
AnchorPoint: "Anchor-7" 124 172 basechar 0
AnchorPoint: "Anchor-6" 297 700 basechar 0
AnchorPoint: "Anchor-5" 0 0 basechar 0
AnchorPoint: "Anchor-4" 297 0 basechar 0
LayerCount: 2
Fore
SplineSet
497 647 m 128,-1,1
 549 594 549 594 549 509 c 0,2,3
 549 453 549 453 525.5 407.5 c 128,-1,4
 502 362 502 362 459 336.5 c 128,-1,5
 416 311 416 311 360 311 c 2,6,-1
 142 311 l 1,7,-1
 142 20 l 2,8,9
 142 12 142 12 135.5 6 c 128,-1,10
 129 0 129 0 121 0 c 0,11,12
 112 0 112 0 106 6 c 128,-1,13
 100 12 100 12 100 20 c 2,14,-1
 100 680 l 2,15,16
 100 688 100 688 106 694 c 128,-1,17
 112 700 112 700 120 700 c 2,18,-1
 360 700 l 2,19,0
 445 700 445 700 497 647 c 128,-1,1
467 395.5 m 128,-1,21
 507 440 507 440 507 509 c 256,22,23
 507 578 507 578 467.5 619 c 128,-1,24
 428 660 428 660 360 660 c 2,25,-1
 142 660 l 1,26,-1
 142 351 l 1,27,-1
 360 351 l 2,28,20
 427 351 427 351 467 395.5 c 128,-1,21
EndSplineSet
EndChar

StartChar: Thorn
Encoding: 222 222 167
Width: 583
GlyphClass: 2
Flags: W
AnchorPoint: "Anchor-8" 0 0 basechar 0
AnchorPoint: "Anchor-7" 0 0 basechar 0
AnchorPoint: "Anchor-6" 262 700 basechar 0
AnchorPoint: "Anchor-5" 0 0 basechar 0
AnchorPoint: "Anchor-4" 262 0 basechar 0
LayerCount: 2
Fore
SplineSet
486 534 m 128,-1,1
 538 481 538 481 538 396 c 0,2,3
 538 340 538 340 514.5 294.5 c 128,-1,4
 491 249 491 249 448 223.5 c 128,-1,5
 405 198 405 198 349 198 c 2,6,-1
 140 198 l 1,7,-1
 140 20 l 2,8,9
 140 12 140 12 134 6 c 128,-1,10
 128 0 128 0 120 0 c 0,11,12
 111 0 111 0 105.5 6 c 128,-1,13
 100 12 100 12 100 20 c 2,14,-1
 100 720 l 2,15,16
 100 728 100 728 106 734 c 128,-1,17
 112 740 112 740 120 740 c 0,18,19
 129 740 129 740 134.5 734 c 128,-1,20
 140 728 140 728 140 720 c 2,21,-1
 140 587 l 1,22,-1
 349 587 l 2,23,0
 434 587 434 587 486 534 c 128,-1,1
456 282.5 m 128,-1,25
 496 327 496 327 496 396 c 256,26,27
 496 465 496 465 456.5 506 c 128,-1,28
 417 547 417 547 349 547 c 2,29,-1
 140 547 l 1,30,-1
 140 238 l 1,31,-1
 349 238 l 2,32,24
 416 238 416 238 456 282.5 c 128,-1,25
EndSplineSet
EndChar

StartChar: Q
Encoding: 81 81 168
Width: 782
GlyphClass: 2
Flags: W
AnchorPoint: "Anchor-8" 0 0 basechar 0
AnchorPoint: "Anchor-7" 0 0 basechar 0
AnchorPoint: "Anchor-6" 391 700 basechar 0
AnchorPoint: "Anchor-5" 0 0 basechar 0
AnchorPoint: "Anchor-4" 391 0 basechar 0
LayerCount: 2
Fore
SplineSet
792.5 -69.5 m 128,-1,1
 797 -74 797 -74 797 -82 c 0,2,3
 797 -101 797 -101 769 -120.5 c 128,-1,4
 741 -140 741 -140 699.5 -152.5 c 128,-1,5
 658 -165 658 -165 621 -165 c 0,6,7
 566 -165 566 -165 528 -153 c 128,-1,8
 490 -141 490 -141 441 -117 c 0,9,10
 400 -96 400 -96 370 -86 c 128,-1,11
 340 -76 340 -76 301 -76 c 0,12,13
 287 -76 287 -76 275.5 -79.5 c 128,-1,14
 264 -83 264 -83 248 -90 c 0,15,16
 230 -98 230 -98 224 -98 c 0,17,18
 216 -98 216 -98 210 -92 c 128,-1,19
 204 -86 204 -86 204 -77 c 0,20,21
 204 -65 204 -65 215 -60 c 2,22,-1
 361 -9 l 1,23,24
 270 -4 270 -4 199.5 43 c 128,-1,25
 129 90 129 90 89.5 169.5 c 128,-1,26
 50 249 50 249 50 350 c 0,27,28
 50 455 50 455 92.5 537 c 128,-1,29
 135 619 135 619 211 664.5 c 128,-1,30
 287 710 287 710 384 710 c 256,31,32
 481 710 481 710 557 664.5 c 128,-1,33
 633 619 633 619 675.5 537 c 128,-1,34
 718 455 718 455 718 350 c 0,35,36
 718 260 718 260 686.5 187 c 128,-1,37
 655 114 655 114 597.5 65 c 128,-1,38
 540 16 540 16 465 -1 c 1,39,-1
 342 -41 l 1,40,41
 373 -44 373 -44 399.5 -54 c 128,-1,42
 426 -64 426 -64 463 -82 c 0,43,44
 511 -105 511 -105 544 -116 c 128,-1,45
 577 -127 577 -127 621 -127 c 0,46,47
 658 -127 658 -127 684.5 -117.5 c 128,-1,48
 711 -108 711 -108 736 -94 c 0,49,50
 744 -90 744 -90 755 -79 c 0,51,52
 761 -73 761 -73 767.5 -69 c 128,-1,53
 774 -65 774 -65 780 -65 c 0,54,0
 788 -65 788 -65 792.5 -69.5 c 128,-1,1
129 183 m 128,-1,56
 166 110 166 110 232.5 70 c 128,-1,57
 299 30 299 30 384 30 c 256,58,59
 469 30 469 30 535.5 70 c 128,-1,60
 602 110 602 110 639 183 c 128,-1,61
 676 256 676 256 676 350 c 256,62,63
 676 444 676 444 639 517 c 128,-1,64
 602 590 602 590 535.5 630 c 128,-1,65
 469 670 469 670 384 670 c 256,66,67
 299 670 299 670 232.5 630 c 128,-1,68
 166 590 166 590 129 517 c 128,-1,69
 92 444 92 444 92 350 c 256,70,55
 92 256 92 256 129 183 c 128,-1,56
EndSplineSet
EndChar

StartChar: R
Encoding: 82 82 169
Width: 664
GlyphClass: 2
Flags: W
AnchorPoint: "Anchor-8" 0 0 basechar 0
AnchorPoint: "Anchor-7" 0 0 basechar 0
AnchorPoint: "Anchor-6" 327 700 basechar 0
AnchorPoint: "Anchor-5" 0 0 basechar 0
AnchorPoint: "Anchor-4" 327 0 basechar 0
LayerCount: 2
Fore
SplineSet
609 21 m 0,1,2
 609 12 609 12 603.5 6.5 c 128,-1,3
 598 1 598 1 590 1 c 0,4,5
 584 1 584 1 581 3 c 0,6,7
 554 18 554 18 538 53.5 c 128,-1,8
 522 89 522 89 522 170 c 0,9,10
 522 252 522 252 478 282.5 c 128,-1,11
 434 313 434 313 376 313 c 2,12,-1
 142 313 l 1,13,-1
 142 20 l 2,14,15
 142 12 142 12 136 6 c 128,-1,16
 130 0 130 0 121 0 c 256,17,18
 112 0 112 0 106 6 c 128,-1,19
 100 12 100 12 100 20 c 2,20,-1
 100 680 l 2,21,22
 100 688 100 688 106 694 c 128,-1,23
 112 700 112 700 120 700 c 2,24,-1
 384 700 l 2,25,26
 442 700 442 700 487 676.5 c 128,-1,27
 532 653 532 653 557 612 c 128,-1,28
 582 571 582 571 582 519 c 0,29,30
 582 452 582 452 546.5 404 c 128,-1,31
 511 356 511 356 454 339 c 1,32,33
 502 324 502 324 533 279.5 c 128,-1,34
 564 235 564 235 564 170 c 0,35,36
 564 103 564 103 572.5 76.5 c 128,-1,37
 581 50 581 50 598 39 c 0,38,0
 609 32 609 32 609 21 c 0,1,2
389 353 m 1,39,40
 452 359 452 359 496 403 c 128,-1,41
 540 447 540 447 540 518 c 0,42,43
 540 580 540 580 496 620 c 128,-1,44
 452 660 452 660 379 660 c 2,45,-1
 142 660 l 1,46,-1
 142 353 l 1,47,-1
 389 353 l 1,39,40
EndSplineSet
EndChar

StartChar: S
Encoding: 83 83 177
Width: 550
GlyphClass: 2
Flags: W
AnchorPoint: "Anchor-8" 0 0 basechar 0
AnchorPoint: "Anchor-7" 0 0 basechar 0
AnchorPoint: "Anchor-6" 275 700 basechar 0
AnchorPoint: "Anchor-5" 0 0 basechar 0
AnchorPoint: "Anchor-4" 275 0 basechar 0
LayerCount: 2
Fore
SplineSet
150 15.5 m 128,-1,1
 95 41 95 41 41 95 c 0,2,3
 35 101 35 101 35 110 c 0,4,5
 35 118 35 118 42 125.5 c 128,-1,6
 49 133 49 133 57 133 c 0,7,8
 66 133 66 133 74 124 c 0,9,10
 113 78 113 78 166.5 54 c 128,-1,11
 220 30 220 30 279 30 c 0,12,13
 356 30 356 30 406 67 c 128,-1,14
 456 104 456 104 456 165 c 0,15,16
 455 213 455 213 430 244 c 128,-1,17
 405 275 405 275 368.5 293.5 c 128,-1,18
 332 312 332 312 269 335 c 0,19,20
 200 361 200 361 161.5 381 c 128,-1,21
 123 401 123 401 95.5 438 c 128,-1,22
 68 475 68 475 68 535 c 0,23,24
 68 584 68 584 95 624 c 128,-1,25
 122 664 122 664 172 687 c 128,-1,26
 222 710 222 710 288 710 c 0,27,28
 347 710 347 710 400 688.5 c 128,-1,29
 453 667 453 667 484 628 c 0,30,31
 494 614 494 614 494 607 c 0,32,33
 494 599 494 599 486.5 592.5 c 128,-1,34
 479 586 479 586 470 586 c 0,35,36
 462 586 462 586 457 592 c 0,37,38
 429 628 429 628 385 649 c 128,-1,39
 341 670 341 670 288 670 c 0,40,41
 212 670 212 670 161.5 634 c 128,-1,42
 111 598 111 598 111 536 c 0,43,44
 111 493 111 493 135.5 463 c 128,-1,45
 160 433 160 433 197 414.5 c 128,-1,46
 234 396 234 396 289 376 c 0,47,48
 359 351 359 351 400 330 c 128,-1,49
 441 309 441 309 470 269 c 128,-1,50
 499 229 499 229 499 163 c 0,51,52
 499 117 499 117 472 77 c 128,-1,53
 445 37 445 37 394.5 13.5 c 128,-1,54
 344 -10 344 -10 279 -10 c 0,55,0
 205 -10 205 -10 150 15.5 c 128,-1,1
EndSplineSet
EndChar

StartChar: Scedilla
Encoding: 350 350 182
Width: 550
GlyphClass: 2
Flags: W
AnchorPoint: "Anchor-8" 0 0 basechar 0
AnchorPoint: "Anchor-7" 0 0 basechar 0
AnchorPoint: "Anchor-6" 0 0 basechar 0
AnchorPoint: "Anchor-5" 0 0 basechar 0
AnchorPoint: "Anchor-4" 270 -141 basechar 0
LayerCount: 2
Fore
SplineSet
472.5 77.5 m 128,-1,1
 446 38 446 38 396.5 14 c 128,-1,2
 347 -10 347 -10 283 -10 c 1,3,-1
 226 -126 l 2,4,5
 219 -141 219 -141 205 -141 c 0,6,7
 195 -141 195 -141 182.5 -132.5 c 128,-1,8
 170 -124 170 -124 170 -114 c 0,9,10
 170 -105 170 -105 175 -100 c 2,11,-1
 250 -9 l 1,12,13
 188 -4 188 -4 138.5 21.5 c 128,-1,14
 89 47 89 47 41 95 c 0,15,16
 35 101 35 101 35 110 c 0,17,18
 35 118 35 118 42 125.5 c 128,-1,19
 49 133 49 133 57 133 c 0,20,21
 66 133 66 133 74 124 c 0,22,23
 113 78 113 78 166.5 54 c 128,-1,24
 220 30 220 30 279 30 c 0,25,26
 356 30 356 30 406 67 c 128,-1,27
 456 104 456 104 456 165 c 0,28,29
 455 213 455 213 430 244 c 128,-1,30
 405 275 405 275 368.5 293.5 c 128,-1,31
 332 312 332 312 269 335 c 0,32,33
 200 361 200 361 161.5 381 c 128,-1,34
 123 401 123 401 95.5 438 c 128,-1,35
 68 475 68 475 68 535 c 0,36,37
 68 584 68 584 95 624 c 128,-1,38
 122 664 122 664 172 687 c 128,-1,39
 222 710 222 710 288 710 c 0,40,41
 347 710 347 710 400 688.5 c 128,-1,42
 453 667 453 667 484 628 c 0,43,44
 494 614 494 614 494 607 c 0,45,46
 494 599 494 599 486.5 592.5 c 128,-1,47
 479 586 479 586 470 586 c 0,48,49
 462 586 462 586 457 592 c 0,50,51
 429 628 429 628 385 649 c 128,-1,52
 341 670 341 670 288 670 c 0,53,54
 212 670 212 670 161.5 634 c 128,-1,55
 111 598 111 598 111 536 c 0,56,57
 111 493 111 493 135.5 463 c 128,-1,58
 160 433 160 433 197 414.5 c 128,-1,59
 234 396 234 396 289 376 c 0,60,61
 359 351 359 351 400 330 c 128,-1,62
 441 309 441 309 470 269 c 128,-1,63
 499 229 499 229 499 163 c 0,64,0
 499 117 499 117 472.5 77.5 c 128,-1,1
EndSplineSet
Substitution2: "'locl' Localized Forms in Latin lookup 2 subtable" uni0218
Substitution2: "'locl' Localized Forms in Latin lookup 1 subtable" uni0218
EndChar

StartChar: uni1E9E
Encoding: 7838 7838 188
Width: 692
Flags: W
LayerCount: 2
Fore
SplineSet
573 313.5 m 128,-1,1
 601 292 601 292 621 255 c 128,-1,2
 641 218 641 218 641 163 c 0,3,4
 641 117 641 117 617.5 77 c 128,-1,5
 594 37 594 37 551 13.5 c 128,-1,6
 508 -10 508 -10 452 -10 c 0,7,8
 401 -10 401 -10 364 11 c 128,-1,9
 327 32 327 32 293 75 c 0,10,11
 286 86 286 86 286 92 c 0,12,13
 286 100 286 100 293.5 106.5 c 128,-1,14
 301 113 301 113 309 113 c 0,15,16
 320 113 320 113 326 104 c 0,17,18
 351 69 351 69 383.5 49.5 c 128,-1,19
 416 30 416 30 451 30 c 0,20,21
 490 30 490 30 523.5 47 c 128,-1,22
 557 64 557 64 577.5 94.5 c 128,-1,23
 598 125 598 125 598 165 c 0,24,25
 596 205 596 205 580 233.5 c 128,-1,26
 564 262 564 262 540.5 281 c 128,-1,27
 517 300 517 300 480 322 c 0,28,29
 435 349 435 349 410.5 368.5 c 128,-1,30
 386 388 386 388 368 419 c 128,-1,31
 350 450 350 450 350 495 c 0,32,33
 350 556 350 556 400 598 c 128,-1,34
 450 640 450 640 541 651 c 1,35,36
 512 669 512 669 473.5 678.5 c 128,-1,37
 435 688 435 688 396 688 c 0,38,39
 259 688 259 688 200.5 622 c 128,-1,40
 142 556 142 556 142 453 c 2,41,-1
 140 24 l 2,42,43
 140 4 140 4 120 4 c 256,44,45
 100 4 100 4 100 24 c 2,46,-1
 102 453 l 2,47,48
 102 525 102 525 129.5 586.5 c 128,-1,49
 157 648 157 648 223 687 c 128,-1,50
 289 726 289 726 396 726 c 0,51,52
 448 726 448 726 500 710.5 c 128,-1,53
 552 695 552 695 585 670 c 0,54,55
 595 661 595 661 598.5 656.5 c 128,-1,56
 602 652 602 652 602 645 c 0,57,58
 602 629 602 629 582 626 c 0,59,60
 490 616 490 616 441.5 580.5 c 128,-1,61
 393 545 393 545 393 496 c 0,62,63
 393 462 393 462 407 438.5 c 128,-1,64
 421 415 421 415 442 399 c 128,-1,65
 463 383 463 383 499 362 c 0,66,0
 545 335 545 335 573 313.5 c 128,-1,1
EndSplineSet
EndChar

StartChar: uni018F
Encoding: 399 399 189
Width: 753
Flags: W
LayerCount: 2
Fore
SplineSet
540 661.5 m 128,-1,1
 615 613 615 613 659 530.5 c 128,-1,2
 703 448 703 448 703 350 c 256,3,4
 703 252 703 252 659 169.5 c 128,-1,5
 615 87 615 87 540 38.5 c 128,-1,6
 465 -10 465 -10 376 -10 c 0,7,8
 290 -10 290 -10 216 36.5 c 128,-1,9
 142 83 142 83 97 161.5 c 128,-1,10
 52 240 52 240 50 333 c 2,11,-1
 50 350 l 2,12,13
 50 357 50 357 56 362 c 128,-1,14
 62 367 62 367 70 367 c 2,15,-1
 659 367 l 1,16,17
 655 450 655 450 615 519.5 c 128,-1,18
 575 589 575 589 511.5 629.5 c 128,-1,19
 448 670 448 670 376 670 c 0,20,21
 292 670 292 670 231.5 639.5 c 128,-1,22
 171 609 171 609 123 545 c 0,23,24
 117 537 117 537 107 537 c 0,25,26
 101 537 101 537 97 540 c 0,27,28
 87 546 87 546 87 557 c 0,29,30
 87 563 87 563 92 570 c 0,31,32
 146 640 146 640 215 675 c 128,-1,33
 284 710 284 710 376 710 c 0,34,0
 465 710 465 710 540 661.5 c 128,-1,1
511.5 69 m 128,-1,36
 575 108 575 108 615 176 c 128,-1,37
 655 244 655 244 659 327 c 1,38,-1
 91 327 l 1,39,40
 95 246 95 246 135 178 c 128,-1,41
 175 110 175 110 239 70 c 128,-1,42
 303 30 303 30 376 30 c 0,43,35
 448 30 448 30 511.5 69 c 128,-1,36
EndSplineSet
EndChar

StartChar: T
Encoding: 84 84 190
Width: 596
GlyphClass: 2
Flags: W
AnchorPoint: "Anchor-8" 0 0 basechar 0
AnchorPoint: "Anchor-7" 298 350 basechar 0
AnchorPoint: "Anchor-6" 298 700 basechar 0
AnchorPoint: "Anchor-5" 0 0 basechar 0
AnchorPoint: "Anchor-4" 298 0 basechar 0
LayerCount: 2
Fore
SplineSet
555 694.5 m 128,-1,1
 561 689 561 689 561 681 c 0,2,3
 561 672 561 672 555.5 667 c 128,-1,4
 550 662 550 662 541 662 c 2,5,-1
 318 662 l 1,6,-1
 318 20 l 2,7,8
 318 12 318 12 312 6 c 128,-1,9
 306 0 306 0 298 0 c 0,10,11
 289 0 289 0 283.5 6 c 128,-1,12
 278 12 278 12 278 20 c 2,13,-1
 278 662 l 1,14,-1
 55 662 l 2,15,16
 47 662 47 662 41 667.5 c 128,-1,17
 35 673 35 673 35 681 c 256,18,19
 35 689 35 689 41 694.5 c 128,-1,20
 47 700 47 700 55 700 c 2,21,-1
 541 700 l 2,22,0
 549 700 549 700 555 694.5 c 128,-1,1
EndSplineSet
EndChar

StartChar: Tbar
Encoding: 358 358 191
Width: 596
GlyphClass: 2
Flags: W
AnchorPoint: "Anchor-8" 0 0 basechar 0
AnchorPoint: "Anchor-7" 298 350 basechar 0
AnchorPoint: "Anchor-6" 298 700 basechar 0
AnchorPoint: "Anchor-5" 0 0 basechar 0
AnchorPoint: "Anchor-4" 298 0 basechar 0
LayerCount: 2
Fore
SplineSet
555 694.5 m 128,-1,1
 561 689 561 689 561 681 c 0,2,3
 561 672 561 672 555.5 667 c 128,-1,4
 550 662 550 662 541 662 c 2,5,-1
 318 662 l 1,6,-1
 318 342 l 1,7,-1
 379 342 l 2,8,9
 399 342 399 342 399 322 c 0,10,11
 399 304 399 304 379 304 c 2,12,-1
 318 304 l 1,13,-1
 318 20 l 2,14,15
 318 12 318 12 312 6 c 128,-1,16
 306 0 306 0 298 0 c 0,17,18
 289 0 289 0 283.5 6 c 128,-1,19
 278 12 278 12 278 20 c 2,20,-1
 278 304 l 1,21,-1
 219 304 l 2,22,23
 199 304 199 304 199 323 c 256,24,25
 199 342 199 342 219 342 c 2,26,-1
 278 342 l 1,27,-1
 278 662 l 1,28,-1
 55 662 l 2,29,30
 47 662 47 662 41 667.5 c 128,-1,31
 35 673 35 673 35 681 c 256,32,33
 35 689 35 689 41 694.5 c 128,-1,34
 47 700 47 700 55 700 c 2,35,-1
 541 700 l 2,36,0
 549 700 549 700 555 694.5 c 128,-1,1
EndSplineSet
EndChar

StartChar: uni0162
Encoding: 354 354 193
Width: 596
GlyphClass: 2
Flags: W
AnchorPoint: "Anchor-8" 0 0 basechar 0
AnchorPoint: "Anchor-7" 298 350 basechar 0
AnchorPoint: "Anchor-6" 0 0 basechar 0
AnchorPoint: "Anchor-5" 0 0 basechar 0
AnchorPoint: "Anchor-4" 293 -141 basechar 0
LayerCount: 2
Fore
SplineSet
555 694.5 m 128,-1,1
 561 689 561 689 561 681 c 0,2,3
 561 672 561 672 555.5 667 c 128,-1,4
 550 662 550 662 541 662 c 2,5,-1
 318 662 l 1,6,-1
 318 20 l 2,7,8
 318 15 318 15 315 10 c 1,9,-1
 316 10 l 1,10,-1
 249 -126 l 2,11,12
 242 -141 242 -141 228 -141 c 0,13,14
 218 -141 218 -141 205.5 -132.5 c 128,-1,15
 193 -124 193 -124 193 -114 c 0,16,17
 193 -105 193 -105 198 -100 c 2,18,-1
 284 5 l 1,19,20
 278 11 278 11 278 20 c 2,21,-1
 278 662 l 1,22,-1
 55 662 l 2,23,24
 47 662 47 662 41 667.5 c 128,-1,25
 35 673 35 673 35 681 c 256,26,27
 35 689 35 689 41 694.5 c 128,-1,28
 47 700 47 700 55 700 c 2,29,-1
 541 700 l 2,30,0
 549 700 549 700 555 694.5 c 128,-1,1
EndSplineSet
Substitution2: "'locl' Localized Forms in Latin lookup 2 subtable" uni021A
Substitution2: "'locl' Localized Forms in Latin lookup 1 subtable" uni021A
EndChar

StartChar: U
Encoding: 85 85 197
Width: 715
GlyphClass: 2
Flags: W
AnchorPoint: "Anchor-8" 521 697 basechar 0
AnchorPoint: "Anchor-7" 0 0 basechar 0
AnchorPoint: "Anchor-6" 358 700 basechar 0
AnchorPoint: "Anchor-5" 643 10 basechar 0
AnchorPoint: "Anchor-4" 358 0 basechar 0
LayerCount: 2
Fore
SplineSet
609.5 694 m 128,-1,1
 615 688 615 688 615 680 c 2,2,-1
 615 248 l 2,3,4
 615 178 615 178 580 119 c 128,-1,5
 545 60 545 60 486 25 c 128,-1,6
 427 -10 427 -10 358 -10 c 0,7,8
 288 -10 288 -10 229 25 c 128,-1,9
 170 60 170 60 135 119 c 128,-1,10
 100 178 100 178 100 248 c 2,11,-1
 100 680 l 2,12,13
 100 689 100 689 106 694.5 c 128,-1,14
 112 700 112 700 121 700 c 256,15,16
 130 700 130 700 136 694 c 128,-1,17
 142 688 142 688 142 680 c 2,18,-1
 142 248 l 2,19,20
 142 189 142 189 171 139 c 128,-1,21
 200 89 200 89 249.5 59.5 c 128,-1,22
 299 30 299 30 358 30 c 256,23,24
 417 30 417 30 466.5 59.5 c 128,-1,25
 516 89 516 89 545.5 139 c 128,-1,26
 575 189 575 189 575 248 c 2,27,-1
 575 680 l 2,28,29
 575 688 575 688 580.5 694 c 128,-1,30
 586 700 586 700 595 700 c 256,31,0
 604 700 604 700 609.5 694 c 128,-1,1
EndSplineSet
EndChar

StartChar: Uhorn
Encoding: 431 431 207
Width: 715
GlyphClass: 2
Flags: W
AnchorPoint: "Anchor-8" 521 697 basechar 0
AnchorPoint: "Anchor-7" 0 0 basechar 0
AnchorPoint: "Anchor-6" 358 700 basechar 0
AnchorPoint: "Anchor-5" 643 10 basechar 0
AnchorPoint: "Anchor-4" 358 0 basechar 0
LayerCount: 2
Fore
SplineSet
697.5 699 m 128,-1,1
 667 668 667 668 615 663 c 1,2,-1
 615 248 l 2,3,4
 615 178 615 178 580 119 c 128,-1,5
 545 60 545 60 486 25 c 128,-1,6
 427 -10 427 -10 358 -10 c 0,7,8
 288 -10 288 -10 229 25 c 128,-1,9
 170 60 170 60 135 119 c 128,-1,10
 100 178 100 178 100 248 c 2,11,-1
 100 680 l 2,12,13
 100 689 100 689 106 694.5 c 128,-1,14
 112 700 112 700 121 700 c 256,15,16
 130 700 130 700 136 694 c 128,-1,17
 142 688 142 688 142 680 c 2,18,-1
 142 248 l 2,19,20
 142 189 142 189 171 139 c 128,-1,21
 200 89 200 89 249.5 59.5 c 128,-1,22
 299 30 299 30 358 30 c 256,23,24
 417 30 417 30 466.5 59.5 c 128,-1,25
 516 89 516 89 545.5 139 c 128,-1,26
 575 189 575 189 575 248 c 2,27,-1
 575 680 l 2,28,29
 575 688 575 688 580.5 694 c 128,-1,30
 586 700 586 700 595 700 c 0,31,32
 646 700 646 700 669 719 c 128,-1,33
 692 738 692 738 692 782 c 0,34,35
 692 795 692 795 696.5 803.5 c 128,-1,36
 701 812 701 812 710 812 c 0,37,38
 728 812 728 812 728 782 c 0,39,0
 728 730 728 730 697.5 699 c 128,-1,1
EndSplineSet
EndChar

StartChar: Uogonek
Encoding: 370 370 217
Width: 715
GlyphClass: 2
Flags: W
AnchorPoint: "Anchor-8" 695 700 basechar 0
AnchorPoint: "Anchor-7" 0 0 basechar 0
AnchorPoint: "Anchor-6" 358 700 basechar 0
AnchorPoint: "Anchor-5" 643 10 basechar 0
AnchorPoint: "Anchor-4" 358 0 basechar 0
LayerCount: 2
Fore
SplineSet
609.5 694 m 128,-1,1
 615 688 615 688 615 680 c 2,2,-1
 615 248 l 2,3,4
 615 174 615 174 578 111.5 c 128,-1,5
 541 49 541 49 479 21 c 0,6,7
 475 19 475 19 446 6.5 c 128,-1,8
 417 -6 417 -6 398 -30 c 128,-1,9
 379 -54 379 -54 379 -85 c 0,10,11
 379 -114 379 -114 395.5 -131 c 128,-1,12
 412 -148 412 -148 434 -148 c 0,13,14
 459 -148 459 -148 465 -138 c 0,15,16
 470 -130 470 -130 474.5 -126 c 128,-1,17
 479 -122 479 -122 486 -122 c 256,18,19
 493 -122 493 -122 497 -126.5 c 128,-1,20
 501 -131 501 -131 501 -136 c 0,21,22
 501 -156 501 -156 480.5 -170.5 c 128,-1,23
 460 -185 460 -185 429 -185 c 0,24,25
 394 -185 394 -185 367.5 -159 c 128,-1,26
 341 -133 341 -133 341 -93 c 0,27,28
 341 -42 341 -42 381 -9 c 1,29,30
 373 -10 373 -10 358 -10 c 0,31,32
 288 -10 288 -10 229 25 c 128,-1,33
 170 60 170 60 135 119 c 128,-1,34
 100 178 100 178 100 248 c 2,35,-1
 100 680 l 2,36,37
 100 689 100 689 106 694.5 c 128,-1,38
 112 700 112 700 121 700 c 256,39,40
 130 700 130 700 136 694 c 128,-1,41
 142 688 142 688 142 680 c 2,42,-1
 142 248 l 2,43,44
 142 189 142 189 171 139 c 128,-1,45
 200 89 200 89 249.5 59.5 c 128,-1,46
 299 30 299 30 358 30 c 0,47,48
 418 30 418 30 468 59.5 c 128,-1,49
 518 89 518 89 546.5 139 c 128,-1,50
 575 189 575 189 575 248 c 2,51,-1
 575 680 l 2,52,53
 575 688 575 688 580.5 694 c 128,-1,54
 586 700 586 700 595 700 c 256,55,0
 604 700 604 700 609.5 694 c 128,-1,1
EndSplineSet
EndChar

StartChar: V
Encoding: 86 86 221
Width: 660
GlyphClass: 2
Flags: W
AnchorPoint: "Anchor-8" 0 0 basechar 0
AnchorPoint: "Anchor-7" 0 0 basechar 0
AnchorPoint: "Anchor-6" 330 700 basechar 0
AnchorPoint: "Anchor-5" 0 0 basechar 0
AnchorPoint: "Anchor-4" 330 0 basechar 0
LayerCount: 2
Fore
SplineSet
619.5 695 m 128,-1,1
 625 690 625 690 625 682 c 0,2,3
 625 678 625 678 623 672 c 2,4,-1
 349 13 l 2,5,6
 343 0 343 0 330 0 c 0,7,8
 324 0 324 0 318.5 3.5 c 128,-1,9
 313 7 313 7 311 13 c 2,10,-1
 39 669 l 2,11,12
 36 675 36 675 36 681 c 0,13,14
 36 689 36 689 41.5 694.5 c 128,-1,15
 47 700 47 700 55 700 c 0,16,17
 70 700 70 700 77 684 c 2,18,-1
 331 73 l 1,19,-1
 586 687 l 2,20,21
 593 700 593 700 605 700 c 0,22,0
 614 700 614 700 619.5 695 c 128,-1,1
EndSplineSet
EndChar

StartChar: W
Encoding: 87 87 222
Width: 974
GlyphClass: 2
Flags: W
AnchorPoint: "Anchor-8" 0 0 basechar 0
AnchorPoint: "Anchor-7" 0 0 basechar 0
AnchorPoint: "Anchor-6" 487 700 basechar 0
AnchorPoint: "Anchor-5" 0 0 basechar 0
AnchorPoint: "Anchor-4" 487 0 basechar 0
LayerCount: 2
Fore
SplineSet
933 697 m 128,-1,1
 939 692 939 692 939 683 c 2,2,-1
 937 673 l 1,3,-1
 708 13 l 2,4,5
 706 7 706 7 700.5 3.5 c 128,-1,6
 695 0 695 0 690 0 c 0,7,8
 674 0 674 0 670 12 c 2,9,-1
 487 474 l 1,10,-1
 304 12 l 2,11,12
 299 0 299 0 283 0 c 0,13,14
 277 0 277 0 272 3.5 c 128,-1,15
 267 7 267 7 266 13 c 2,16,-1
 37 673 l 1,17,-1
 35 682 l 2,18,19
 35 691 35 691 42 696.5 c 128,-1,20
 49 702 49 702 57 702 c 0,21,22
 63 702 63 702 68.5 698.5 c 128,-1,23
 74 695 74 695 76 689 c 2,24,-1
 288 77 l 1,25,-1
 468 532 l 2,26,27
 473 545 473 545 487 545 c 0,28,29
 493 545 493 545 498.5 541.5 c 128,-1,30
 504 538 504 538 506 532 c 2,31,-1
 687 76 l 1,32,-1
 898 689 l 2,33,34
 903 702 903 702 918 702 c 0,35,0
 927 702 927 702 933 697 c 128,-1,1
EndSplineSet
EndChar

StartChar: X
Encoding: 88 88 227
Width: 589
GlyphClass: 2
Flags: W
AnchorPoint: "Anchor-8" 0 0 basechar 0
AnchorPoint: "Anchor-7" 0 0 basechar 0
AnchorPoint: "Anchor-6" 295 700 basechar 0
AnchorPoint: "Anchor-5" 0 0 basechar 0
AnchorPoint: "Anchor-4" 295 0 basechar 0
LayerCount: 2
Fore
SplineSet
554 29 m 2,0,1
 559 22 559 22 559 17 c 0,2,3
 559 8 559 8 553 2.5 c 128,-1,4
 547 -3 547 -3 538 -3 c 0,5,6
 527 -3 527 -3 522 5 c 2,7,-1
 293 317 l 1,8,-1
 65 5 l 2,9,10
 60 -3 60 -3 50 -3 c 0,11,12
 41 -3 41 -3 36 2.5 c 128,-1,13
 31 8 31 8 31 14 c 0,14,15
 31 19 31 19 36 27 c 2,16,-1
 271 348 l 1,17,-1
 34 671 l 2,18,19
 30 676 30 676 30 683 c 0,20,21
 30 692 30 692 36 697.5 c 128,-1,22
 42 703 42 703 50 703 c 0,23,24
 62 703 62 703 67 695 c 2,25,-1
 296 382 l 1,26,-1
 524 696 l 2,27,28
 530 704 530 704 539 704 c 256,29,30
 548 704 548 704 553.5 699.5 c 128,-1,31
 559 695 559 695 559 688 c 256,32,33
 559 681 559 681 554 674 c 2,34,-1
 319 350 l 1,35,-1
 554 29 l 2,0,1
EndSplineSet
EndChar

StartChar: Y
Encoding: 89 89 228
Width: 547
GlyphClass: 2
Flags: W
AnchorPoint: "Anchor-8" 0 0 basechar 0
AnchorPoint: "Anchor-7" 0 0 basechar 0
AnchorPoint: "Anchor-6" 274 700 basechar 0
AnchorPoint: "Anchor-5" 0 0 basechar 0
AnchorPoint: "Anchor-4" 274 0 basechar 0
LayerCount: 2
Fore
SplineSet
523 672 m 2,1,-1
 295 362 l 1,2,-1
 295 20 l 2,3,4
 295 12 295 12 289 6 c 128,-1,5
 283 0 283 0 274 0 c 256,6,7
 265 0 265 0 259 6 c 128,-1,8
 253 12 253 12 253 20 c 2,9,-1
 253 358 l 1,10,-1
 24 672 l 2,11,12
 20 677 20 677 20 685 c 0,13,14
 20 692 20 692 26.5 698 c 128,-1,15
 33 704 33 704 41 704 c 0,16,17
 52 704 52 704 58 695 c 2,18,-1
 274 400 l 1,19,-1
 490 695 l 2,20,21
 496 704 496 704 507 704 c 0,22,23
 516 704 516 704 521.5 697.5 c 128,-1,24
 527 691 527 691 527 685 c 0,25,0
 527 680 527 680 523 672 c 2,1,-1
EndSplineSet
EndChar

StartChar: Z
Encoding: 90 90 238
Width: 643
GlyphClass: 2
Flags: W
AnchorPoint: "Anchor-8" 0 0 basechar 0
AnchorPoint: "Anchor-7" 0 0 basechar 0
AnchorPoint: "Anchor-6" 322 700 basechar 0
AnchorPoint: "Anchor-5" 0 0 basechar 0
AnchorPoint: "Anchor-4" 322 0 basechar 0
LayerCount: 2
Fore
SplineSet
586 32 m 128,-1,1
 592 26 592 26 592 19 c 0,2,3
 592 11 592 11 586 5.5 c 128,-1,4
 580 0 580 0 572 0 c 2,5,-1
 80 0 l 2,6,7
 71 0 71 0 65.5 6.5 c 128,-1,8
 60 13 60 13 60 21 c 0,9,10
 60 28 60 28 64 33 c 2,11,-1
 536 662 l 1,12,-1
 100 662 l 2,13,14
 92 662 92 662 86 667.5 c 128,-1,15
 80 673 80 673 80 681 c 256,16,17
 80 689 80 689 86 694.5 c 128,-1,18
 92 700 92 700 100 700 c 2,19,-1
 570 700 l 2,20,21
 582 700 582 700 587.5 694 c 128,-1,22
 593 688 593 688 593 680 c 0,23,24
 593 673 593 673 589 668 c 2,25,-1
 118 38 l 1,26,-1
 572 38 l 2,27,0
 580 38 580 38 586 32 c 128,-1,1
EndSplineSet
EndChar

StartChar: a
Encoding: 97 97 243
Width: 595
GlyphClass: 2
Flags: W
AnchorPoint: "Anchor-8" 0 0 basechar 0
AnchorPoint: "Anchor-7" 0 0 basechar 0
AnchorPoint: "Anchor-6" 288 499 basechar 0
AnchorPoint: "Anchor-5" 535 10 basechar 0
AnchorPoint: "Anchor-4" 278 0 basechar 0
LayerCount: 2
Fore
SplineSet
506.5 493 m 128,-1,1
 512 487 512 487 512 479 c 2,2,-1
 512 20 l 2,3,4
 512 12 512 12 506 6 c 128,-1,5
 500 0 500 0 492 0 c 0,6,7
 483 0 483 0 477.5 6 c 128,-1,8
 472 12 472 12 472 20 c 2,9,-1
 472 110 l 1,10,11
 447 59 447 59 395 24.5 c 128,-1,12
 343 -10 343 -10 280 -10 c 0,13,14
 214 -10 214 -10 161 24.5 c 128,-1,15
 108 59 108 59 78 119.5 c 128,-1,16
 48 180 48 180 48 255 c 0,17,18
 48 329 48 329 78.5 388.5 c 128,-1,19
 109 448 109 448 162 481.5 c 128,-1,20
 215 515 215 515 280 515 c 256,21,22
 345 515 345 515 397 481 c 128,-1,23
 449 447 449 447 472 390 c 1,24,-1
 472 479 l 2,25,26
 472 487 472 487 477.5 493 c 128,-1,27
 483 499 483 499 492 499 c 256,28,0
 501 499 501 499 506.5 493 c 128,-1,1
381.5 57.5 m 128,-1,30
 426 87 426 87 451 139 c 128,-1,31
 476 191 476 191 476 255 c 0,32,33
 476 316 476 316 451 367 c 128,-1,34
 426 418 426 418 381.5 447.5 c 128,-1,35
 337 477 337 477 282 477 c 256,36,37
 227 477 227 477 182.5 448.5 c 128,-1,38
 138 420 138 420 113 369.5 c 128,-1,39
 88 319 88 319 88 255 c 256,40,41
 88 191 88 191 113 139 c 128,-1,42
 138 87 138 87 182 57.5 c 128,-1,43
 226 28 226 28 282 28 c 0,44,29
 337 28 337 28 381.5 57.5 c 128,-1,30
EndSplineSet
Substitution2: "Single Substitution lookup 20 subtable" ordfeminine
Substitution2: "'ss01' Style Set 1 lookup 17 subtable" a.ss01
Substitution2: "'salt' Stylistic Alternatives lookup 16 subtable" a.ss01
EndChar

StartChar: aogonek
Encoding: 261 261 265
Width: 593
GlyphClass: 2
Flags: W
AnchorPoint: "Anchor-8" 0 0 basechar 0
AnchorPoint: "Anchor-7" 0 0 basechar 0
AnchorPoint: "Anchor-6" 298 499 basechar 0
AnchorPoint: "Anchor-5" 535 10 basechar 0
AnchorPoint: "Anchor-4" 298 0 basechar 0
LayerCount: 2
Fore
SplineSet
544 -126 m 128,-1,1
 548 -130 548 -130 548 -136 c 0,2,3
 548 -156 548 -156 527.5 -170.5 c 128,-1,4
 507 -185 507 -185 476 -185 c 0,5,6
 441 -185 441 -185 414.5 -159 c 128,-1,7
 388 -133 388 -133 388 -93 c 0,8,9
 388 -51 388 -51 412.5 -23.5 c 128,-1,10
 437 4 437 4 472 16 c 1,11,-1
 472 110 l 1,12,13
 447 59 447 59 395 24.5 c 128,-1,14
 343 -10 343 -10 280 -10 c 0,15,16
 214 -10 214 -10 161 24.5 c 128,-1,17
 108 59 108 59 78 119.5 c 128,-1,18
 48 180 48 180 48 255 c 0,19,20
 48 329 48 329 78.5 388.5 c 128,-1,21
 109 448 109 448 162 481.5 c 128,-1,22
 215 515 215 515 280 515 c 256,23,24
 345 515 345 515 397 481 c 128,-1,25
 449 447 449 447 472 390 c 1,26,-1
 472 479 l 2,27,28
 472 487 472 487 477.5 493 c 128,-1,29
 483 499 483 499 492 499 c 256,30,31
 501 499 501 499 506.5 493 c 128,-1,32
 512 487 512 487 512 479 c 2,33,-1
 512 20 l 2,34,35
 512 2 512 2 484 -8 c 0,36,37
 460 -16 460 -16 443 -38 c 128,-1,38
 426 -60 426 -60 426 -85 c 0,39,40
 426 -114 426 -114 442.5 -131 c 128,-1,41
 459 -148 459 -148 481 -148 c 0,42,43
 493 -148 493 -148 500.5 -145.5 c 128,-1,44
 508 -143 508 -143 513 -136 c 0,45,46
 517 -131 517 -131 522 -126.5 c 128,-1,47
 527 -122 527 -122 534 -122 c 0,48,0
 540 -122 540 -122 544 -126 c 128,-1,1
381.5 57.5 m 128,-1,50
 426 87 426 87 451 139 c 128,-1,51
 476 191 476 191 476 255 c 0,52,53
 476 316 476 316 451 367 c 128,-1,54
 426 418 426 418 381.5 447.5 c 128,-1,55
 337 477 337 477 282 477 c 256,56,57
 227 477 227 477 182.5 448.5 c 128,-1,58
 138 420 138 420 113 369.5 c 128,-1,59
 88 319 88 319 88 255 c 256,60,61
 88 191 88 191 113 139 c 128,-1,62
 138 87 138 87 182 57.5 c 128,-1,63
 226 28 226 28 282 28 c 0,64,49
 337 28 337 28 381.5 57.5 c 128,-1,50
EndSplineSet
Substitution2: "'ss01' Style Set 1 lookup 17 subtable" aogonek.ss01
Substitution2: "'salt' Stylistic Alternatives lookup 16 subtable" aogonek.ss01
EndChar

StartChar: ae
Encoding: 230 230 269
Width: 887
GlyphClass: 2
Flags: W
AnchorPoint: "Anchor-8" 0 0 basechar 0
AnchorPoint: "Anchor-7" 0 0 basechar 0
AnchorPoint: "Anchor-6" 457 515 basechar 0
AnchorPoint: "Anchor-5" 838 10 basechar 0
AnchorPoint: "Anchor-4" 406 0 basechar 0
LayerCount: 2
Fore
SplineSet
829 114.5 m 128,-1,1
 834 109 834 109 834 102 c 256,2,3
 834 95 834 95 830 90 c 0,4,5
 797 46 797 46 748 18 c 128,-1,6
 699 -10 699 -10 643 -10 c 0,7,8
 568 -10 568 -10 509.5 23 c 128,-1,9
 451 56 451 56 419 115 c 1,10,11
 330 -10 330 -10 198 -10 c 0,12,13
 161 -10 161 -10 126.5 7 c 128,-1,14
 92 24 92 24 70 57 c 128,-1,15
 48 90 48 90 48 136 c 0,16,17
 48 215 48 215 118.5 259.5 c 128,-1,18
 189 304 189 304 320 304 c 2,19,-1
 390 304 l 1,20,-1
 390 370 l 2,21,22
 390 430 390 430 354.5 453.5 c 128,-1,23
 319 477 319 477 266 477 c 0,24,25
 218 477 218 477 169 448.5 c 128,-1,26
 120 420 120 420 96 384 c 0,27,28
 89 375 89 375 79 375 c 0,29,30
 72 375 72 375 67 380.5 c 128,-1,31
 62 386 62 386 62 393 c 256,32,33
 62 400 62 400 66 405 c 0,34,35
 100 449 100 449 155 482 c 128,-1,36
 210 515 210 515 266 515 c 0,37,38
 333 515 333 515 376.5 488.5 c 128,-1,39
 420 462 420 462 425 403 c 1,40,41
 456 456 456 456 506.5 485.5 c 128,-1,42
 557 515 557 515 613 515 c 0,43,44
 672 515 672 515 722.5 489.5 c 128,-1,45
 773 464 773 464 805 413 c 128,-1,46
 837 362 837 362 839 287 c 0,47,48
 839 279 839 279 833 272.5 c 128,-1,49
 827 266 827 266 819 266 c 2,50,-1
 426 266 l 1,51,-1
 426 253 l 2,52,53
 426 191 426 191 451 139.5 c 128,-1,54
 476 88 476 88 525 58 c 128,-1,55
 574 28 574 28 643 28 c 0,56,57
 691 28 691 28 733.5 51.5 c 128,-1,58
 776 75 776 75 800 111 c 0,59,60
 808 120 808 120 817 120 c 0,61,0
 824 120 824 120 829 114.5 c 128,-1,1
537.5 455.5 m 128,-1,63
 499 436 499 436 469.5 397.5 c 128,-1,64
 440 359 440 359 430 304 c 1,65,-1
 798 304 l 1,66,-1
 798 313 l 1,67,68
 793 364 793 364 765.5 400.5 c 128,-1,69
 738 437 738 437 697.5 456 c 128,-1,70
 657 475 657 475 613 475 c 0,71,62
 576 475 576 475 537.5 455.5 c 128,-1,63
283 48 m 128,-1,73
 324 68 324 68 356 97 c 128,-1,74
 388 126 388 126 402 153 c 1,75,76
 387 197 387 197 387 250 c 2,77,-1
 387 266 l 1,78,-1
 322 266 l 2,79,80
 210 266 210 266 149 232.5 c 128,-1,81
 88 199 88 199 88 140 c 0,82,83
 88 104 88 104 105 78.5 c 128,-1,84
 122 53 122 53 148.5 40.5 c 128,-1,85
 175 28 175 28 202 28 c 0,86,72
 242 28 242 28 283 48 c 128,-1,73
EndSplineSet
EndChar

StartChar: b
Encoding: 98 98 271
Width: 595
GlyphClass: 2
Flags: W
AnchorPoint: "Anchor-8" 0 0 basechar 0
AnchorPoint: "Anchor-7" 0 0 basechar 0
AnchorPoint: "Anchor-6" 298 499 basechar 0
AnchorPoint: "Anchor-5" 0 0 basechar 0
AnchorPoint: "Anchor-4" 298 0 basechar 0
LayerCount: 2
Fore
SplineSet
434 481.5 m 128,-1,1
 487 448 487 448 517 388.5 c 128,-1,2
 547 329 547 329 547 255 c 256,3,4
 547 181 547 181 516.5 120.5 c 128,-1,5
 486 60 486 60 433 25 c 128,-1,6
 380 -10 380 -10 315 -10 c 0,7,8
 256 -10 256 -10 206 21.5 c 128,-1,9
 156 53 156 53 123 109 c 1,10,-1
 123 20 l 2,11,12
 123 12 123 12 117.5 6 c 128,-1,13
 112 0 112 0 103 0 c 0,14,15
 95 0 95 0 89 6 c 128,-1,16
 83 12 83 12 83 20 c 2,17,-1
 83 719 l 2,18,19
 83 727 83 727 88.5 733 c 128,-1,20
 94 739 94 739 103 739 c 256,21,22
 112 739 112 739 117.5 733 c 128,-1,23
 123 727 123 727 123 719 c 2,24,-1
 123 393 l 1,25,26
 153 452 153 452 203.5 483.5 c 128,-1,27
 254 515 254 515 315 515 c 0,28,0
 381 515 381 515 434 481.5 c 128,-1,1
412 58 m 128,-1,30
 456 88 456 88 481.5 139.5 c 128,-1,31
 507 191 507 191 507 255 c 256,32,33
 507 319 507 319 481.5 369.5 c 128,-1,34
 456 420 456 420 412 448.5 c 128,-1,35
 368 477 368 477 313 477 c 0,36,37
 257 477 257 477 212.5 448.5 c 128,-1,38
 168 420 168 420 143.5 369.5 c 128,-1,39
 119 319 119 319 119 255 c 256,40,41
 119 191 119 191 144 139 c 128,-1,42
 169 87 169 87 213 57.5 c 128,-1,43
 257 28 257 28 313 28 c 0,44,29
 368 28 368 28 412 58 c 128,-1,30
EndSplineSet
EndChar

StartChar: c
Encoding: 99 99 272
Width: 513
GlyphClass: 2
Flags: W
AnchorPoint: "Anchor-8" 0 0 basechar 0
AnchorPoint: "Anchor-7" 0 0 basechar 0
AnchorPoint: "Anchor-6" 297 499 basechar 0
AnchorPoint: "Anchor-5" 0 0 basechar 0
AnchorPoint: "Anchor-4" 257 0 basechar 0
LayerCount: 2
Fore
SplineSet
383.5 505 m 128,-1,1
 424 495 424 495 448.5 478.5 c 128,-1,2
 473 462 473 462 473 444 c 0,3,4
 473 436 473 436 467.5 430 c 128,-1,5
 462 424 462 424 454 424 c 0,6,7
 445 424 445 424 440.5 427 c 128,-1,8
 436 430 436 430 428 438 c 0,9,10
 415 453 415 453 401 460 c 0,11,12
 365 477 365 477 299 477 c 0,13,14
 242 477 242 477 193.5 447 c 128,-1,15
 145 417 145 417 116.5 365.5 c 128,-1,16
 88 314 88 314 88 253 c 0,17,18
 88 189 88 189 114.5 137.5 c 128,-1,19
 141 86 141 86 189.5 57 c 128,-1,20
 238 28 238 28 299 28 c 0,21,22
 339 28 339 28 362 35 c 128,-1,23
 385 42 385 42 408 55 c 0,24,25
 424 65 424 65 436 77 c 0,26,27
 441 82 441 82 446 85.5 c 128,-1,28
 451 89 451 89 456 89 c 0,29,30
 464 89 464 89 468.5 84 c 128,-1,31
 473 79 473 79 473 71 c 0,32,33
 473 57 473 57 450 37.5 c 128,-1,34
 427 18 427 18 386.5 4 c 128,-1,35
 346 -10 346 -10 296 -10 c 0,36,37
 224 -10 224 -10 167.5 24 c 128,-1,38
 111 58 111 58 79.5 118 c 128,-1,39
 48 178 48 178 48 253 c 0,40,41
 48 323 48 323 79.5 383 c 128,-1,42
 111 443 111 443 168.5 479 c 128,-1,43
 226 515 226 515 300 515 c 0,44,0
 343 515 343 515 383.5 505 c 128,-1,1
EndSplineSet
EndChar

StartChar: ccedilla
Encoding: 231 231 275
Width: 513
GlyphClass: 2
Flags: W
AnchorPoint: "Anchor-8" 0 0 basechar 0
AnchorPoint: "Anchor-7" 0 0 basechar 0
AnchorPoint: "Anchor-6" 0 0 basechar 0
AnchorPoint: "Anchor-5" 0 0 basechar 0
AnchorPoint: "Anchor-4" 257 -141 basechar 0
LayerCount: 2
Fore
SplineSet
468.5 84 m 128,-1,1
 473 79 473 79 473 71 c 0,2,3
 473 58 473 58 452 39.5 c 128,-1,4
 431 21 431 21 393.5 6.5 c 128,-1,5
 356 -8 356 -8 309 -10 c 1,6,-1
 252 -126 l 2,7,8
 245 -141 245 -141 231 -141 c 0,9,10
 222 -141 222 -141 209 -133 c 128,-1,11
 196 -125 196 -125 196 -114 c 0,12,13
 196 -105 196 -105 201 -100 c 2,14,-1
 275 -9 l 1,15,16
 208 -4 208 -4 156.5 31 c 128,-1,17
 105 66 105 66 76.5 124 c 128,-1,18
 48 182 48 182 48 253 c 0,19,20
 48 323 48 323 79.5 383 c 128,-1,21
 111 443 111 443 168.5 479 c 128,-1,22
 226 515 226 515 300 515 c 0,23,24
 343 515 343 515 383.5 505 c 128,-1,25
 424 495 424 495 448.5 478.5 c 128,-1,26
 473 462 473 462 473 444 c 0,27,28
 473 436 473 436 467.5 430 c 128,-1,29
 462 424 462 424 454 424 c 0,30,31
 445 424 445 424 440.5 427 c 128,-1,32
 436 430 436 430 428 438 c 0,33,34
 415 453 415 453 401 460 c 0,35,36
 365 477 365 477 299 477 c 0,37,38
 242 477 242 477 193.5 447 c 128,-1,39
 145 417 145 417 116.5 365.5 c 128,-1,40
 88 314 88 314 88 253 c 0,41,42
 88 189 88 189 114.5 137.5 c 128,-1,43
 141 86 141 86 189.5 57 c 128,-1,44
 238 28 238 28 299 28 c 0,45,46
 339 28 339 28 362 35 c 128,-1,47
 385 42 385 42 408 55 c 0,48,49
 424 65 424 65 436 77 c 0,50,51
 441 82 441 82 446 85.5 c 128,-1,52
 451 89 451 89 456 89 c 0,53,0
 464 89 464 89 468.5 84 c 128,-1,1
EndSplineSet
EndChar

StartChar: uni1E09
Encoding: 7689 7689 276
Width: 513
GlyphClass: 2
Flags: W
AnchorPoint: "Anchor-8" 0 0 basechar 0
AnchorPoint: "Anchor-7" 0 0 basechar 0
AnchorPoint: "Anchor-6" 0 0 basechar 0
AnchorPoint: "Anchor-5" 0 0 basechar 0
AnchorPoint: "Anchor-4" 257 -141 basechar 0
LayerCount: 2
Fore
SplineSet
271 549.5 m 128,-1,1
 268 553 268 553 268 558 c 256,2,3
 268 563 268 563 273 571 c 2,4,-1
 335 664 l 2,5,6
 344 680 344 680 361 680 c 0,7,8
 372 680 372 680 379.5 673.5 c 128,-1,9
 387 667 387 667 387 655 c 0,10,11
 387 647 387 647 380 638 c 2,12,-1
 305 561 l 2,13,14
 290 546 290 546 279 546 c 0,15,0
 274 546 274 546 271 549.5 c 128,-1,1
468.5 84 m 128,-1,17
 473 79 473 79 473 71 c 0,18,19
 473 58 473 58 452 39.5 c 128,-1,20
 431 21 431 21 393.5 6.5 c 128,-1,21
 356 -8 356 -8 309 -10 c 1,22,-1
 252 -126 l 2,23,24
 245 -141 245 -141 231 -141 c 0,25,26
 222 -141 222 -141 209 -133 c 128,-1,27
 196 -125 196 -125 196 -114 c 0,28,29
 196 -105 196 -105 201 -100 c 2,30,-1
 275 -9 l 1,31,32
 208 -4 208 -4 156.5 31 c 128,-1,33
 105 66 105 66 76.5 124 c 128,-1,34
 48 182 48 182 48 253 c 0,35,36
 48 323 48 323 79.5 383 c 128,-1,37
 111 443 111 443 168.5 479 c 128,-1,38
 226 515 226 515 300 515 c 0,39,40
 343 515 343 515 383.5 505 c 128,-1,41
 424 495 424 495 448.5 478.5 c 128,-1,42
 473 462 473 462 473 444 c 0,43,44
 473 436 473 436 467.5 430 c 128,-1,45
 462 424 462 424 454 424 c 0,46,47
 445 424 445 424 440.5 427 c 128,-1,48
 436 430 436 430 428 438 c 0,49,50
 415 453 415 453 401 460 c 0,51,52
 365 477 365 477 299 477 c 0,53,54
 242 477 242 477 193.5 447 c 128,-1,55
 145 417 145 417 116.5 365.5 c 128,-1,56
 88 314 88 314 88 253 c 0,57,58
 88 189 88 189 114.5 137.5 c 128,-1,59
 141 86 141 86 189.5 57 c 128,-1,60
 238 28 238 28 299 28 c 0,61,62
 339 28 339 28 362 35 c 128,-1,63
 385 42 385 42 408 55 c 0,64,65
 424 65 424 65 436 77 c 0,66,67
 441 82 441 82 446 85.5 c 128,-1,68
 451 89 451 89 456 89 c 0,69,16
 464 89 464 89 468.5 84 c 128,-1,17
EndSplineSet
EndChar

StartChar: d
Encoding: 100 100 279
Width: 595
GlyphClass: 2
Flags: W
AnchorPoint: "Anchor-8" 575 499 basechar 0
AnchorPoint: "Anchor-7" 468 614 basechar 0
AnchorPoint: "Anchor-6" 298 499 basechar 0
AnchorPoint: "Anchor-5" 0 0 basechar 0
AnchorPoint: "Anchor-4" 298 0 basechar 0
LayerCount: 2
Fore
SplineSet
506.5 734 m 128,-1,1
 512 728 512 728 512 720 c 2,2,-1
 512 20 l 2,3,4
 512 12 512 12 506 6 c 128,-1,5
 500 0 500 0 492 0 c 0,6,7
 483 0 483 0 477.5 6 c 128,-1,8
 472 12 472 12 472 20 c 2,9,-1
 472 115 l 1,10,11
 448 62 448 62 396 26 c 128,-1,12
 344 -10 344 -10 280 -10 c 0,13,14
 215 -10 215 -10 162 24.5 c 128,-1,15
 109 59 109 59 78.5 119 c 128,-1,16
 48 179 48 179 48 253 c 256,17,18
 48 327 48 327 78.5 387 c 128,-1,19
 109 447 109 447 162 481 c 128,-1,20
 215 515 215 515 280 515 c 0,21,22
 342 515 342 515 395 480 c 128,-1,23
 448 445 448 445 472 389 c 1,24,-1
 472 720 l 2,25,26
 472 728 472 728 477.5 734 c 128,-1,27
 483 740 483 740 492 740 c 256,28,0
 501 740 501 740 506.5 734 c 128,-1,1
382 57 m 128,-1,30
 426 86 426 86 451 137.5 c 128,-1,31
 476 189 476 189 476 253 c 256,32,33
 476 317 476 317 451 368 c 128,-1,34
 426 419 426 419 381.5 448 c 128,-1,35
 337 477 337 477 282 477 c 0,36,37
 228 477 228 477 183.5 448 c 128,-1,38
 139 419 139 419 113.5 367.5 c 128,-1,39
 88 316 88 316 88 253 c 0,40,41
 88 189 88 189 113.5 138 c 128,-1,42
 139 87 139 87 183 57.5 c 128,-1,43
 227 28 227 28 282 28 c 0,44,29
 338 28 338 28 382 57 c 128,-1,30
EndSplineSet
EndChar

StartChar: eth
Encoding: 240 240 280
Width: 561
Flags: W
LayerCount: 2
Fore
SplineSet
483.5 450.5 m 128,-1,1
 513 357 513 357 513 285 c 0,2,3
 513 203 513 203 482 138 c 128,-1,4
 451 73 451 73 397.5 36 c 128,-1,5
 344 -1 344 -1 280 -1 c 0,6,7
 217 -1 217 -1 163.5 34.5 c 128,-1,8
 110 70 110 70 79 130.5 c 128,-1,9
 48 191 48 191 48 261 c 0,10,11
 48 330 48 330 79 388 c 128,-1,12
 110 446 110 446 163 479.5 c 128,-1,13
 216 513 216 513 280 513 c 0,14,15
 336 513 336 513 378 487 c 128,-1,16
 420 461 420 461 449 417 c 1,17,18
 419 529 419 529 356 602 c 1,19,-1
 354 601 l 1,20,-1
 231 553 l 1,21,-1
 223 551 l 2,22,23
 210 551 210 551 205 564 c 0,24,25
 204 567 204 567 204 572 c 0,26,27
 204 585 204 585 217 590 c 2,28,-1
 323 631 l 1,29,-1
 325 632 l 1,30,31
 263 686 263 686 183 700 c 0,32,33
 167 705 167 705 167 718 c 0,34,35
 167 740 167 740 185 740 c 0,36,37
 190 740 190 740 192 739 c 0,38,39
 290 718 290 718 365 647 c 1,40,-1
 454 682 l 2,41,42
 460 684 460 684 463 684 c 0,43,44
 468 684 468 684 473 680.5 c 128,-1,45
 478 677 478 677 480 671 c 0,46,47
 481 668 481 668 481 663 c 0,48,49
 481 650 481 650 468 645 c 2,50,-1
 394 616 l 1,51,0
 454 544 454 544 483.5 450.5 c 128,-1,1
375.5 68 m 128,-1,53
 420 99 420 99 446 150.5 c 128,-1,54
 472 202 472 202 472 261 c 0,55,56
 472 316 472 316 446 365.5 c 128,-1,57
 420 415 420 415 376 445 c 128,-1,58
 332 475 332 475 280 475 c 0,59,60
 227 475 227 475 183 446.5 c 128,-1,61
 139 418 139 418 113.5 369 c 128,-1,62
 88 320 88 320 88 261 c 256,63,64
 88 202 88 202 114 150.5 c 128,-1,65
 140 99 140 99 184.5 68 c 128,-1,66
 229 37 229 37 280 37 c 256,67,52
 331 37 331 37 375.5 68 c 128,-1,53
EndSplineSet
EndChar

StartChar: dcroat
Encoding: 273 273 282
Width: 595
GlyphClass: 2
Flags: W
AnchorPoint: "Anchor-8" 575 499 basechar 0
AnchorPoint: "Anchor-7" 468 614 basechar 0
AnchorPoint: "Anchor-6" 298 499 basechar 0
AnchorPoint: "Anchor-5" 0 0 basechar 0
AnchorPoint: "Anchor-4" 298 0 basechar 0
LayerCount: 2
Fore
SplineSet
568 614 m 0,1,2
 568 596 568 596 548 596 c 2,3,-1
 512 596 l 1,4,-1
 512 20 l 2,5,6
 512 12 512 12 506 6 c 128,-1,7
 500 0 500 0 492 0 c 0,8,9
 483 0 483 0 477.5 6 c 128,-1,10
 472 12 472 12 472 20 c 2,11,-1
 472 115 l 1,12,13
 448 62 448 62 396 26 c 128,-1,14
 344 -10 344 -10 280 -10 c 0,15,16
 215 -10 215 -10 162 24.5 c 128,-1,17
 109 59 109 59 78.5 119 c 128,-1,18
 48 179 48 179 48 253 c 256,19,20
 48 327 48 327 78.5 387 c 128,-1,21
 109 447 109 447 162 481 c 128,-1,22
 215 515 215 515 280 515 c 0,23,24
 342 515 342 515 395 480 c 128,-1,25
 448 445 448 445 472 389 c 1,26,-1
 472 596 l 1,27,-1
 388 596 l 2,28,29
 368 596 368 596 368 615 c 256,30,31
 368 634 368 634 388 634 c 2,32,-1
 472 634 l 1,33,-1
 472 720 l 2,34,35
 472 728 472 728 477.5 734 c 128,-1,36
 483 740 483 740 492 740 c 256,37,38
 501 740 501 740 506.5 734 c 128,-1,39
 512 728 512 728 512 720 c 2,40,-1
 512 634 l 1,41,-1
 548 634 l 2,42,0
 568 634 568 634 568 614 c 0,1,2
382 57 m 128,-1,44
 426 86 426 86 451 137.5 c 128,-1,45
 476 189 476 189 476 253 c 256,46,47
 476 317 476 317 451 368 c 128,-1,48
 426 419 426 419 381.5 448 c 128,-1,49
 337 477 337 477 282 477 c 0,50,51
 228 477 228 477 183.5 448 c 128,-1,52
 139 419 139 419 113.5 367.5 c 128,-1,53
 88 316 88 316 88 253 c 0,54,55
 88 189 88 189 113.5 138 c 128,-1,56
 139 87 139 87 183 57.5 c 128,-1,57
 227 28 227 28 282 28 c 0,58,43
 338 28 338 28 382 57 c 128,-1,44
EndSplineSet
EndChar

StartChar: e
Encoding: 101 101 286
Width: 548
GlyphClass: 2
Flags: W
AnchorPoint: "Anchor-8" 0 0 basechar 0
AnchorPoint: "Anchor-7" 0 0 basechar 0
AnchorPoint: "Anchor-6" 281 499 basechar 0
AnchorPoint: "Anchor-5" 493 10 basechar 0
AnchorPoint: "Anchor-4" 274 0 basechar 0
LayerCount: 2
Fore
SplineSet
490 114.5 m 128,-1,1
 495 109 495 109 495 102 c 256,2,3
 495 95 495 95 491 90 c 0,4,5
 458 46 458 46 409 18 c 128,-1,6
 360 -10 360 -10 304 -10 c 0,7,8
 229 -10 229 -10 171 22 c 128,-1,9
 113 54 113 54 80.5 113 c 128,-1,10
 48 172 48 172 48 250 c 0,11,12
 48 330 48 330 79.5 390.5 c 128,-1,13
 111 451 111 451 163 483 c 128,-1,14
 215 515 215 515 274 515 c 256,15,16
 333 515 333 515 383.5 489.5 c 128,-1,17
 434 464 434 464 466 413 c 128,-1,18
 498 362 498 362 500 287 c 0,19,20
 500 279 500 279 494 272.5 c 128,-1,21
 488 266 488 266 480 266 c 2,22,-1
 87 266 l 1,23,-1
 87 253 l 2,24,25
 87 191 87 191 112 139.5 c 128,-1,26
 137 88 137 88 186 58 c 128,-1,27
 235 28 235 28 304 28 c 0,28,29
 352 28 352 28 394.5 51.5 c 128,-1,30
 437 75 437 75 461 111 c 0,31,32
 468 120 468 120 478 120 c 0,33,0
 485 120 485 120 490 114.5 c 128,-1,1
198.5 455.5 m 128,-1,35
 160 436 160 436 130.5 397.5 c 128,-1,36
 101 359 101 359 91 304 c 1,37,-1
 459 304 l 1,38,-1
 459 313 l 1,39,40
 454 364 454 364 426.5 400.5 c 128,-1,41
 399 437 399 437 358.5 456 c 128,-1,42
 318 475 318 475 274 475 c 0,43,34
 237 475 237 475 198.5 455.5 c 128,-1,35
EndSplineSet
EndChar

StartChar: uni1E1D
Encoding: 7709 7709 290
Width: 548
GlyphClass: 2
Flags: W
AnchorPoint: "Anchor-8" 0 0 basechar 0
AnchorPoint: "Anchor-7" 0 0 basechar 0
AnchorPoint: "Anchor-6" 0 0 basechar 0
AnchorPoint: "Anchor-5" 493 10 basechar 0
AnchorPoint: "Anchor-4" 274 -141 basechar 0
LayerCount: 2
Fore
SplineSet
210.5 591.5 m 128,-1,1
 183 610 183 610 166.5 640 c 128,-1,2
 150 670 150 670 150 703 c 0,3,4
 150 710 150 710 155.5 715.5 c 128,-1,5
 161 721 161 721 169 721 c 0,6,7
 188 721 188 721 190 701 c 0,8,9
 194 659 194 659 217 635 c 128,-1,10
 240 611 240 611 271 611 c 256,11,12
 302 611 302 611 324.5 635.5 c 128,-1,13
 347 660 347 660 352 701 c 0,14,15
 355 721 355 721 373 721 c 0,16,17
 381 721 381 721 386.5 715.5 c 128,-1,18
 392 710 392 710 392 703 c 0,19,20
 392 670 392 670 375.5 640 c 128,-1,21
 359 610 359 610 331.5 591.5 c 128,-1,22
 304 573 304 573 271 573 c 256,23,0
 238 573 238 573 210.5 591.5 c 128,-1,1
490 114.5 m 128,-1,25
 495 109 495 109 495 102 c 256,26,27
 495 95 495 95 491 90 c 0,28,29
 461 51 461 51 418.5 24 c 128,-1,30
 376 -3 376 -3 327 -9 c 1,31,-1
 269 -126 l 2,32,33
 262 -141 262 -141 248 -141 c 0,34,35
 239 -141 239 -141 226 -133 c 128,-1,36
 213 -125 213 -125 213 -114 c 0,37,38
 213 -105 213 -105 218 -100 c 2,39,-1
 292 -10 l 1,40,41
 220 -7 220 -7 165 26 c 128,-1,42
 110 59 110 59 79 116.5 c 128,-1,43
 48 174 48 174 48 250 c 0,44,45
 48 330 48 330 79.5 390.5 c 128,-1,46
 111 451 111 451 163 483 c 128,-1,47
 215 515 215 515 274 515 c 256,48,49
 333 515 333 515 383.5 489.5 c 128,-1,50
 434 464 434 464 466 413 c 128,-1,51
 498 362 498 362 500 287 c 0,52,53
 500 279 500 279 494 272.5 c 128,-1,54
 488 266 488 266 480 266 c 2,55,-1
 87 266 l 1,56,-1
 87 253 l 2,57,58
 87 191 87 191 112 139.5 c 128,-1,59
 137 88 137 88 186 58 c 128,-1,60
 235 28 235 28 304 28 c 0,61,62
 352 28 352 28 394.5 51.5 c 128,-1,63
 437 75 437 75 461 111 c 0,64,65
 468 120 468 120 478 120 c 0,66,24
 485 120 485 120 490 114.5 c 128,-1,25
198.5 455.5 m 128,-1,68
 160 436 160 436 130.5 397.5 c 128,-1,69
 101 359 101 359 91 304 c 1,70,-1
 459 304 l 1,71,-1
 459 313 l 1,72,73
 454 364 454 364 426.5 400.5 c 128,-1,74
 399 437 399 437 358.5 456 c 128,-1,75
 318 475 318 475 274 475 c 0,76,67
 237 475 237 475 198.5 455.5 c 128,-1,68
EndSplineSet
EndChar

StartChar: eogonek
Encoding: 281 281 307
Width: 548
GlyphClass: 2
Flags: W
AnchorPoint: "Anchor-8" 0 0 basechar 0
AnchorPoint: "Anchor-7" 0 0 basechar 0
AnchorPoint: "Anchor-6" 273 499 basechar 0
AnchorPoint: "Anchor-5" 493 10 basechar 0
AnchorPoint: "Anchor-4" 274 0 basechar 0
LayerCount: 2
Fore
SplineSet
434 27 m 0,1,2
 398 -8 398 -8 382 -31.5 c 128,-1,3
 366 -55 366 -55 366 -87 c 0,4,5
 366 -113 366 -113 382.5 -130.5 c 128,-1,6
 399 -148 399 -148 425 -148 c 0,7,8
 449 -148 449 -148 457 -137 c 0,9,10
 467 -122 467 -122 478 -122 c 0,11,12
 493 -122 493 -122 493 -136 c 0,13,14
 493 -152 493 -152 468.5 -168.5 c 128,-1,15
 444 -185 444 -185 420 -185 c 0,16,17
 385 -185 385 -185 356.5 -159 c 128,-1,18
 328 -133 328 -133 328 -93 c 0,19,20
 328 -38 328 -38 373 2 c 1,21,22
 341 -10 341 -10 304 -10 c 0,23,24
 229 -10 229 -10 171 22 c 128,-1,25
 113 54 113 54 80.5 113 c 128,-1,26
 48 172 48 172 48 250 c 0,27,28
 48 330 48 330 79.5 390.5 c 128,-1,29
 111 451 111 451 163 483 c 128,-1,30
 215 515 215 515 274 515 c 256,31,32
 333 515 333 515 383.5 489.5 c 128,-1,33
 434 464 434 464 466 413 c 128,-1,34
 498 362 498 362 500 287 c 0,35,36
 500 279 500 279 494 272.5 c 128,-1,37
 488 266 488 266 480 266 c 2,38,-1
 87 266 l 1,39,-1
 87 253 l 2,40,41
 87 191 87 191 112 139.5 c 128,-1,42
 137 88 137 88 186 58 c 128,-1,43
 235 28 235 28 304 28 c 0,44,45
 352 28 352 28 394.5 51.5 c 128,-1,46
 437 75 437 75 461 111 c 0,47,48
 468 120 468 120 478 120 c 0,49,50
 485 120 485 120 490 114.5 c 128,-1,51
 495 109 495 109 495 102 c 256,52,53
 495 95 495 95 491 90 c 0,54,0
 472 65 472 65 434 27 c 0,1,2
156.5 429 m 128,-1,56
 105 383 105 383 91 304 c 1,57,-1
 459 304 l 1,58,-1
 459 313 l 1,59,60
 454 364 454 364 426.5 400.5 c 128,-1,61
 399 437 399 437 358.5 456 c 128,-1,62
 318 475 318 475 274 475 c 0,63,55
 208 475 208 475 156.5 429 c 128,-1,56
EndSplineSet
EndChar

StartChar: uni0259
Encoding: 601 601 309
Width: 548
GlyphClass: 2
Flags: W
AnchorPoint: "Anchor-8" 0 0 basechar 0
AnchorPoint: "Anchor-7" 0 0 basechar 0
AnchorPoint: "Anchor-6" 274 503 basechar 0
AnchorPoint: "Anchor-5" 55 493 basechar 0
AnchorPoint: "Anchor-4" 267 4 basechar 0
LayerCount: 2
Fore
SplineSet
377 481 m 128,-1,1
 435 449 435 449 467.5 390 c 128,-1,2
 500 331 500 331 500 253 c 0,3,4
 500 173 500 173 468.5 112.5 c 128,-1,5
 437 52 437 52 385 20 c 128,-1,6
 333 -12 333 -12 274 -12 c 256,7,8
 215 -12 215 -12 164.5 13.5 c 128,-1,9
 114 39 114 39 82 90 c 128,-1,10
 50 141 50 141 48 216 c 0,11,12
 48 224 48 224 54 230.5 c 128,-1,13
 60 237 60 237 68 237 c 2,14,-1
 461 237 l 1,15,-1
 461 250 l 2,16,17
 461 312 461 312 436 363.5 c 128,-1,18
 411 415 411 415 362 445 c 128,-1,19
 313 475 313 475 244 475 c 0,20,21
 196 475 196 475 153.5 451.5 c 128,-1,22
 111 428 111 428 87 392 c 0,23,24
 79 383 79 383 70 383 c 0,25,26
 63 383 63 383 58 388.5 c 128,-1,27
 53 394 53 394 53 401 c 256,28,29
 53 408 53 408 57 413 c 0,30,31
 90 457 90 457 139 485 c 128,-1,32
 188 513 188 513 244 513 c 0,33,0
 319 513 319 513 377 481 c 128,-1,1
349.5 47.5 m 128,-1,35
 388 67 388 67 417.5 105.5 c 128,-1,36
 447 144 447 144 457 199 c 1,37,-1
 89 199 l 1,38,-1
 89 190 l 1,39,40
 94 139 94 139 121.5 102.5 c 128,-1,41
 149 66 149 66 189.5 47 c 128,-1,42
 230 28 230 28 274 28 c 0,43,34
 311 28 311 28 349.5 47.5 c 128,-1,35
EndSplineSet
EndChar

StartChar: f
Encoding: 102 102 310
Width: 332
GlyphClass: 2
Flags: W
AnchorPoint: "Anchor-8" 0 0 basechar 0
AnchorPoint: "Anchor-7" 0 0 basechar 0
AnchorPoint: "Anchor-6" 166 499 basechar 0
AnchorPoint: "Anchor-5" 0 0 basechar 0
AnchorPoint: "Anchor-4" 166 0 basechar 0
LayerCount: 2
Fore
SplineSet
298.5 487.5 m 128,-1,1
 304 482 304 482 304 474 c 256,2,3
 304 466 304 466 298.5 460.5 c 128,-1,4
 293 455 293 455 285 455 c 2,5,-1
 167 455 l 1,6,-1
 167 20 l 2,7,8
 167 12 167 12 161 6 c 128,-1,9
 155 0 155 0 147 0 c 0,10,11
 138 0 138 0 132.5 6 c 128,-1,12
 127 12 127 12 127 20 c 2,13,-1
 127 455 l 1,14,-1
 47 455 l 2,15,16
 40 455 40 455 34 461 c 128,-1,17
 28 467 28 467 28 474 c 0,18,19
 28 483 28 483 33.5 488 c 128,-1,20
 39 493 39 493 47 493 c 2,21,-1
 127 493 l 1,22,-1
 127 615 l 2,23,24
 127 674 127 674 158.5 704.5 c 128,-1,25
 190 735 190 735 239 735 c 0,26,27
 264 735 264 735 286.5 728.5 c 128,-1,28
 309 722 309 722 309 707 c 0,29,30
 309 699 309 699 303 693 c 128,-1,31
 297 687 297 687 290 687 c 0,32,33
 282 687 282 687 269 692 c 0,34,35
 246 699 246 699 235 699 c 0,36,37
 204 699 204 699 185.5 678 c 128,-1,38
 167 657 167 657 167 615 c 2,39,-1
 167 493 l 1,40,-1
 285 493 l 2,41,0
 293 493 293 493 298.5 487.5 c 128,-1,1
EndSplineSet
EndChar

StartChar: g
Encoding: 103 103 311
Width: 615
GlyphClass: 2
Flags: W
AnchorPoint: "Anchor-8" 0 0 basechar 0
AnchorPoint: "Anchor-7" 0 0 basechar 0
AnchorPoint: "Anchor-6" 308 499 basechar 0
AnchorPoint: "Anchor-5" 0 0 basechar 0
AnchorPoint: "Anchor-4" 308 0 basechar 0
LayerCount: 2
Fore
SplineSet
526.5 493 m 128,-1,1
 532 487 532 487 532 479 c 2,2,-1
 532 49 l 2,3,4
 532 -27 532 -27 501 -83 c 128,-1,5
 470 -139 470 -139 414 -169.5 c 128,-1,6
 358 -200 358 -200 286 -200 c 0,7,8
 246 -200 246 -200 205 -189.5 c 128,-1,9
 164 -179 164 -179 137.5 -162.5 c 128,-1,10
 111 -146 111 -146 111 -129 c 0,11,12
 111 -121 111 -121 115.5 -116 c 128,-1,13
 120 -111 120 -111 128 -111 c 0,14,15
 134 -111 134 -111 146 -121 c 0,16,17
 160 -135 160 -135 177 -142 c 0,18,19
 226 -162 226 -162 288 -162 c 0,20,21
 382 -162 382 -162 437 -104 c 128,-1,22
 492 -46 492 -46 492 49 c 2,23,-1
 492 118 l 1,24,25
 465 54 465 54 408.5 22 c 128,-1,26
 352 -10 352 -10 290 -10 c 0,27,28
 222 -10 222 -10 166.5 24.5 c 128,-1,29
 111 59 111 59 79.5 119 c 128,-1,30
 48 179 48 179 48 253 c 256,31,32
 48 327 48 327 79.5 387 c 128,-1,33
 111 447 111 447 166.5 481 c 128,-1,34
 222 515 222 515 290 515 c 0,35,36
 357 515 357 515 412.5 479.5 c 128,-1,37
 468 444 468 444 492 394 c 1,38,-1
 492 479 l 2,39,40
 492 487 492 487 497.5 493 c 128,-1,41
 503 499 503 499 512 499 c 256,42,0
 521 499 521 499 526.5 493 c 128,-1,1
396.5 56.5 m 128,-1,44
 443 85 443 85 469.5 136 c 128,-1,45
 496 187 496 187 496 253 c 256,46,47
 496 319 496 319 469.5 370 c 128,-1,48
 443 421 443 421 396.5 449 c 128,-1,49
 350 477 350 477 292 477 c 256,50,51
 234 477 234 477 187.5 448 c 128,-1,52
 141 419 141 419 114.5 368 c 128,-1,53
 88 317 88 317 88 253 c 256,54,55
 88 189 88 189 114.5 138 c 128,-1,56
 141 87 141 87 187.5 57.5 c 128,-1,57
 234 28 234 28 292 28 c 256,58,43
 350 28 350 28 396.5 56.5 c 128,-1,44
EndSplineSet
Substitution2: "'ss01' Style Set 1 lookup 17 subtable" g.ss01
Substitution2: "'salt' Stylistic Alternatives lookup 16 subtable" g.ss01
EndChar

StartChar: uni0123
Encoding: 291 291 315
Width: 615
GlyphClass: 2
Flags: W
AnchorPoint: "Anchor-8" 0 0 basechar 0
AnchorPoint: "Anchor-7" 0 0 basechar 0
AnchorPoint: "Anchor-6" 308 499 basechar 0
AnchorPoint: "Anchor-5" 0 0 basechar 0
AnchorPoint: "Anchor-4" 308 0 basechar 0
LayerCount: 2
Fore
SplineSet
268 592 m 128,-1,1
 255 605 255 605 255 626 c 0,2,3
 255 656 255 656 268.5 682.5 c 128,-1,4
 282 709 282 709 302.5 724.5 c 128,-1,5
 323 740 323 740 341 740 c 0,6,7
 348 740 348 740 353.5 736 c 128,-1,8
 359 732 359 732 359 724 c 0,9,10
 359 715 359 715 355 712 c 128,-1,11
 351 709 351 709 340.5 706 c 128,-1,12
 330 703 330 703 324 700 c 0,13,14
 310 693 310 693 302.5 678 c 128,-1,15
 295 663 295 663 295 647 c 0,16,17
 295 623 295 623 312 623 c 0,18,19
 327 623 327 623 338 632 c 1,20,21
 346 622 346 622 346 612 c 0,22,23
 346 599 346 599 332.5 589 c 128,-1,24
 319 579 319 579 302 579 c 0,25,0
 281 579 281 579 268 592 c 128,-1,1
526.5 493 m 128,-1,27
 532 487 532 487 532 479 c 2,28,-1
 532 49 l 2,29,30
 532 -27 532 -27 501 -83 c 128,-1,31
 470 -139 470 -139 414 -169.5 c 128,-1,32
 358 -200 358 -200 286 -200 c 0,33,34
 246 -200 246 -200 205 -189.5 c 128,-1,35
 164 -179 164 -179 137.5 -162.5 c 128,-1,36
 111 -146 111 -146 111 -129 c 0,37,38
 111 -121 111 -121 115.5 -116 c 128,-1,39
 120 -111 120 -111 128 -111 c 0,40,41
 134 -111 134 -111 146 -121 c 0,42,43
 160 -135 160 -135 177 -142 c 0,44,45
 226 -162 226 -162 288 -162 c 0,46,47
 382 -162 382 -162 437 -104 c 128,-1,48
 492 -46 492 -46 492 49 c 2,49,-1
 492 118 l 1,50,51
 465 54 465 54 408.5 22 c 128,-1,52
 352 -10 352 -10 290 -10 c 0,53,54
 222 -10 222 -10 166.5 24.5 c 128,-1,55
 111 59 111 59 79.5 119 c 128,-1,56
 48 179 48 179 48 253 c 256,57,58
 48 327 48 327 79.5 387 c 128,-1,59
 111 447 111 447 166.5 481 c 128,-1,60
 222 515 222 515 290 515 c 0,61,62
 357 515 357 515 412.5 479.5 c 128,-1,63
 468 444 468 444 492 394 c 1,64,-1
 492 479 l 2,65,66
 492 487 492 487 497.5 493 c 128,-1,67
 503 499 503 499 512 499 c 256,68,26
 521 499 521 499 526.5 493 c 128,-1,27
396.5 56.5 m 128,-1,70
 443 85 443 85 469.5 136 c 128,-1,71
 496 187 496 187 496 253 c 256,72,73
 496 319 496 319 469.5 370 c 128,-1,74
 443 421 443 421 396.5 449 c 128,-1,75
 350 477 350 477 292 477 c 256,76,77
 234 477 234 477 187.5 448 c 128,-1,78
 141 419 141 419 114.5 368 c 128,-1,79
 88 317 88 317 88 253 c 256,80,81
 88 189 88 189 114.5 138 c 128,-1,82
 141 87 141 87 187.5 57.5 c 128,-1,83
 234 28 234 28 292 28 c 256,84,69
 350 28 350 28 396.5 56.5 c 128,-1,70
EndSplineSet
Substitution2: "'ss01' Style Set 1 lookup 17 subtable" uni0123.ss01
Substitution2: "'salt' Stylistic Alternatives lookup 16 subtable" uni0123.ss01
EndChar

StartChar: h
Encoding: 104 104 318
Width: 562
GlyphClass: 2
Flags: W
AnchorPoint: "Anchor-8" 0 0 basechar 0
AnchorPoint: "Anchor-7" 123 589 basechar 0
AnchorPoint: "Anchor-6" 103 700 basechar 0
AnchorPoint: "Anchor-5" 0 0 basechar 0
AnchorPoint: "Anchor-4" 281 0 basechar 0
LayerCount: 2
Fore
SplineSet
433 450.5 m 128,-1,1
 479 396 479 396 479 312 c 2,2,-1
 479 20 l 2,3,4
 479 12 479 12 473 6 c 128,-1,5
 467 0 467 0 459 0 c 0,6,7
 450 0 450 0 444.5 6 c 128,-1,8
 439 12 439 12 439 20 c 2,9,-1
 439 312 l 2,10,11
 439 381 439 381 405 424 c 128,-1,12
 371 467 371 467 301 467 c 0,13,14
 258 467 258 467 216.5 446 c 128,-1,15
 175 425 175 425 149 389 c 128,-1,16
 123 353 123 353 123 312 c 2,17,-1
 123 20 l 2,18,19
 123 12 123 12 117 6 c 128,-1,20
 111 0 111 0 103 0 c 0,21,22
 94 0 94 0 88.5 6 c 128,-1,23
 83 12 83 12 83 20 c 2,24,-1
 83 720 l 2,25,26
 83 728 83 728 89 734 c 128,-1,27
 95 740 95 740 103 740 c 0,28,29
 112 740 112 740 117.5 734 c 128,-1,30
 123 728 123 728 123 720 c 2,31,-1
 123 404 l 1,32,33
 151 448 151 448 200.5 476.5 c 128,-1,34
 250 505 250 505 301 505 c 0,35,0
 387 505 387 505 433 450.5 c 128,-1,1
EndSplineSet
EndChar

StartChar: hbar
Encoding: 295 295 319
Width: 562
GlyphClass: 2
Flags: W
AnchorPoint: "Anchor-8" 0 0 basechar 0
AnchorPoint: "Anchor-7" 123 589 basechar 0
AnchorPoint: "Anchor-6" 103 700 basechar 0
AnchorPoint: "Anchor-5" 0 0 basechar 0
AnchorPoint: "Anchor-4" 281 0 basechar 0
LayerCount: 2
Fore
SplineSet
433 450.5 m 128,-1,1
 479 396 479 396 479 312 c 2,2,-1
 479 20 l 2,3,4
 479 12 479 12 473 6 c 128,-1,5
 467 0 467 0 459 0 c 0,6,7
 450 0 450 0 444.5 6 c 128,-1,8
 439 12 439 12 439 20 c 2,9,-1
 439 312 l 2,10,11
 439 381 439 381 405 424 c 128,-1,12
 371 467 371 467 301 467 c 0,13,14
 258 467 258 467 216.5 446 c 128,-1,15
 175 425 175 425 149 389 c 128,-1,16
 123 353 123 353 123 312 c 2,17,-1
 123 20 l 2,18,19
 123 12 123 12 117 6 c 128,-1,20
 111 0 111 0 103 0 c 0,21,22
 94 0 94 0 88.5 6 c 128,-1,23
 83 12 83 12 83 20 c 2,24,-1
 83 571 l 1,25,-1
 43 571 l 2,26,27
 23 571 23 571 23 590 c 256,28,29
 23 609 23 609 43 609 c 2,30,-1
 83 609 l 1,31,-1
 83 720 l 2,32,33
 83 728 83 728 89 734 c 128,-1,34
 95 740 95 740 103 740 c 0,35,36
 112 740 112 740 117.5 734 c 128,-1,37
 123 728 123 728 123 720 c 2,38,-1
 123 609 l 1,39,-1
 203 609 l 2,40,41
 223 609 223 609 223 589 c 0,42,43
 223 571 223 571 203 571 c 2,44,-1
 123 571 l 1,45,-1
 123 404 l 1,46,47
 151 448 151 448 200.5 476.5 c 128,-1,48
 250 505 250 505 301 505 c 0,49,0
 387 505 387 505 433 450.5 c 128,-1,1
EndSplineSet
EndChar

StartChar: dotlessi
Encoding: 305 305 324
Width: 206
GlyphClass: 2
Flags: W
AnchorPoint: "Anchor-8" 0 0 basechar 0
AnchorPoint: "Anchor-7" 0 0 basechar 0
AnchorPoint: "Anchor-6" 103 499 basechar 0
AnchorPoint: "Anchor-5" 165 10 basechar 0
AnchorPoint: "Anchor-4" 103 0 basechar 0
LayerCount: 2
Fore
SplineSet
117 6 m 128,-1,1
 111 0 111 0 103 0 c 0,2,3
 94 0 94 0 88.5 6 c 128,-1,4
 83 12 83 12 83 20 c 2,5,-1
 83 495 l 2,6,7
 83 503 83 503 89 509 c 128,-1,8
 95 515 95 515 103 515 c 0,9,10
 112 515 112 515 117.5 509 c 128,-1,11
 123 503 123 503 123 495 c 2,12,-1
 123 20 l 2,13,0
 123 12 123 12 117 6 c 128,-1,1
EndSplineSet
EndChar

StartChar: iogonek
Encoding: 303 303 339
Width: 206
GlyphClass: 2
Flags: W
AnchorPoint: "Anchor-8" 0 0 basechar 0
AnchorPoint: "Anchor-7" 0 0 basechar 0
AnchorPoint: "Anchor-6" 103 499 basechar 0
AnchorPoint: "Anchor-5" 165 10 basechar 0
AnchorPoint: "Anchor-4" 106 0 basechar 0
LayerCount: 2
Fore
SplineSet
77.5 592 m 128,-1,1
 68 601 68 601 68 615 c 2,2,-1
 68 623 l 2,3,4
 68 637 68 637 78 646 c 128,-1,5
 88 655 88 655 104 655 c 0,6,7
 118 655 118 655 127.5 646 c 128,-1,8
 137 637 137 637 137 623 c 2,9,-1
 137 615 l 2,10,11
 137 601 137 601 127.5 592 c 128,-1,12
 118 583 118 583 103 583 c 0,13,0
 87 583 87 583 77.5 592 c 128,-1,1
142 -126 m 128,-1,15
 146 -130 146 -130 146 -136 c 0,16,17
 146 -156 146 -156 125.5 -170.5 c 128,-1,18
 105 -185 105 -185 74 -185 c 0,19,20
 39 -185 39 -185 12.5 -159 c 128,-1,21
 -14 -133 -14 -133 -14 -93 c 0,22,23
 -14 -50 -14 -50 13.5 -21.5 c 128,-1,24
 41 7 41 7 83 20 c 1,25,-1
 83 495 l 2,26,27
 83 503 83 503 89 509 c 128,-1,28
 95 515 95 515 103 515 c 0,29,30
 112 515 112 515 117.5 509 c 128,-1,31
 123 503 123 503 123 495 c 2,32,-1
 123 28 l 2,33,34
 123 16 123 16 113 7.5 c 128,-1,35
 103 -1 103 -1 82 -14 c 0,36,37
 54 -31 54 -31 39 -46 c 128,-1,38
 24 -61 24 -61 24 -85 c 0,39,40
 24 -114 24 -114 40.5 -131 c 128,-1,41
 57 -148 57 -148 79 -148 c 0,42,43
 91 -148 91 -148 97.5 -147 c 128,-1,44
 104 -146 104 -146 107 -141 c 0,45,46
 116 -130 116 -130 120.5 -126 c 128,-1,47
 125 -122 125 -122 132 -122 c 0,48,14
 138 -122 138 -122 142 -126 c 128,-1,15
EndSplineSet
EndChar

StartChar: uni0237
Encoding: 567 567 342
Width: 229
GlyphClass: 2
Flags: W
AnchorPoint: "Anchor-8" 0 0 basechar 0
AnchorPoint: "Anchor-7" 0 0 basechar 0
AnchorPoint: "Anchor-6" 116 500 basechar 0
AnchorPoint: "Anchor-5" 0 0 basechar 0
AnchorPoint: "Anchor-4" 112 0 basechar 0
LayerCount: 2
Fore
SplineSet
-15 -193 m 128,-1,1
 -20 -188 -20 -188 -20 -180 c 2,2,-1
 -20 -178 l 2,3,4
 -20 -171 -20 -171 -15 -165.5 c 128,-1,5
 -10 -160 -10 -160 -2 -159 c 0,6,7
 37 -153 37 -153 66.5 -128 c 128,-1,8
 96 -103 96 -103 96 -58 c 2,9,-1
 96 480 l 2,10,11
 96 488 96 488 101.5 494 c 128,-1,12
 107 500 107 500 116 500 c 256,13,14
 125 500 125 500 130.5 494 c 128,-1,15
 136 488 136 488 136 480 c 2,16,-1
 136 -58 l 2,17,18
 136 -100 136 -100 114 -132 c 128,-1,19
 92 -164 92 -164 60 -181 c 128,-1,20
 28 -198 28 -198 -1 -198 c 0,21,0
 -10 -198 -10 -198 -15 -193 c 128,-1,1
EndSplineSet
EndChar

StartChar: k
Encoding: 107 107 344
Width: 524
GlyphClass: 2
Flags: W
AnchorPoint: "Anchor-8" 0 0 basechar 0
AnchorPoint: "Anchor-7" 0 0 basechar 0
AnchorPoint: "Anchor-6" 262 499 basechar 0
AnchorPoint: "Anchor-5" 0 0 basechar 0
AnchorPoint: "Anchor-4" 262 0 basechar 0
LayerCount: 2
Fore
SplineSet
481 20 m 256,1,2
 481 11 481 11 473.5 5.5 c 128,-1,3
 466 0 466 0 461 0 c 0,4,5
 453 0 453 0 446 7 c 2,6,-1
 212 256 l 1,7,-1
 128 186 l 1,8,-1
 128 20 l 2,9,10
 128 12 128 12 122.5 6 c 128,-1,11
 117 0 117 0 108 0 c 256,12,13
 99 0 99 0 93.5 6 c 128,-1,14
 88 12 88 12 88 20 c 2,15,-1
 88 720 l 2,16,17
 88 728 88 728 93.5 734 c 128,-1,18
 99 740 99 740 108 740 c 256,19,20
 117 740 117 740 122.5 734 c 128,-1,21
 128 728 128 728 128 720 c 2,22,-1
 128 236 l 1,23,-1
 442 499 l 2,24,25
 448 505 448 505 455 505 c 0,26,27
 463 505 463 505 469 499 c 128,-1,28
 475 493 475 493 475 484 c 256,29,30
 475 475 475 475 468 469 c 2,31,-1
 243 282 l 1,32,-1
 475 35 l 2,33,0
 481 29 481 29 481 20 c 256,1,2
EndSplineSet
EndChar

StartChar: kgreenlandic
Encoding: 312 312 346
Width: 524
GlyphClass: 2
Flags: W
AnchorPoint: "Anchor-8" 0 0 basechar 0
AnchorPoint: "Anchor-7" 0 0 basechar 0
AnchorPoint: "Anchor-6" 300 499 basechar 0
AnchorPoint: "Anchor-5" 0 0 basechar 0
AnchorPoint: "Anchor-4" 300 0 basechar 0
LayerCount: 2
Fore
SplineSet
481 20 m 0,1,2
 481 10 481 10 473.5 5 c 128,-1,3
 466 0 466 0 461 0 c 0,4,5
 453 0 453 0 446 7 c 2,6,-1
 212 256 l 1,7,-1
 128 186 l 1,8,-1
 128 20 l 2,9,10
 128 12 128 12 122.5 6 c 128,-1,11
 117 0 117 0 108 0 c 256,12,13
 99 0 99 0 93.5 6 c 128,-1,14
 88 12 88 12 88 20 c 2,15,-1
 88 479 l 2,16,17
 88 487 88 487 93.5 493 c 128,-1,18
 99 499 99 499 108 499 c 256,19,20
 117 499 117 499 122.5 493 c 128,-1,21
 128 487 128 487 128 479 c 2,22,-1
 128 236 l 1,23,-1
 442 499 l 2,24,25
 448 505 448 505 455 505 c 0,26,27
 463 505 463 505 469 499 c 128,-1,28
 475 493 475 493 475 484 c 256,29,30
 475 475 475 475 468 469 c 2,31,-1
 243 282 l 1,32,-1
 475 35 l 2,33,0
 481 29 481 29 481 20 c 0,1,2
EndSplineSet
EndChar

StartChar: l
Encoding: 108 108 347
Width: 216
GlyphClass: 2
Flags: W
AnchorPoint: "Anchor-8" 196 740 basechar 0
AnchorPoint: "Anchor-7" 108 366 basechar 0
AnchorPoint: "Anchor-6" 108 740 basechar 0
AnchorPoint: "Anchor-5" 0 0 basechar 0
AnchorPoint: "Anchor-4" 108 0 basechar 0
LayerCount: 2
Fore
SplineSet
122 6 m 128,-1,1
 116 0 116 0 108 0 c 0,2,3
 99 0 99 0 93.5 6 c 128,-1,4
 88 12 88 12 88 20 c 2,5,-1
 88 720 l 2,6,7
 88 728 88 728 94 734 c 128,-1,8
 100 740 100 740 108 740 c 0,9,10
 117 740 117 740 122.5 734 c 128,-1,11
 128 728 128 728 128 720 c 2,12,-1
 128 20 l 2,13,0
 128 12 128 12 122 6 c 128,-1,1
EndSplineSet
EndChar

StartChar: lcaron
Encoding: 318 318 349
Width: 265
Flags: W
LayerCount: 2
Fore
SplineSet
117 6 m 128,-1,1
 111 0 111 0 103 0 c 0,2,3
 94 0 94 0 88.5 6 c 128,-1,4
 83 12 83 12 83 20 c 2,5,-1
 83 720 l 2,6,7
 83 728 83 728 89 734 c 128,-1,8
 95 740 95 740 103 740 c 0,9,10
 112 740 112 740 117.5 734 c 128,-1,11
 123 728 123 728 123 720 c 2,12,-1
 123 20 l 2,13,0
 123 12 123 12 117 6 c 128,-1,1
265.5 559.5 m 128,-1,15
 252 533 252 533 231.5 517.5 c 128,-1,16
 211 502 211 502 193 502 c 0,17,18
 186 502 186 502 180.5 506 c 128,-1,19
 175 510 175 510 175 518 c 0,20,21
 175 527 175 527 179 530 c 128,-1,22
 183 533 183 533 193.5 536 c 128,-1,23
 204 539 204 539 210 542 c 0,24,25
 224 549 224 549 231.5 564 c 128,-1,26
 239 579 239 579 239 595 c 0,27,28
 239 619 239 619 222 619 c 0,29,30
 207 619 207 619 196 610 c 1,31,32
 188 620 188 620 188 630 c 0,33,34
 188 643 188 643 201.5 653 c 128,-1,35
 215 663 215 663 232 663 c 0,36,37
 253 663 253 663 266 650 c 128,-1,38
 279 637 279 637 279 616 c 0,39,14
 279 586 279 586 265.5 559.5 c 128,-1,15
EndSplineSet
EndChar

StartChar: lslash
Encoding: 322 322 355
Width: 218
GlyphClass: 2
Flags: W
AnchorPoint: "Anchor-8" 196 740 basechar 0
AnchorPoint: "Anchor-7" 108 366 basechar 0
AnchorPoint: "Anchor-6" 108 740 basechar 0
AnchorPoint: "Anchor-5" 0 0 basechar 0
AnchorPoint: "Anchor-4" 108 0 basechar 0
LayerCount: 2
Fore
SplineSet
218.5 469.5 m 128,-1,1
 223 465 223 465 223 458 c 0,2,3
 223 443 223 443 208 437 c 2,4,-1
 128 401 l 1,5,-1
 128 20 l 2,6,7
 128 12 128 12 122 6 c 128,-1,8
 116 0 116 0 108 0 c 0,9,10
 99 0 99 0 93.5 6 c 128,-1,11
 88 12 88 12 88 20 c 2,12,-1
 88 383 l 1,13,-1
 23 353 l 2,14,15
 15 350 15 350 11 350 c 0,16,17
 5 350 5 350 0 355 c 128,-1,18
 -5 360 -5 360 -5 369 c 0,19,20
 -5 374 -5 374 -1.5 379 c 128,-1,21
 2 384 2 384 8 386 c 2,22,-1
 88 422 l 1,23,-1
 88 720 l 2,24,25
 88 728 88 728 94 734 c 128,-1,26
 100 740 100 740 108 740 c 0,27,28
 117 740 117 740 122.5 734 c 128,-1,29
 128 728 128 728 128 720 c 2,30,-1
 128 440 l 1,31,-1
 193 470 l 2,32,33
 201 474 201 474 208 474 c 0,34,0
 214 474 214 474 218.5 469.5 c 128,-1,1
EndSplineSet
EndChar

StartChar: m
Encoding: 109 109 356
Width: 909
GlyphClass: 2
Flags: W
AnchorPoint: "Anchor-8" 0 0 basechar 0
AnchorPoint: "Anchor-7" 0 0 basechar 0
AnchorPoint: "Anchor-6" 455 499 basechar 0
AnchorPoint: "Anchor-5" 0 0 basechar 0
AnchorPoint: "Anchor-4" 455 0 basechar 0
LayerCount: 2
Fore
SplineSet
781.5 451 m 128,-1,1
 826 397 826 397 826 311 c 2,2,-1
 826 20 l 2,3,4
 826 12 826 12 820.5 6 c 128,-1,5
 815 0 815 0 806 0 c 256,6,7
 797 0 797 0 791.5 6 c 128,-1,8
 786 12 786 12 786 20 c 2,9,-1
 786 307 l 2,10,11
 786 378 786 378 751.5 422.5 c 128,-1,12
 717 467 717 467 647 467 c 0,13,14
 604 467 604 467 562.5 445 c 128,-1,15
 521 423 521 423 495 386.5 c 128,-1,16
 469 350 469 350 469 307 c 2,17,-1
 469 20 l 2,18,19
 469 12 469 12 463.5 6 c 128,-1,20
 458 0 458 0 449 0 c 256,21,22
 440 0 440 0 434.5 6 c 128,-1,23
 429 12 429 12 429 20 c 2,24,-1
 429 312 l 2,25,26
 429 381 429 381 396 424 c 128,-1,27
 363 467 363 467 296 467 c 0,28,29
 254 467 254 467 214 446 c 128,-1,30
 174 425 174 425 148.5 389 c 128,-1,31
 123 353 123 353 123 312 c 2,32,-1
 123 20 l 2,33,34
 123 12 123 12 117 6 c 128,-1,35
 111 0 111 0 103 0 c 0,36,37
 94 0 94 0 88.5 6 c 128,-1,38
 83 12 83 12 83 20 c 2,39,-1
 83 479 l 2,40,41
 83 487 83 487 89 493 c 128,-1,42
 95 499 95 499 103 499 c 0,43,44
 112 499 112 499 117.5 493 c 128,-1,45
 123 487 123 487 123 479 c 2,46,-1
 123 409 l 1,47,48
 152 451 152 451 198.5 478 c 128,-1,49
 245 505 245 505 296 505 c 0,50,51
 351 505 351 505 394 477 c 128,-1,52
 437 449 437 449 457 395 c 1,53,54
 478 441 478 441 536.5 473 c 128,-1,55
 595 505 595 505 651 505 c 0,56,0
 737 505 737 505 781.5 451 c 128,-1,1
EndSplineSet
EndChar

StartChar: n
Encoding: 110 110 358
Width: 572
GlyphClass: 2
Flags: W
AnchorPoint: "Anchor-8" 0 0 basechar 0
AnchorPoint: "Anchor-7" 0 0 basechar 0
AnchorPoint: "Anchor-6" 286 499 basechar 0
AnchorPoint: "Anchor-5" 0 0 basechar 0
AnchorPoint: "Anchor-4" 286 0 basechar 0
LayerCount: 2
Fore
SplineSet
444 462.5 m 128,-1,1
 489 410 489 410 489 326 c 2,2,-1
 489 20 l 2,3,4
 489 12 489 12 483 6 c 128,-1,5
 477 0 477 0 469 0 c 0,6,7
 460 0 460 0 454.5 6 c 128,-1,8
 449 12 449 12 449 20 c 2,9,-1
 449 322 l 2,10,11
 449 390 449 390 413.5 433.5 c 128,-1,12
 378 477 378 477 306 477 c 0,13,14
 262 477 262 477 219.5 456 c 128,-1,15
 177 435 177 435 150 399 c 128,-1,16
 123 363 123 363 123 322 c 2,17,-1
 123 20 l 2,18,19
 123 12 123 12 117 6 c 128,-1,20
 111 0 111 0 103 0 c 0,21,22
 94 0 94 0 88.5 6 c 128,-1,23
 83 12 83 12 83 20 c 2,24,-1
 83 479 l 2,25,26
 83 487 83 487 89 493 c 128,-1,27
 95 499 95 499 103 499 c 0,28,29
 112 499 112 499 117.5 493 c 128,-1,30
 123 487 123 487 123 479 c 2,31,-1
 123 412 l 1,32,33
 152 457 152 457 204.5 486 c 128,-1,34
 257 515 257 515 310 515 c 0,35,0
 399 515 399 515 444 462.5 c 128,-1,1
EndSplineSet
EndChar

StartChar: eng
Encoding: 331 331 365
Width: 572
GlyphClass: 2
Flags: W
AnchorPoint: "Anchor-8" 0 0 basechar 0
AnchorPoint: "Anchor-7" 0 0 basechar 0
AnchorPoint: "Anchor-6" 286 499 basechar 0
AnchorPoint: "Anchor-5" 0 0 basechar 0
AnchorPoint: "Anchor-4" 286 0 basechar 0
LayerCount: 2
Fore
SplineSet
449 -156 m 128,-1,1
 408 -200 408 -200 311 -200 c 0,2,3
 301 -200 301 -200 295 -194.5 c 128,-1,4
 289 -189 289 -189 289 -180 c 256,5,6
 289 -171 289 -171 295 -165.5 c 128,-1,7
 301 -160 301 -160 310 -160 c 0,8,9
 390 -160 390 -160 419.5 -130 c 128,-1,10
 449 -100 449 -100 449 -44 c 2,11,-1
 449 322 l 2,12,13
 449 390 449 390 413.5 433.5 c 128,-1,14
 378 477 378 477 306 477 c 0,15,16
 262 477 262 477 219.5 456 c 128,-1,17
 177 435 177 435 150 399 c 128,-1,18
 123 363 123 363 123 322 c 2,19,-1
 123 20 l 2,20,21
 123 12 123 12 117 6 c 128,-1,22
 111 0 111 0 103 0 c 0,23,24
 94 0 94 0 88.5 6 c 128,-1,25
 83 12 83 12 83 20 c 2,26,-1
 83 479 l 2,27,28
 83 487 83 487 89 493 c 128,-1,29
 95 499 95 499 103 499 c 0,30,31
 112 499 112 499 117.5 493 c 128,-1,32
 123 487 123 487 123 479 c 2,33,-1
 123 412 l 1,34,35
 152 457 152 457 204.5 486 c 128,-1,36
 257 515 257 515 310 515 c 0,37,38
 399 515 399 515 444 462.5 c 128,-1,39
 489 410 489 410 489 326 c 2,40,-1
 489 -44 l 2,41,0
 490 -112 490 -112 449 -156 c 128,-1,1
EndSplineSet
EndChar

StartChar: uni0272
Encoding: 626 626 366
Width: 572
Flags: W
LayerCount: 2
Fore
SplineSet
444 462.5 m 128,-1,1
 489 410 489 410 489 326 c 2,2,-1
 489 20 l 2,3,4
 489 12 489 12 483 6 c 128,-1,5
 477 0 477 0 469 0 c 0,6,7
 460 0 460 0 454.5 6 c 128,-1,8
 449 12 449 12 449 20 c 2,9,-1
 449 322 l 2,10,11
 449 390 449 390 413.5 433.5 c 128,-1,12
 378 477 378 477 306 477 c 0,13,14
 262 477 262 477 219.5 456 c 128,-1,15
 177 435 177 435 150 399 c 128,-1,16
 123 363 123 363 123 322 c 2,17,-1
 123 -58 l 2,18,19
 123 -113 123 -113 96 -144 c 128,-1,20
 69 -175 69 -175 37 -186.5 c 128,-1,21
 5 -198 5 -198 -14 -198 c 0,22,23
 -22 -198 -22 -198 -27.5 -193 c 128,-1,24
 -33 -188 -33 -188 -33 -180 c 0,25,26
 -33 -171 -33 -171 -28 -165.5 c 128,-1,27
 -23 -160 -23 -160 -15 -159 c 0,28,29
 24 -153 24 -153 53.5 -128 c 128,-1,30
 83 -103 83 -103 83 -58 c 2,31,-1
 83 479 l 2,32,33
 83 487 83 487 89 493 c 128,-1,34
 95 499 95 499 103 499 c 0,35,36
 112 499 112 499 117.5 493 c 128,-1,37
 123 487 123 487 123 479 c 2,38,-1
 123 412 l 1,39,40
 152 457 152 457 204.5 486 c 128,-1,41
 257 515 257 515 310 515 c 0,42,0
 399 515 399 515 444 462.5 c 128,-1,1
EndSplineSet
EndChar

StartChar: o
Encoding: 111 111 370
Width: 589
GlyphClass: 2
Flags: W
AnchorPoint: "Anchor-8" 312 496 basechar 0
AnchorPoint: "Anchor-7" 295 250 basechar 0
AnchorPoint: "Anchor-6" 295 509 basechar 0
AnchorPoint: "Anchor-5" 530 10 basechar 0
AnchorPoint: "Anchor-4" 295 0 basechar 0
LayerCount: 2
Fore
SplineSet
509 118.5 m 128,-1,1
 477 59 477 59 420.5 24.5 c 128,-1,2
 364 -10 364 -10 295 -10 c 256,3,4
 226 -10 226 -10 169.5 24.5 c 128,-1,5
 113 59 113 59 80.5 119 c 128,-1,6
 48 179 48 179 48 252 c 0,7,8
 48 326 48 326 80.5 386 c 128,-1,9
 113 446 113 446 169 480.5 c 128,-1,10
 225 515 225 515 295 515 c 0,11,12
 364 515 364 515 420.5 480.5 c 128,-1,13
 477 446 477 446 509 386 c 128,-1,14
 541 326 541 326 541 252 c 256,15,0
 541 178 541 178 509 118.5 c 128,-1,1
474.5 367 m 128,-1,17
 448 418 448 418 401 447.5 c 128,-1,18
 354 477 354 477 295 477 c 0,19,20
 237 477 237 477 189.5 447.5 c 128,-1,21
 142 418 142 418 115 367 c 128,-1,22
 88 316 88 316 88 252 c 0,23,24
 88 189 88 189 115 138 c 128,-1,25
 142 87 142 87 189.5 57.5 c 128,-1,26
 237 28 237 28 295 28 c 0,27,28
 354 28 354 28 401 57 c 128,-1,29
 448 86 448 86 474.5 137.5 c 128,-1,30
 501 189 501 189 501 252 c 0,31,16
 501 316 501 316 474.5 367 c 128,-1,17
EndSplineSet
Substitution2: "Single Substitution lookup 20 subtable" ordmasculine
EndChar

StartChar: ohorn
Encoding: 417 417 387
Width: 589
GlyphClass: 2
Flags: W
AnchorPoint: "Anchor-8" 312 496 basechar 0
AnchorPoint: "Anchor-7" 295 250 basechar 0
AnchorPoint: "Anchor-6" 300 499 basechar 0
AnchorPoint: "Anchor-5" 530 10 basechar 0
AnchorPoint: "Anchor-4" 300 0 basechar 0
LayerCount: 2
Fore
SplineSet
514 376.5 m 128,-1,1
 541 320 541 320 541 252 c 0,2,3
 541 178 541 178 509 118.5 c 128,-1,4
 477 59 477 59 420.5 24.5 c 128,-1,5
 364 -10 364 -10 295 -10 c 256,6,7
 226 -10 226 -10 169.5 24.5 c 128,-1,8
 113 59 113 59 80.5 119 c 128,-1,9
 48 179 48 179 48 252 c 0,10,11
 48 326 48 326 80.5 386 c 128,-1,12
 113 446 113 446 169 480.5 c 128,-1,13
 225 515 225 515 295 515 c 0,14,15
 343 515 343 515 386 498 c 1,16,-1
 386 499 l 1,17,18
 437 499 437 499 460 518 c 128,-1,19
 483 537 483 537 483 581 c 0,20,21
 483 594 483 594 487.5 602.5 c 128,-1,22
 492 611 492 611 501 611 c 0,23,24
 519 611 519 611 519 581 c 0,25,26
 519 538 519 538 498 509 c 128,-1,27
 477 480 477 480 439 468 c 1,28,0
 487 433 487 433 514 376.5 c 128,-1,1
401 57 m 128,-1,30
 448 86 448 86 474.5 137.5 c 128,-1,31
 501 189 501 189 501 252 c 0,32,33
 501 316 501 316 474.5 367 c 128,-1,34
 448 418 448 418 401 447.5 c 128,-1,35
 354 477 354 477 295 477 c 0,36,37
 237 477 237 477 189.5 447.5 c 128,-1,38
 142 418 142 418 115 367 c 128,-1,39
 88 316 88 316 88 252 c 0,40,41
 88 189 88 189 115 138 c 128,-1,42
 142 87 142 87 189.5 57.5 c 128,-1,43
 237 28 237 28 295 28 c 0,44,29
 354 28 354 28 401 57 c 128,-1,30
EndSplineSet
EndChar

StartChar: uni01EB
Encoding: 491 491 398
Width: 589
Flags: W
LayerCount: 2
Fore
SplineSet
307 -35 m 128,-1,1
 289 -59 289 -59 289 -85 c 0,2,3
 289 -114 289 -114 305.5 -131 c 128,-1,4
 322 -148 322 -148 344 -148 c 0,5,6
 364 -148 364 -148 373 -139 c 0,7,8
 379 -132 379 -132 384.5 -127 c 128,-1,9
 390 -122 390 -122 397 -122 c 0,10,11
 403 -122 403 -122 407 -126 c 128,-1,12
 411 -130 411 -130 411 -136 c 0,13,14
 411 -156 411 -156 390.5 -170.5 c 128,-1,15
 370 -185 370 -185 339 -185 c 0,16,17
 304 -185 304 -185 277.5 -159 c 128,-1,18
 251 -133 251 -133 251 -93 c 0,19,20
 251 -43 251 -43 289 -10 c 1,21,22
 221 -9 221 -9 166 26 c 128,-1,23
 111 61 111 61 79.5 120.5 c 128,-1,24
 48 180 48 180 48 252 c 0,25,26
 48 326 48 326 80.5 386 c 128,-1,27
 113 446 113 446 169 480.5 c 128,-1,28
 225 515 225 515 295 515 c 0,29,30
 364 515 364 515 420.5 480.5 c 128,-1,31
 477 446 477 446 509 386 c 128,-1,32
 541 326 541 326 541 252 c 0,33,34
 541 157 541 157 487.5 88.5 c 128,-1,35
 434 20 434 20 349 -4 c 0,36,0
 325 -11 325 -11 307 -35 c 128,-1,1
115 138 m 128,-1,38
 142 87 142 87 189.5 57.5 c 128,-1,39
 237 28 237 28 295 28 c 0,40,41
 354 28 354 28 401 57 c 128,-1,42
 448 86 448 86 474.5 137.5 c 128,-1,43
 501 189 501 189 501 252 c 0,44,45
 501 316 501 316 474.5 367 c 128,-1,46
 448 418 448 418 401 447.5 c 128,-1,47
 354 477 354 477 295 477 c 0,48,49
 237 477 237 477 189.5 447.5 c 128,-1,50
 142 418 142 418 115 367 c 128,-1,51
 88 316 88 316 88 252 c 0,52,37
 88 189 88 189 115 138 c 128,-1,38
EndSplineSet
EndChar

StartChar: oslash
Encoding: 248 248 399
Width: 597
GlyphClass: 2
Flags: W
AnchorPoint: "Anchor-8" 312 496 basechar 0
AnchorPoint: "Anchor-7" 295 250 basechar 0
AnchorPoint: "Anchor-6" 299 499 basechar 0
AnchorPoint: "Anchor-5" 530 10 basechar 0
AnchorPoint: "Anchor-4" 295 0 basechar 0
LayerCount: 2
Fore
SplineSet
520 361.5 m 128,-1,1
 541 311 541 311 541 252 c 0,2,3
 541 178 541 178 509 118.5 c 128,-1,4
 477 59 477 59 420.5 24.5 c 128,-1,5
 364 -10 364 -10 295 -10 c 0,6,7
 246 -10 246 -10 203 7.5 c 128,-1,8
 160 25 160 25 126 57 c 1,9,-1
 63 -17 l 2,10,11
 57 -25 57 -25 48 -25 c 0,12,13
 40 -25 40 -25 34 -19 c 128,-1,14
 28 -13 28 -13 28 -5 c 256,15,16
 28 3 28 3 33 9 c 2,17,-1
 100 87 l 1,18,19
 48 158 48 158 48 252 c 0,20,21
 48 326 48 326 80.5 386 c 128,-1,22
 113 446 113 446 169 480.5 c 128,-1,23
 225 515 225 515 295 515 c 0,24,25
 371 515 371 515 431 474 c 1,26,-1
 480 531 l 2,27,28
 486 539 486 539 495 539 c 0,29,30
 503 539 503 539 509 533 c 128,-1,31
 515 527 515 527 515 519 c 0,32,33
 515 510 515 510 510 505 c 2,34,-1
 462 449 l 1,35,0
 499 412 499 412 520 361.5 c 128,-1,1
127 118 m 1,37,-1
 406 444 l 1,38,39
 356 477 356 477 295 477 c 0,40,41
 237 477 237 477 189.5 447.5 c 128,-1,42
 142 418 142 418 115 367 c 128,-1,43
 88 316 88 316 88 252 c 0,44,36
 88 176 88 176 127 118 c 1,37,-1
401 57 m 128,-1,46
 448 86 448 86 474.5 137.5 c 128,-1,47
 501 189 501 189 501 252 c 0,48,49
 501 302 501 302 484 345.5 c 128,-1,50
 467 389 467 389 437 419 c 1,51,-1
 152 87 l 1,52,53
 180 59 180 59 217 43.5 c 128,-1,54
 254 28 254 28 295 28 c 0,55,45
 354 28 354 28 401 57 c 128,-1,46
EndSplineSet
EndChar

StartChar: oe
Encoding: 339 339 405
Width: 1001
GlyphClass: 2
Flags: W
AnchorPoint: "Anchor-8" 312 496 basechar 0
AnchorPoint: "Anchor-7" 295 250 basechar 0
AnchorPoint: "Anchor-6" 510 499 basechar 0
AnchorPoint: "Anchor-5" 946 10 basechar 0
AnchorPoint: "Anchor-4" 510 0 basechar 0
LayerCount: 2
Fore
SplineSet
943 114.5 m 128,-1,1
 948 109 948 109 948 102 c 256,2,3
 948 95 948 95 944 90 c 0,4,5
 911 46 911 46 862 18 c 128,-1,6
 813 -10 813 -10 757 -10 c 0,7,8
 673 -10 673 -10 610.5 30.5 c 128,-1,9
 548 71 548 71 520 142 c 1,10,11
 492 73 492 73 432 31.5 c 128,-1,12
 372 -10 372 -10 295 -10 c 0,13,14
 226 -10 226 -10 169.5 24.5 c 128,-1,15
 113 59 113 59 80.5 119 c 128,-1,16
 48 179 48 179 48 252 c 0,17,18
 48 326 48 326 80.5 386 c 128,-1,19
 113 446 113 446 169 480.5 c 128,-1,20
 225 515 225 515 295 515 c 0,21,22
 372 515 372 515 432 473.5 c 128,-1,23
 492 432 492 432 520 362 c 1,24,25
 547 434 547 434 603.5 474.5 c 128,-1,26
 660 515 660 515 727 515 c 0,27,28
 786 515 786 515 836.5 489.5 c 128,-1,29
 887 464 887 464 919 413 c 128,-1,30
 951 362 951 362 953 287 c 0,31,32
 953 279 953 279 947 272.5 c 128,-1,33
 941 266 941 266 933 266 c 2,34,-1
 541 266 l 1,35,-1
 541 252 l 1,36,-1
 541 235 l 1,37,38
 545 177 545 177 571 130 c 128,-1,39
 597 83 597 83 644.5 55.5 c 128,-1,40
 692 28 692 28 757 28 c 0,41,42
 805 28 805 28 847.5 51.5 c 128,-1,43
 890 75 890 75 914 111 c 0,44,45
 922 120 922 120 931 120 c 0,46,0
 938 120 938 120 943 114.5 c 128,-1,1
401 57 m 128,-1,48
 448 86 448 86 474.5 137.5 c 128,-1,49
 501 189 501 189 501 252 c 0,50,51
 501 316 501 316 474.5 367 c 128,-1,52
 448 418 448 418 401 447.5 c 128,-1,53
 354 477 354 477 295 477 c 0,54,55
 237 477 237 477 189.5 447.5 c 128,-1,56
 142 418 142 418 115 367 c 128,-1,57
 88 316 88 316 88 252 c 0,58,59
 88 189 88 189 115 138 c 128,-1,60
 142 87 142 87 189.5 57.5 c 128,-1,61
 237 28 237 28 295 28 c 0,62,47
 354 28 354 28 401 57 c 128,-1,48
651.5 455.5 m 128,-1,64
 613 436 613 436 583.5 397.5 c 128,-1,65
 554 359 554 359 544 304 c 1,66,-1
 912 304 l 1,67,-1
 912 313 l 1,68,69
 907 364 907 364 879.5 400.5 c 128,-1,70
 852 437 852 437 811.5 456 c 128,-1,71
 771 475 771 475 727 475 c 0,72,63
 690 475 690 475 651.5 455.5 c 128,-1,64
EndSplineSet
EndChar

StartChar: p
Encoding: 112 112 406
Width: 595
GlyphClass: 2
Flags: W
AnchorPoint: "Anchor-8" 0 0 basechar 0
AnchorPoint: "Anchor-7" 0 0 basechar 0
AnchorPoint: "Anchor-6" 298 499 basechar 0
AnchorPoint: "Anchor-5" 0 0 basechar 0
AnchorPoint: "Anchor-4" 298 0 basechar 0
LayerCount: 2
Fore
SplineSet
434 472 m 128,-1,1
 487 439 487 439 517 381 c 128,-1,2
 547 323 547 323 547 250 c 0,3,4
 547 178 547 178 516.5 119.5 c 128,-1,5
 486 61 486 61 433 27.5 c 128,-1,6
 380 -6 380 -6 315 -6 c 0,7,8
 255 -6 255 -6 205 24 c 128,-1,9
 155 54 155 54 123 109 c 1,10,-1
 123 -180 l 2,11,12
 123 -188 123 -188 117.5 -194 c 128,-1,13
 112 -200 112 -200 103 -200 c 0,14,15
 95 -200 95 -200 89 -194 c 128,-1,16
 83 -188 83 -188 83 -180 c 2,17,-1
 83 485 l 2,18,19
 83 493 83 493 88.5 499 c 128,-1,20
 94 505 94 505 103 505 c 256,21,22
 112 505 112 505 117.5 499 c 128,-1,23
 123 493 123 493 123 485 c 2,24,-1
 123 393 l 1,25,26
 153 450 153 450 203 477.5 c 128,-1,27
 253 505 253 505 315 505 c 0,28,0
 381 505 381 505 434 472 c 128,-1,1
412 60 m 128,-1,30
 456 88 456 88 481.5 138 c 128,-1,31
 507 188 507 188 507 250 c 256,32,33
 507 312 507 312 481.5 361.5 c 128,-1,34
 456 411 456 411 412 439 c 128,-1,35
 368 467 368 467 313 467 c 0,36,37
 257 467 257 467 212.5 439.5 c 128,-1,38
 168 412 168 412 143.5 362.5 c 128,-1,39
 119 313 119 313 119 250 c 256,40,41
 119 187 119 187 143.5 137.5 c 128,-1,42
 168 88 168 88 212.5 60 c 128,-1,43
 257 32 257 32 313 32 c 0,44,29
 368 32 368 32 412 60 c 128,-1,30
EndSplineSet
EndChar

StartChar: thorn
Encoding: 254 254 407
Width: 595
GlyphClass: 2
Flags: W
AnchorPoint: "Anchor-8" 0 0 basechar 0
AnchorPoint: "Anchor-7" 0 0 basechar 0
AnchorPoint: "Anchor-6" 282 499 basechar 0
AnchorPoint: "Anchor-5" 0 0 basechar 0
AnchorPoint: "Anchor-4" 282 0 basechar 0
LayerCount: 2
Fore
SplineSet
434 472 m 128,-1,1
 487 439 487 439 517 381 c 128,-1,2
 547 323 547 323 547 250 c 0,3,4
 547 178 547 178 516.5 119.5 c 128,-1,5
 486 61 486 61 433 27.5 c 128,-1,6
 380 -6 380 -6 315 -6 c 0,7,8
 255 -6 255 -6 205 24 c 128,-1,9
 155 54 155 54 123 109 c 1,10,-1
 123 -180 l 2,11,12
 123 -188 123 -188 117.5 -194 c 128,-1,13
 112 -200 112 -200 103 -200 c 0,14,15
 95 -200 95 -200 89 -194 c 128,-1,16
 83 -188 83 -188 83 -180 c 2,17,-1
 83 720 l 2,18,19
 83 728 83 728 88.5 734 c 128,-1,20
 94 740 94 740 103 740 c 256,21,22
 112 740 112 740 117.5 734 c 128,-1,23
 123 728 123 728 123 720 c 2,24,-1
 123 393 l 1,25,26
 153 450 153 450 203 477.5 c 128,-1,27
 253 505 253 505 315 505 c 0,28,0
 381 505 381 505 434 472 c 128,-1,1
412 60 m 128,-1,30
 456 88 456 88 481.5 138 c 128,-1,31
 507 188 507 188 507 250 c 256,32,33
 507 312 507 312 481.5 361.5 c 128,-1,34
 456 411 456 411 412 439 c 128,-1,35
 368 467 368 467 313 467 c 0,36,37
 257 467 257 467 212.5 439.5 c 128,-1,38
 168 412 168 412 143.5 362.5 c 128,-1,39
 119 313 119 313 119 250 c 256,40,41
 119 187 119 187 143.5 137.5 c 128,-1,42
 168 88 168 88 212.5 60 c 128,-1,43
 257 32 257 32 313 32 c 0,44,29
 368 32 368 32 412 60 c 128,-1,30
EndSplineSet
EndChar

StartChar: q
Encoding: 113 113 408
Width: 595
GlyphClass: 2
Flags: W
AnchorPoint: "Anchor-8" 0 0 basechar 0
AnchorPoint: "Anchor-7" 0 0 basechar 0
AnchorPoint: "Anchor-6" 298 499 basechar 0
AnchorPoint: "Anchor-5" 0 0 basechar 0
AnchorPoint: "Anchor-4" 298 0 basechar 0
LayerCount: 2
Fore
SplineSet
506.5 499 m 128,-1,1
 512 493 512 493 512 485 c 2,2,-1
 512 -180 l 2,3,4
 512 -188 512 -188 506 -194 c 128,-1,5
 500 -200 500 -200 492 -200 c 0,6,7
 483 -200 483 -200 477.5 -194 c 128,-1,8
 472 -188 472 -188 472 -180 c 2,9,-1
 472 115 l 1,10,11
 448 62 448 62 396 26 c 128,-1,12
 344 -10 344 -10 280 -10 c 0,13,14
 215 -10 215 -10 162 24.5 c 128,-1,15
 109 59 109 59 78.5 119 c 128,-1,16
 48 179 48 179 48 253 c 256,17,18
 48 327 48 327 78.5 387 c 128,-1,19
 109 447 109 447 162 481 c 128,-1,20
 215 515 215 515 280 515 c 0,21,22
 342 515 342 515 395 480 c 128,-1,23
 448 445 448 445 472 389 c 1,24,-1
 472 485 l 2,25,26
 472 493 472 493 477.5 499 c 128,-1,27
 483 505 483 505 492 505 c 256,28,0
 501 505 501 505 506.5 499 c 128,-1,1
382 57 m 128,-1,30
 426 86 426 86 451 137.5 c 128,-1,31
 476 189 476 189 476 253 c 256,32,33
 476 317 476 317 451 368 c 128,-1,34
 426 419 426 419 381.5 448 c 128,-1,35
 337 477 337 477 282 477 c 0,36,37
 228 477 228 477 183.5 448 c 128,-1,38
 139 419 139 419 113.5 367.5 c 128,-1,39
 88 316 88 316 88 253 c 0,40,41
 88 189 88 189 113.5 138 c 128,-1,42
 139 87 139 87 183 57.5 c 128,-1,43
 227 28 227 28 282 28 c 0,44,29
 338 28 338 28 382 57 c 128,-1,30
EndSplineSet
EndChar

StartChar: r
Encoding: 114 114 409
Width: 368
GlyphClass: 2
Flags: W
AnchorPoint: "Anchor-8" 0 0 basechar 0
AnchorPoint: "Anchor-7" 0 0 basechar 0
AnchorPoint: "Anchor-6" 184 499 basechar 0
AnchorPoint: "Anchor-5" 0 0 basechar 0
AnchorPoint: "Anchor-4" 103 0 basechar 0
LayerCount: 2
Fore
SplineSet
355 492 m 0,1,2
 355 483 355 483 350 477 c 128,-1,3
 345 471 345 471 337 471 c 0,4,5
 334 471 334 471 322.5 475.5 c 128,-1,6
 311 480 311 480 298 480 c 0,7,8
 257 480 257 480 216 447.5 c 128,-1,9
 175 415 175 415 149 365.5 c 128,-1,10
 123 316 123 316 123 270 c 2,11,-1
 123 20 l 2,12,13
 123 12 123 12 117 6 c 128,-1,14
 111 0 111 0 103 0 c 0,15,16
 94 0 94 0 88.5 6 c 128,-1,17
 83 12 83 12 83 20 c 2,18,-1
 83 479 l 2,19,20
 83 487 83 487 89 493 c 128,-1,21
 95 499 95 499 103 499 c 0,22,23
 112 499 112 499 117.5 493 c 128,-1,24
 123 487 123 487 123 479 c 2,25,-1
 123 373 l 1,26,27
 146 434 146 434 194.5 474 c 128,-1,28
 243 514 243 514 309 515 c 0,29,0
 355 515 355 515 355 492 c 0,1,2
EndSplineSet
EndChar

StartChar: s
Encoding: 115 115 417
Width: 465
GlyphClass: 2
Flags: W
AnchorPoint: "Anchor-8" 0 0 basechar 0
AnchorPoint: "Anchor-7" 0 0 basechar 0
AnchorPoint: "Anchor-6" 233 499 basechar 0
AnchorPoint: "Anchor-5" 0 0 basechar 0
AnchorPoint: "Anchor-4" 233 0 basechar 0
LayerCount: 2
Fore
SplineSet
48 99 m 0,1,2
 48 106 48 106 56 112 c 0,3,4
 61 117 61 117 68 117 c 0,5,6
 78 117 78 117 84 109 c 0,7,8
 142 26 142 26 246 26 c 0,9,10
 299 26 299 26 339 52.5 c 128,-1,11
 379 79 379 79 379 124 c 0,12,13
 379 170 379 170 344 193 c 128,-1,14
 309 216 309 216 248 231 c 0,15,16
 167 251 167 251 120.5 284.5 c 128,-1,17
 74 318 74 318 74 379 c 0,18,19
 74 438 74 438 121 476.5 c 128,-1,20
 168 515 168 515 242 515 c 0,21,22
 283 515 283 515 323.5 499 c 128,-1,23
 364 483 364 483 397 448 c 0,24,25
 404 442 404 442 404 434 c 0,26,27
 404 425 404 425 397 418 c 0,28,29
 389 414 389 414 384 414 c 0,30,31
 377 414 377 414 372 420 c 0,32,33
 320 477 320 477 238 477 c 0,34,35
 185 477 185 477 148.5 451 c 128,-1,36
 112 425 112 425 112 379 c 0,37,38
 115 336 115 336 151.5 312.5 c 128,-1,39
 188 289 188 289 259 271 c 0,40,41
 310 258 310 258 343.5 242.5 c 128,-1,42
 377 227 377 227 397 199 c 128,-1,43
 417 171 417 171 417 126 c 0,44,45
 417 63 417 63 368.5 26.5 c 128,-1,46
 320 -10 320 -10 242 -10 c 0,47,48
 128 -10 128 -10 55 80 c 0,49,0
 48 91 48 91 48 99 c 0,1,2
EndSplineSet
EndChar

StartChar: scedilla
Encoding: 351 351 422
Width: 465
GlyphClass: 2
Flags: W
AnchorPoint: "Anchor-8" 0 0 basechar 0
AnchorPoint: "Anchor-7" 0 0 basechar 0
AnchorPoint: "Anchor-6" 0 0 basechar 0
AnchorPoint: "Anchor-5" 0 0 basechar 0
AnchorPoint: "Anchor-4" 233 -141 basechar 0
LayerCount: 2
Fore
SplineSet
382 38.5 m 128,-1,1
 347 4 347 4 287 -6 c 1,2,-1
 228 -126 l 2,3,4
 221 -141 221 -141 207 -141 c 0,5,6
 198 -141 198 -141 185 -133 c 128,-1,7
 172 -125 172 -125 172 -114 c 0,8,9
 172 -105 172 -105 177 -100 c 2,10,-1
 251 -10 l 1,11,-1
 242 -10 l 2,12,13
 128 -10 128 -10 55 80 c 0,14,15
 48 91 48 91 48 99 c 0,16,17
 48 106 48 106 56 112 c 0,18,19
 61 117 61 117 68 117 c 0,20,21
 78 117 78 117 84 109 c 0,22,23
 142 26 142 26 246 26 c 0,24,25
 299 26 299 26 339 52.5 c 128,-1,26
 379 79 379 79 379 124 c 0,27,28
 379 170 379 170 344 193 c 128,-1,29
 309 216 309 216 248 231 c 0,30,31
 167 251 167 251 120.5 284.5 c 128,-1,32
 74 318 74 318 74 379 c 0,33,34
 74 438 74 438 121 476.5 c 128,-1,35
 168 515 168 515 242 515 c 0,36,37
 283 515 283 515 323.5 499 c 128,-1,38
 364 483 364 483 397 448 c 0,39,40
 404 442 404 442 404 434 c 0,41,42
 404 425 404 425 397 418 c 0,43,44
 389 414 389 414 384 414 c 0,45,46
 377 414 377 414 372 420 c 0,47,48
 320 477 320 477 238 477 c 0,49,50
 185 477 185 477 148.5 451 c 128,-1,51
 112 425 112 425 112 379 c 0,52,53
 115 336 115 336 151.5 312.5 c 128,-1,54
 188 289 188 289 259 271 c 0,55,56
 310 258 310 258 343.5 242.5 c 128,-1,57
 377 227 377 227 397 199 c 128,-1,58
 417 171 417 171 417 126 c 0,59,0
 417 73 417 73 382 38.5 c 128,-1,1
EndSplineSet
Substitution2: "'locl' Localized Forms in Latin lookup 2 subtable" uni0219
Substitution2: "'locl' Localized Forms in Latin lookup 1 subtable" uni0219
EndChar

StartChar: germandbls
Encoding: 223 223 428
Width: 586
Flags: W
LayerCount: 2
Fore
SplineSet
492.5 386.5 m 128,-1,1
 538 324 538 324 538 237 c 0,2,3
 538 167 538 167 508 110.5 c 128,-1,4
 478 54 478 54 428 22 c 128,-1,5
 378 -10 378 -10 319 -10 c 0,6,7
 261 -10 261 -10 235 6 c 0,8,9
 222 13 222 13 222 24 c 0,10,11
 222 30 222 30 225 34 c 0,12,13
 231 45 231 45 241 45 c 0,14,15
 247 45 247 45 255 40 c 0,16,17
 281 25 281 25 319 25 c 0,18,19
 364 25 364 25 405 51 c 128,-1,20
 446 77 446 77 472 124.5 c 128,-1,21
 498 172 498 172 498 232 c 0,22,23
 498 327 498 327 446.5 379 c 128,-1,24
 395 431 395 431 323 447 c 0,25,26
 313 449 313 449 307.5 456 c 128,-1,27
 302 463 302 463 302 471 c 0,28,29
 302 477 302 477 306.5 483 c 128,-1,30
 311 489 311 489 319 491 c 0,31,32
 366 500 366 500 389.5 530.5 c 128,-1,33
 413 561 413 561 413 589 c 0,34,35
 413 629 413 629 381 657.5 c 128,-1,36
 349 686 349 686 294 686 c 0,37,38
 214 686 214 686 177 627.5 c 128,-1,39
 140 569 140 569 140 493 c 2,40,-1
 138 20 l 2,41,42
 138 0 138 0 118 0 c 256,43,44
 98 0 98 0 98 20 c 2,45,-1
 100 465 l 1,46,-1
 47 465 l 2,47,48
 40 465 40 465 34 471 c 128,-1,49
 28 477 28 477 28 484 c 0,50,51
 28 492 28 492 33.5 497.5 c 128,-1,52
 39 503 39 503 47 503 c 2,53,-1
 100 503 l 1,54,55
 102 556 102 556 121.5 607 c 128,-1,56
 141 658 141 658 184 692 c 128,-1,57
 227 726 227 726 294 726 c 0,58,59
 371 726 371 726 412 686.5 c 128,-1,60
 453 647 453 647 453 591 c 0,61,62
 453 562 453 562 433 525 c 128,-1,63
 413 488 413 488 373 473 c 1,64,0
 447 449 447 449 492.5 386.5 c 128,-1,1
EndSplineSet
EndChar

StartChar: t
Encoding: 116 116 429
Width: 316
GlyphClass: 2
Flags: W
AnchorPoint: "Anchor-8" 296 499 basechar 0
AnchorPoint: "Anchor-7" 158 250 basechar 0
AnchorPoint: "Anchor-6" 141 650 basechar 0
AnchorPoint: "Anchor-5" 0 0 basechar 0
AnchorPoint: "Anchor-4" 158 0 basechar 0
LayerCount: 2
Fore
SplineSet
282 497 m 128,-1,1
 288 491 288 491 288 484 c 0,2,3
 288 476 288 476 282.5 470.5 c 128,-1,4
 277 465 277 465 269 465 c 2,5,-1
 159 465 l 1,6,-1
 159 109 l 2,7,8
 159 65 159 65 174.5 50.5 c 128,-1,9
 190 36 190 36 214 36 c 0,10,11
 218 36 218 36 225.5 38 c 128,-1,12
 233 40 233 40 238 40 c 0,13,14
 245 40 245 40 250 34.5 c 128,-1,15
 255 29 255 29 255 22 c 0,16,17
 255 13 255 13 243 6.5 c 128,-1,18
 231 0 231 0 215 0 c 0,19,20
 190 0 190 0 173 3.5 c 128,-1,21
 156 7 156 7 137.5 30.5 c 128,-1,22
 119 54 119 54 119 107 c 2,23,-1
 119 465 l 1,24,-1
 37 465 l 2,25,26
 30 465 30 465 24 471 c 128,-1,27
 18 477 18 477 18 484 c 0,28,29
 18 492 18 492 23.5 497.5 c 128,-1,30
 29 503 29 503 37 503 c 2,31,-1
 119 503 l 1,32,-1
 119 630 l 2,33,34
 119 638 119 638 125 644 c 128,-1,35
 131 650 131 650 139 650 c 0,36,37
 148 650 148 650 153.5 644 c 128,-1,38
 159 638 159 638 159 630 c 2,39,-1
 159 503 l 1,40,-1
 269 503 l 2,41,0
 276 503 276 503 282 497 c 128,-1,1
EndSplineSet
EndChar

StartChar: tbar
Encoding: 359 359 430
Width: 316
GlyphClass: 2
Flags: W
AnchorPoint: "Anchor-8" 296 499 basechar 0
AnchorPoint: "Anchor-7" 158 250 basechar 0
AnchorPoint: "Anchor-6" 141 650 basechar 0
AnchorPoint: "Anchor-5" 0 0 basechar 0
AnchorPoint: "Anchor-4" 158 0 basechar 0
LayerCount: 2
Fore
SplineSet
282 497 m 128,-1,1
 288 491 288 491 288 484 c 0,2,3
 288 476 288 476 282.5 470.5 c 128,-1,4
 277 465 277 465 269 465 c 2,5,-1
 159 465 l 1,6,-1
 159 270 l 1,7,-1
 238 270 l 2,8,9
 258 270 258 270 258 250 c 0,10,11
 258 232 258 232 238 232 c 2,12,-1
 159 232 l 1,13,-1
 159 109 l 2,14,15
 159 65 159 65 174.5 50.5 c 128,-1,16
 190 36 190 36 214 36 c 0,17,18
 218 36 218 36 225.5 38 c 128,-1,19
 233 40 233 40 238 40 c 0,20,21
 245 40 245 40 250 34.5 c 128,-1,22
 255 29 255 29 255 22 c 0,23,24
 255 13 255 13 243 6.5 c 128,-1,25
 231 0 231 0 215 0 c 0,26,27
 190 0 190 0 173 3.5 c 128,-1,28
 156 7 156 7 137.5 30.5 c 128,-1,29
 119 54 119 54 119 107 c 2,30,-1
 119 232 l 1,31,-1
 78 232 l 2,32,33
 58 232 58 232 58 251 c 256,34,35
 58 270 58 270 78 270 c 2,36,-1
 119 270 l 1,37,-1
 119 465 l 1,38,-1
 37 465 l 2,39,40
 30 465 30 465 24 471 c 128,-1,41
 18 477 18 477 18 484 c 0,42,43
 18 492 18 492 23.5 497.5 c 128,-1,44
 29 503 29 503 37 503 c 2,45,-1
 119 503 l 1,46,-1
 119 630 l 2,47,48
 119 638 119 638 125 644 c 128,-1,49
 131 650 131 650 139 650 c 0,50,51
 148 650 148 650 153.5 644 c 128,-1,52
 159 638 159 638 159 630 c 2,53,-1
 159 503 l 1,54,-1
 269 503 l 2,55,0
 276 503 276 503 282 497 c 128,-1,1
EndSplineSet
EndChar

StartChar: uni0163
Encoding: 355 355 432
Width: 316
GlyphClass: 2
Flags: W
AnchorPoint: "Anchor-8" 296 499 basechar 0
AnchorPoint: "Anchor-7" 158 250 basechar 0
AnchorPoint: "Anchor-6" 0 0 basechar 0
AnchorPoint: "Anchor-5" 0 0 basechar 0
AnchorPoint: "Anchor-4" 158 -141 basechar 0
LayerCount: 2
Fore
SplineSet
282 497 m 128,-1,1
 288 491 288 491 288 484 c 0,2,3
 288 476 288 476 282.5 470.5 c 128,-1,4
 277 465 277 465 269 465 c 2,5,-1
 159 465 l 1,6,-1
 159 109 l 2,7,8
 159 65 159 65 174.5 50.5 c 128,-1,9
 190 36 190 36 214 36 c 0,10,11
 218 36 218 36 225.5 38 c 128,-1,12
 233 40 233 40 238 40 c 0,13,14
 245 40 245 40 250 34.5 c 128,-1,15
 255 29 255 29 255 22 c 0,16,17
 255 13 255 13 243 6.5 c 128,-1,18
 231 0 231 0 215 0 c 1,19,-1
 153 -126 l 2,20,21
 146 -141 146 -141 132 -141 c 0,22,23
 123 -141 123 -141 110 -133 c 128,-1,24
 97 -125 97 -125 97 -114 c 0,25,26
 97 -105 97 -105 102 -100 c 2,27,-1
 185 1 l 1,28,29
 119 12 119 12 119 107 c 2,30,-1
 119 465 l 1,31,-1
 37 465 l 2,32,33
 30 465 30 465 24 471 c 128,-1,34
 18 477 18 477 18 484 c 0,35,36
 18 492 18 492 23.5 497.5 c 128,-1,37
 29 503 29 503 37 503 c 2,38,-1
 119 503 l 1,39,-1
 119 630 l 2,40,41
 119 638 119 638 125 644 c 128,-1,42
 131 650 131 650 139 650 c 0,43,44
 148 650 148 650 153.5 644 c 128,-1,45
 159 638 159 638 159 630 c 2,46,-1
 159 503 l 1,47,-1
 269 503 l 2,48,0
 276 503 276 503 282 497 c 128,-1,1
EndSplineSet
Substitution2: "'locl' Localized Forms in Latin lookup 2 subtable" uni021B
Substitution2: "'locl' Localized Forms in Latin lookup 1 subtable" uni021B
EndChar

StartChar: u
Encoding: 117 117 437
Width: 563
GlyphClass: 2
Flags: W
AnchorPoint: "Anchor-8" 384 496 basechar 0
AnchorPoint: "Anchor-7" 0 0 basechar 0
AnchorPoint: "Anchor-6" 282 499 basechar 0
AnchorPoint: "Anchor-5" 507 10 basechar 0
AnchorPoint: "Anchor-4" 282 0 basechar 0
LayerCount: 2
Fore
SplineSet
474.5 493 m 128,-1,1
 480 487 480 487 480 479 c 2,2,-1
 480 188 l 2,3,4
 480 93 480 93 426.5 43.5 c 128,-1,5
 373 -6 373 -6 281 -6 c 256,6,7
 189 -6 189 -6 136 43.5 c 128,-1,8
 83 93 83 93 83 188 c 2,9,-1
 83 479 l 2,10,11
 83 487 83 487 89 493 c 128,-1,12
 95 499 95 499 103 499 c 0,13,14
 112 499 112 499 117.5 493 c 128,-1,15
 123 487 123 487 123 479 c 2,16,-1
 123 188 l 2,17,18
 123 113 123 113 165 72.5 c 128,-1,19
 207 32 207 32 281 32 c 0,20,21
 356 32 356 32 398 72.5 c 128,-1,22
 440 113 440 113 440 188 c 2,23,-1
 440 479 l 2,24,25
 440 487 440 487 445.5 493 c 128,-1,26
 451 499 451 499 460 499 c 256,27,0
 469 499 469 499 474.5 493 c 128,-1,1
EndSplineSet
EndChar

StartChar: uhorn
Encoding: 432 432 447
Width: 563
GlyphClass: 2
Flags: W
AnchorPoint: "Anchor-8" 384 496 basechar 0
AnchorPoint: "Anchor-7" 0 0 basechar 0
AnchorPoint: "Anchor-6" 300 499 basechar 0
AnchorPoint: "Anchor-5" 507 10 basechar 0
AnchorPoint: "Anchor-4" 300 0 basechar 0
LayerCount: 2
Fore
SplineSet
561 499 m 128,-1,1
 531 468 531 468 480 462 c 1,2,-1
 480 188 l 2,3,4
 480 93 480 93 426.5 43.5 c 128,-1,5
 373 -6 373 -6 281 -6 c 256,6,7
 189 -6 189 -6 136 43.5 c 128,-1,8
 83 93 83 93 83 188 c 2,9,-1
 83 479 l 2,10,11
 83 487 83 487 89 493 c 128,-1,12
 95 499 95 499 103 499 c 0,13,14
 112 499 112 499 117.5 493 c 128,-1,15
 123 487 123 487 123 479 c 2,16,-1
 123 188 l 2,17,18
 123 113 123 113 165 72.5 c 128,-1,19
 207 32 207 32 281 32 c 0,20,21
 356 32 356 32 398 72.5 c 128,-1,22
 440 113 440 113 440 188 c 2,23,-1
 440 479 l 2,24,25
 440 487 440 487 445 492.5 c 128,-1,26
 450 498 450 498 458 499 c 0,27,28
 509 499 509 499 532 518 c 128,-1,29
 555 537 555 537 555 581 c 0,30,31
 555 594 555 594 559.5 602.5 c 128,-1,32
 564 611 564 611 573 611 c 0,33,34
 591 611 591 611 591 581 c 0,35,0
 591 530 591 530 561 499 c 128,-1,1
EndSplineSet
EndChar

StartChar: uogonek
Encoding: 371 371 457
Width: 563
Flags: W
LayerCount: 2
Fore
SplineSet
353 -5 m 128,-1,1
 338 -16 338 -16 327.5 -34 c 128,-1,2
 317 -52 317 -52 317 -80 c 0,3,4
 317 -111 317 -111 336.5 -129.5 c 128,-1,5
 356 -148 356 -148 382 -148 c 0,6,7
 403 -148 403 -148 415 -136 c 0,8,9
 418 -133 418 -133 423.5 -127.5 c 128,-1,10
 429 -122 429 -122 435 -122 c 256,11,12
 441 -122 441 -122 445 -126 c 128,-1,13
 449 -130 449 -130 449 -136 c 0,14,15
 449 -156 449 -156 428.5 -170.5 c 128,-1,16
 408 -185 408 -185 377 -185 c 0,17,18
 338 -185 338 -185 308.5 -158 c 128,-1,19
 279 -131 279 -131 279 -88 c 0,20,21
 279 -36 279 -36 308 -5 c 1,22,23
 299 -6 299 -6 281 -6 c 0,24,25
 189 -6 189 -6 136 43.5 c 128,-1,26
 83 93 83 93 83 188 c 2,27,-1
 83 479 l 2,28,29
 83 487 83 487 89 493 c 128,-1,30
 95 499 95 499 103 499 c 0,31,32
 112 499 112 499 117.5 493 c 128,-1,33
 123 487 123 487 123 479 c 2,34,-1
 123 188 l 2,35,36
 123 113 123 113 165 72.5 c 128,-1,37
 207 32 207 32 281 32 c 0,38,39
 356 32 356 32 398 72.5 c 128,-1,40
 440 113 440 113 440 188 c 2,41,-1
 440 479 l 2,42,43
 440 487 440 487 445.5 493 c 128,-1,44
 451 499 451 499 460 499 c 256,45,46
 469 499 469 499 474.5 493 c 128,-1,47
 480 487 480 487 480 479 c 2,48,-1
 480 188 l 2,49,50
 480 128 480 128 458.5 85 c 128,-1,51
 437 42 437 42 396 20 c 0,52,0
 368 6 368 6 353 -5 c 128,-1,1
EndSplineSet
EndChar

StartChar: v
Encoding: 118 118 461
Width: 518
GlyphClass: 2
Flags: W
AnchorPoint: "Anchor-8" 0 0 basechar 0
AnchorPoint: "Anchor-7" 0 0 basechar 0
AnchorPoint: "Anchor-6" 259 499 basechar 0
AnchorPoint: "Anchor-5" 0 0 basechar 0
AnchorPoint: "Anchor-4" 259 0 basechar 0
LayerCount: 2
Fore
SplineSet
473.5 512.5 m 128,-1,1
 480 508 480 508 480 501 c 0,2,3
 480 495 480 495 477 489 c 2,4,-1
 278 13 l 2,5,6
 276 7 276 7 270.5 3.5 c 128,-1,7
 265 0 265 0 259 0 c 256,8,9
 253 0 253 0 247.5 3.5 c 128,-1,10
 242 7 242 7 240 13 c 2,11,-1
 40 488 l 2,12,13
 38 494 38 494 38 497 c 0,14,15
 38 505 38 505 43.5 511 c 128,-1,16
 49 517 49 517 59 517 c 0,17,18
 64 517 64 517 69.5 513.5 c 128,-1,19
 75 510 75 510 77 504 c 2,20,-1
 258 69 l 1,21,-1
 440 504 l 2,22,23
 445 517 445 517 461 517 c 0,24,0
 467 517 467 517 473.5 512.5 c 128,-1,1
EndSplineSet
EndChar

StartChar: w
Encoding: 119 119 462
Width: 746
GlyphClass: 2
Flags: W
AnchorPoint: "Anchor-8" 0 0 basechar 0
AnchorPoint: "Anchor-7" 0 0 basechar 0
AnchorPoint: "Anchor-6" 373 479 basechar 0
AnchorPoint: "Anchor-5" 0 0 basechar 0
AnchorPoint: "Anchor-4" 373 0 basechar 0
LayerCount: 2
Fore
SplineSet
702 512 m 128,-1,1
 708 507 708 507 708 498 c 2,2,-1
 706 488 l 1,3,-1
 551 13 l 2,4,5
 545 0 545 0 532 0 c 0,6,7
 520 0 520 0 513 13 c 2,8,-1
 368 340 l 1,9,-1
 238 13 l 2,10,11
 236 7 236 7 230.5 3.5 c 128,-1,12
 225 0 225 0 219 0 c 256,13,14
 213 0 213 0 207.5 3.5 c 128,-1,15
 202 7 202 7 200 13 c 2,16,-1
 40 488 l 1,17,-1
 38 498 l 2,18,19
 38 507 38 507 44 512 c 128,-1,20
 50 517 50 517 59 517 c 0,21,22
 72 517 72 517 77 504 c 2,23,-1
 218 68 l 1,24,-1
 351 397 l 2,25,26
 353 403 353 403 358.5 406.5 c 128,-1,27
 364 410 364 410 370 410 c 256,28,29
 376 410 376 410 381.5 406.5 c 128,-1,30
 387 403 387 403 389 397 c 2,31,-1
 530 71 l 1,32,-1
 669 504 l 2,33,34
 674 517 674 517 687 517 c 0,35,0
 696 517 696 517 702 512 c 128,-1,1
EndSplineSet
EndChar

StartChar: x
Encoding: 120 120 467
Width: 483
GlyphClass: 2
Flags: W
AnchorPoint: "Anchor-8" 0 0 basechar 0
AnchorPoint: "Anchor-7" 0 0 basechar 0
AnchorPoint: "Anchor-6" 242 499 basechar 0
AnchorPoint: "Anchor-5" 0 0 basechar 0
AnchorPoint: "Anchor-4" 242 0 basechar 0
LayerCount: 2
Fore
SplineSet
438 28 m 2,0,1
 442 23 442 23 442 16 c 0,2,3
 442 8 442 8 436.5 2 c 128,-1,4
 431 -4 431 -4 423 -4 c 0,5,6
 414 -4 414 -4 406 5 c 2,7,-1
 242 219 l 1,8,-1
 77 4 l 2,9,10
 71 -4 71 -4 61 -4 c 0,11,12
 53 -4 53 -4 47.5 1 c 128,-1,13
 42 6 42 6 42 15 c 0,14,15
 42 22 42 22 46 27 c 2,16,-1
 218 250 l 1,17,-1
 44 477 l 2,18,19
 40 482 40 482 40 489 c 0,20,21
 40 498 40 498 46.5 504 c 128,-1,22
 53 510 53 510 61 510 c 0,23,24
 71 510 71 510 77 501 c 2,25,-1
 243 284 l 1,26,-1
 406 501 l 2,27,28
 414 510 414 510 423 510 c 256,29,30
 432 510 432 510 437 505 c 128,-1,31
 442 500 442 500 442 493 c 0,32,33
 442 487 442 487 437 480 c 2,34,-1
 267 252 l 1,35,-1
 438 28 l 2,0,1
EndSplineSet
EndChar

StartChar: y
Encoding: 121 121 468
Width: 562
GlyphClass: 2
Flags: W
AnchorPoint: "Anchor-8" 0 0 basechar 0
AnchorPoint: "Anchor-7" 0 0 basechar 0
AnchorPoint: "Anchor-6" 281 499 basechar 0
AnchorPoint: "Anchor-5" 0 0 basechar 0
AnchorPoint: "Anchor-4" 281 0 basechar 0
LayerCount: 2
Fore
SplineSet
473.5 509 m 128,-1,1
 479 503 479 503 479 495 c 2,2,-1
 479 49 l 2,3,4
 479 -26 479 -26 448.5 -82.5 c 128,-1,5
 418 -139 418 -139 364.5 -169.5 c 128,-1,6
 311 -200 311 -200 243 -200 c 0,7,8
 199 -200 199 -200 162.5 -189.5 c 128,-1,9
 126 -179 126 -179 101 -162 c 0,10,11
 83 -150 83 -150 90 -135 c 0,12,13
 97 -123 97 -123 107 -123 c 0,14,15
 112 -123 112 -123 116 -126 c 0,16,17
 140 -141 140 -141 173.5 -152.5 c 128,-1,18
 207 -164 207 -164 245 -164 c 0,19,20
 302 -164 302 -164 346 -137 c 128,-1,21
 390 -110 390 -110 414.5 -61.5 c 128,-1,22
 439 -13 439 -13 439 49 c 2,23,-1
 439 94 l 1,24,25
 416 49 416 49 365.5 19.5 c 128,-1,26
 315 -10 315 -10 261 -10 c 0,27,28
 171 -10 171 -10 127 41.5 c 128,-1,29
 83 93 83 93 83 183 c 2,30,-1
 83 495 l 2,31,32
 83 503 83 503 88.5 509 c 128,-1,33
 94 515 94 515 103 515 c 256,34,35
 112 515 112 515 117.5 509 c 128,-1,36
 123 503 123 503 123 495 c 2,37,-1
 123 183 l 2,38,39
 123 28 123 28 261 28 c 0,40,41
 304 28 304 28 345.5 50.5 c 128,-1,42
 387 73 387 73 413 109 c 128,-1,43
 439 145 439 145 439 183 c 2,44,-1
 439 495 l 2,45,46
 439 503 439 503 444.5 509 c 128,-1,47
 450 515 450 515 459 515 c 256,48,0
 468 515 468 515 473.5 509 c 128,-1,1
EndSplineSet
EndChar

StartChar: z
Encoding: 122 122 478
Width: 477
GlyphClass: 2
Flags: W
AnchorPoint: "Anchor-8" 0 0 basechar 0
AnchorPoint: "Anchor-7" 0 0 basechar 0
AnchorPoint: "Anchor-6" 262 499 basechar 0
AnchorPoint: "Anchor-5" 0 0 basechar 0
AnchorPoint: "Anchor-4" 234 0 basechar 0
LayerCount: 2
Fore
SplineSet
422 481 m 2,1,-1
 106 38 l 1,2,-1
 397 38 l 2,3,4
 405 38 405 38 411 32 c 128,-1,5
 417 26 417 26 417 19 c 0,6,7
 417 11 417 11 411 5.5 c 128,-1,8
 405 0 405 0 397 0 c 2,9,-1
 71 0 l 2,10,11
 62 0 62 0 56 7 c 128,-1,12
 50 14 50 14 50 20 c 256,13,14
 50 26 50 26 55 33 c 2,15,-1
 371 477 l 1,16,-1
 101 477 l 2,17,18
 93 477 93 477 87 482.5 c 128,-1,19
 81 488 81 488 81 496 c 256,20,21
 81 504 81 504 87 509.5 c 128,-1,22
 93 515 93 515 101 515 c 2,23,-1
 407 515 l 2,24,25
 415 515 415 515 420.5 509 c 128,-1,26
 426 503 426 503 427 495 c 0,27,0
 427 488 427 488 422 481 c 2,1,-1
EndSplineSet
EndChar

StartChar: a.ss01
Encoding: 65540 -1 484
Width: 529
GlyphClass: 2
Flags: W
AnchorPoint: "Anchor-8" 0 0 basechar 0
AnchorPoint: "Anchor-7" 0 0 basechar 0
AnchorPoint: "Anchor-6" 265 515 basechar 0
AnchorPoint: "Anchor-5" 503 0 basechar 0
AnchorPoint: "Anchor-4" 258 0 basechar 0
LayerCount: 2
Fore
SplineSet
519 44.5 m 128,-1,1
 524 39 524 39 524 32 c 0,2,3
 524 20 524 20 501 10 c 128,-1,4
 478 0 478 0 454 0 c 0,5,6
 431 0 431 0 414.5 16.5 c 128,-1,7
 398 33 398 33 389 58 c 1,8,9
 334 -10 334 -10 221 -10 c 0,10,11
 170 -10 170 -10 131.5 11.5 c 128,-1,12
 93 33 93 33 72.5 68.5 c 128,-1,13
 52 104 52 104 52 146 c 0,14,15
 52 193 52 193 79 229 c 128,-1,16
 106 265 106 265 149 284.5 c 128,-1,17
 192 304 192 304 239 304 c 0,18,19
 283 304 283 304 324 286.5 c 128,-1,20
 365 269 365 269 388 241 c 1,21,-1
 388 362 l 2,22,23
 388 419 388 419 348 448 c 128,-1,24
 308 477 308 477 246 477 c 0,25,26
 200 477 200 477 155.5 454.5 c 128,-1,27
 111 432 111 432 88 398 c 0,28,29
 81 389 81 389 71 389 c 0,30,31
 64 389 64 389 59 394.5 c 128,-1,32
 54 400 54 400 54 407 c 256,33,34
 54 414 54 414 58 419 c 0,35,36
 87 464 87 464 139 489.5 c 128,-1,37
 191 515 191 515 249 515 c 0,38,39
 332 515 332 515 380 480 c 128,-1,40
 428 445 428 445 428 365 c 2,41,-1
 428 85 l 2,42,43
 428 61 428 61 438.5 48.5 c 128,-1,44
 449 36 449 36 463 36 c 0,45,46
 473 36 473 36 484 43 c 0,47,48
 486 44 486 44 493 47 c 128,-1,49
 500 50 500 50 507 50 c 256,50,0
 514 50 514 50 519 44.5 c 128,-1,1
350 60.5 m 128,-1,52
 391 93 391 93 391 148 c 256,53,54
 391 203 391 203 349.5 234.5 c 128,-1,55
 308 266 308 266 241 266 c 0,56,57
 176 266 176 266 134 234 c 128,-1,58
 92 202 92 202 92 148 c 0,59,60
 92 93 92 93 134 60.5 c 128,-1,61
 176 28 176 28 242 28 c 0,62,51
 309 28 309 28 350 60.5 c 128,-1,52
EndSplineSet
EndChar

StartChar: aogonek.ss01
Encoding: 65562 -1 506
Width: 507
GlyphClass: 2
Flags: W
AnchorPoint: "Anchor-8" 0 0 basechar 0
AnchorPoint: "Anchor-7" 0 0 basechar 0
AnchorPoint: "Anchor-6" 226 515 basechar 0
AnchorPoint: "Anchor-5" 501 0 basechar 0
AnchorPoint: "Anchor-4" 256 0 basechar 0
LayerCount: 2
Fore
SplineSet
501 -136 m 128,-1,1
 505 -140 505 -140 505 -146 c 0,2,3
 505 -166 505 -166 484.5 -180.5 c 128,-1,4
 464 -195 464 -195 433 -195 c 0,5,6
 398 -195 398 -195 371.5 -169 c 128,-1,7
 345 -143 345 -143 345 -103 c 256,8,9
 345 -63 345 -63 367.5 -36 c 128,-1,10
 390 -9 390 -9 423 4 c 1,11,12
 390 14 390 14 387 54 c 1,13,14
 365 23 365 23 326 6.5 c 128,-1,15
 287 -10 287 -10 239 -10 c 0,16,17
 157 -10 157 -10 110 33 c 128,-1,18
 63 76 63 76 63 145 c 0,19,20
 63 193 63 193 90 229 c 128,-1,21
 117 265 117 265 160.5 284.5 c 128,-1,22
 204 304 204 304 253 304 c 0,23,24
 293 304 293 304 329 289.5 c 128,-1,25
 365 275 365 275 386 249 c 1,26,-1
 386 362 l 2,27,28
 386 430 386 430 348.5 453.5 c 128,-1,29
 311 477 311 477 246 477 c 0,30,31
 201 477 201 477 160 455 c 128,-1,32
 119 433 119 433 96 398 c 0,33,34
 89 389 89 389 79 389 c 0,35,36
 72 389 72 389 67 394.5 c 128,-1,37
 62 400 62 400 62 407 c 256,38,39
 62 414 62 414 66 419 c 0,40,41
 95 464 95 464 143.5 489.5 c 128,-1,42
 192 515 192 515 249 515 c 0,43,44
 331 515 331 515 378.5 482.5 c 128,-1,45
 426 450 426 450 426 365 c 2,46,-1
 426 69 l 2,47,48
 426 49 426 49 435.5 42.5 c 128,-1,49
 445 36 445 36 461 36 c 0,50,51
 465 36 465 36 472.5 38 c 128,-1,52
 480 40 480 40 485 40 c 0,53,54
 492 40 492 40 497 34.5 c 128,-1,55
 502 29 502 29 502 22 c 256,56,57
 502 15 502 15 497 11.5 c 128,-1,58
 492 8 492 8 483.5 5 c 128,-1,59
 475 2 475 2 470 -1 c 0,60,61
 433 -19 433 -19 408 -41.5 c 128,-1,62
 383 -64 383 -64 383 -95 c 0,63,64
 383 -124 383 -124 399.5 -141 c 128,-1,65
 416 -158 416 -158 438 -158 c 0,66,67
 462 -158 462 -158 470 -147 c 0,68,69
 480 -132 480 -132 491 -132 c 0,70,0
 497 -132 497 -132 501 -136 c 128,-1,1
350.5 60.5 m 128,-1,72
 389 93 389 93 389 148 c 256,73,74
 389 203 389 203 353 234.5 c 128,-1,75
 317 266 317 266 255 266 c 0,76,77
 188 266 188 266 149 234.5 c 128,-1,78
 110 203 110 203 110 148 c 0,79,80
 110 92 110 92 147 60 c 128,-1,81
 184 28 184 28 250 28 c 0,82,71
 312 28 312 28 350.5 60.5 c 128,-1,72
EndSplineSet
EndChar

StartChar: g.ss01
Encoding: 65566 -1 510
Width: 520
GlyphClass: 2
Flags: W
AnchorPoint: "Anchor-8" 0 0 basechar 0
AnchorPoint: "Anchor-7" 0 0 basechar 0
AnchorPoint: "Anchor-6" 230 499 basechar 0
AnchorPoint: "Anchor-5" 0 0 basechar 0
AnchorPoint: "Anchor-4" 216 0 basechar 0
LayerCount: 2
Fore
SplineSet
495.5 479.5 m 128,-1,1
 492 474 492 474 483 466 c 2,2,-1
 415 410 l 1,3,4
 434 370 434 370 434 327 c 0,5,6
 434 266 434 266 400 219.5 c 128,-1,7
 366 173 366 173 309 153 c 1,8,9
 394 138 394 138 440.5 93.5 c 128,-1,10
 487 49 487 49 487 -15 c 0,11,12
 487 -72 487 -72 451.5 -114 c 128,-1,13
 416 -156 416 -156 355 -178 c 128,-1,14
 294 -200 294 -200 220 -200 c 0,15,16
 162 -200 162 -200 119.5 -185.5 c 128,-1,17
 77 -171 77 -171 55.5 -152 c 128,-1,18
 34 -133 34 -133 34 -121 c 0,19,20
 34 -111 34 -111 40 -104.5 c 128,-1,21
 46 -98 46 -98 55 -98 c 0,22,23
 62 -98 62 -98 69.5 -104.5 c 128,-1,24
 77 -111 77 -111 87 -123 c 0,25,26
 100 -138 100 -138 140 -150 c 128,-1,27
 180 -162 180 -162 223 -162 c 0,28,29
 324 -162 324 -162 385.5 -124 c 128,-1,30
 447 -86 447 -86 447 -15 c 0,31,32
 447 23 447 23 422.5 55 c 128,-1,33
 398 87 398 87 345 106.5 c 128,-1,34
 292 126 292 126 211 126 c 0,35,36
 174 126 174 126 168 145 c 2,37,-1
 166 149 l 1,38,39
 105 167 105 167 67.5 214.5 c 128,-1,40
 30 262 30 262 30 327 c 0,41,42
 30 381 30 381 56.5 424 c 128,-1,43
 83 467 83 467 129 491 c 128,-1,44
 175 515 175 515 232 515 c 0,45,46
 283 515 283 515 326.5 494.5 c 128,-1,47
 370 474 370 474 397 438 c 1,48,-1
 446 497 l 2,49,50
 454 507 454 507 460 511 c 128,-1,51
 466 515 466 515 476 515 c 0,52,53
 485 515 485 515 492 508 c 128,-1,54
 499 501 499 501 499 492 c 0,55,0
 499 485 499 485 495.5 479.5 c 128,-1,1
350 215.5 m 128,-1,57
 396 257 396 257 396 325 c 0,58,59
 396 394 396 394 350 435.5 c 128,-1,60
 304 477 304 477 232 477 c 256,61,62
 160 477 160 477 115 435.5 c 128,-1,63
 70 394 70 394 70 325 c 0,64,65
 70 257 70 257 115 215.5 c 128,-1,66
 160 174 160 174 232 174 c 256,67,56
 304 174 304 174 350 215.5 c 128,-1,57
EndSplineSet
EndChar

StartChar: uni0123.ss01
Encoding: 65570 -1 514
Width: 520
GlyphClass: 2
Flags: W
AnchorPoint: "Anchor-8" 0 0 basechar 0
AnchorPoint: "Anchor-7" 0 0 basechar 0
AnchorPoint: "Anchor-6" 230 499 basechar 0
AnchorPoint: "Anchor-5" 0 0 basechar 0
AnchorPoint: "Anchor-4" 216 0 basechar 0
LayerCount: 2
Fore
SplineSet
210 573 m 128,-1,1
 197 586 197 586 197 607 c 0,2,3
 197 637 197 637 210.5 663.5 c 128,-1,4
 224 690 224 690 244.5 705.5 c 128,-1,5
 265 721 265 721 283 721 c 0,6,7
 290 721 290 721 295.5 717 c 128,-1,8
 301 713 301 713 301 705 c 0,9,10
 301 696 301 696 297 693 c 128,-1,11
 293 690 293 690 282.5 687 c 128,-1,12
 272 684 272 684 266 681 c 0,13,14
 252 674 252 674 244.5 659 c 128,-1,15
 237 644 237 644 237 628 c 0,16,17
 237 604 237 604 254 604 c 0,18,19
 269 604 269 604 280 613 c 1,20,21
 288 603 288 603 288 593 c 0,22,23
 288 580 288 580 274.5 570 c 128,-1,24
 261 560 261 560 244 560 c 0,25,0
 223 560 223 560 210 573 c 128,-1,1
495.5 479.5 m 128,-1,27
 492 474 492 474 483 466 c 2,28,-1
 415 410 l 1,29,30
 434 370 434 370 434 327 c 0,31,32
 434 266 434 266 400 219.5 c 128,-1,33
 366 173 366 173 309 153 c 1,34,35
 394 138 394 138 440.5 93.5 c 128,-1,36
 487 49 487 49 487 -15 c 0,37,38
 487 -72 487 -72 451.5 -114 c 128,-1,39
 416 -156 416 -156 355 -178 c 128,-1,40
 294 -200 294 -200 220 -200 c 0,41,42
 162 -200 162 -200 119.5 -185.5 c 128,-1,43
 77 -171 77 -171 55.5 -152 c 128,-1,44
 34 -133 34 -133 34 -121 c 0,45,46
 34 -111 34 -111 40 -104.5 c 128,-1,47
 46 -98 46 -98 55 -98 c 0,48,49
 62 -98 62 -98 69.5 -104.5 c 128,-1,50
 77 -111 77 -111 87 -123 c 0,51,52
 100 -138 100 -138 140 -150 c 128,-1,53
 180 -162 180 -162 223 -162 c 0,54,55
 324 -162 324 -162 385.5 -124 c 128,-1,56
 447 -86 447 -86 447 -15 c 0,57,58
 447 23 447 23 422.5 55 c 128,-1,59
 398 87 398 87 345 106.5 c 128,-1,60
 292 126 292 126 211 126 c 0,61,62
 174 126 174 126 168 145 c 2,63,-1
 166 149 l 1,64,65
 105 167 105 167 67.5 214.5 c 128,-1,66
 30 262 30 262 30 327 c 0,67,68
 30 381 30 381 56.5 424 c 128,-1,69
 83 467 83 467 129 491 c 128,-1,70
 175 515 175 515 232 515 c 0,71,72
 283 515 283 515 326.5 494.5 c 128,-1,73
 370 474 370 474 397 438 c 1,74,-1
 446 497 l 2,75,76
 454 507 454 507 460 511 c 128,-1,77
 466 515 466 515 476 515 c 0,78,79
 485 515 485 515 492 508 c 128,-1,80
 499 501 499 501 499 492 c 0,81,26
 499 485 499 485 495.5 479.5 c 128,-1,27
350 215.5 m 128,-1,83
 396 257 396 257 396 325 c 0,84,85
 396 394 396 394 350 435.5 c 128,-1,86
 304 477 304 477 232 477 c 256,87,88
 160 477 160 477 115 435.5 c 128,-1,89
 70 394 70 394 70 325 c 0,90,91
 70 257 70 257 115 215.5 c 128,-1,92
 160 174 160 174 232 174 c 256,93,82
 304 174 304 174 350 215.5 c 128,-1,83
EndSplineSet
EndChar

StartChar: ordfeminine
Encoding: 170 170 524
Width: 349
Flags: W
LayerCount: 2
Fore
SplineSet
293.5 688 m 128,-1,1
 299 682 299 682 299 674 c 2,2,-1
 299 421 l 2,3,4
 299 412 299 412 293 406.5 c 128,-1,5
 287 401 287 401 279 401 c 0,6,7
 270 401 270 401 264.5 407 c 128,-1,8
 259 413 259 413 259 421 c 2,9,-1
 259 454 l 1,10,11
 241 427 241 427 212 409 c 128,-1,12
 183 391 183 391 149 391 c 0,13,14
 90 391 90 391 57.5 437.5 c 128,-1,15
 25 484 25 484 25 555 c 0,16,17
 25 598 25 598 42.5 633.5 c 128,-1,18
 60 669 60 669 90 689.5 c 128,-1,19
 120 710 120 710 157 710 c 0,20,21
 190 710 190 710 217 695 c 128,-1,22
 244 680 244 680 259 652 c 1,23,-1
 259 674 l 2,24,25
 259 682 259 682 264.5 688 c 128,-1,26
 270 694 270 694 279 694 c 256,27,0
 288 694 288 694 293.5 688 c 128,-1,1
233.5 463 m 128,-1,29
 263 497 263 497 263 555 c 0,30,31
 263 610 263 610 235.5 641 c 128,-1,32
 208 672 208 672 164 672 c 0,33,34
 124 672 124 672 94.5 638.5 c 128,-1,35
 65 605 65 605 65 555 c 0,36,37
 65 500 65 500 88.5 464.5 c 128,-1,38
 112 429 112 429 156 429 c 0,39,28
 204 429 204 429 233.5 463 c 128,-1,29
EndSplineSet
EndChar

StartChar: ordmasculine
Encoding: 186 186 525
Width: 348
Flags: W
LayerCount: 2
Fore
SplineSet
303.5 469 m 128,-1,1
 284 433 284 433 249.5 412.5 c 128,-1,2
 215 392 215 392 173 392 c 256,3,4
 131 392 131 392 97 412.5 c 128,-1,5
 63 433 63 433 44 469 c 128,-1,6
 25 505 25 505 25 549 c 0,7,8
 25 594 25 594 44.5 631 c 128,-1,9
 64 668 64 668 97.5 689 c 128,-1,10
 131 710 131 710 173 710 c 256,11,12
 215 710 215 710 249.5 689 c 128,-1,13
 284 668 284 668 303.5 631 c 128,-1,14
 323 594 323 594 323 549 c 0,15,0
 323 505 323 505 303.5 469 c 128,-1,1
254 637.5 m 128,-1,17
 223 672 223 672 173 672 c 256,18,19
 123 672 123 672 93 637.5 c 128,-1,20
 63 603 63 603 63 549 c 0,21,22
 63 498 63 498 93.5 463.5 c 128,-1,23
 124 429 124 429 173 429 c 0,24,25
 223 429 223 429 254 463.5 c 128,-1,26
 285 498 285 498 285 549 c 0,27,16
 285 603 285 603 254 637.5 c 128,-1,17
EndSplineSet
EndChar

StartChar: pi
Encoding: 960 960 526
Width: 619
Flags: W
LayerCount: 2
Fore
SplineSet
134.5 6 m 128,-1,1
 129 12 129 12 129 20 c 2,2,-1
 129 470 l 2,3,4
 129 475 129 475 124 475 c 2,5,-1
 65 475 l 2,6,7
 57 475 57 475 51 480.5 c 128,-1,8
 45 486 45 486 45 495 c 256,9,10
 45 504 45 504 51 509.5 c 128,-1,11
 57 515 57 515 65 515 c 2,12,-1
 554 515 l 2,13,14
 562 515 562 515 568 509.5 c 128,-1,15
 574 504 574 504 574 495 c 256,16,17
 574 486 574 486 568 480.5 c 128,-1,18
 562 475 562 475 554 475 c 2,19,-1
 494 475 l 2,20,21
 489 475 489 475 489 470 c 2,22,-1
 489 20 l 2,23,24
 489 12 489 12 483.5 6 c 128,-1,25
 478 0 478 0 469 0 c 256,26,27
 460 0 460 0 454.5 6 c 128,-1,28
 449 12 449 12 449 20 c 2,29,-1
 449 470 l 2,30,31
 449 475 449 475 444 475 c 2,32,-1
 174 475 l 2,33,34
 169 475 169 475 169 470 c 2,35,-1
 169 20 l 2,36,37
 169 12 169 12 163.5 6 c 128,-1,38
 158 0 158 0 149 0 c 256,39,0
 140 0 140 0 134.5 6 c 128,-1,1
EndSplineSet
EndChar

StartChar: zero
Encoding: 48 48 527
Width: 588
GlyphClass: 2
Flags: W
AnchorPoint: "Anchor-3" 0 0 basechar 0
AnchorPoint: "Anchor-2" 0 0 basechar 0
AnchorPoint: "Anchor-1" 0 0 basechar 0
AnchorPoint: "Anchor-0" 283 351 basechar 0
LayerCount: 2
Fore
SplineSet
164.5 37.5 m 128,-1,1
 112 85 112 85 86 166.5 c 128,-1,2
 60 248 60 248 60 350 c 256,3,4
 60 452 60 452 86 533.5 c 128,-1,5
 112 615 112 615 164.5 662.5 c 128,-1,6
 217 710 217 710 294 710 c 256,7,8
 371 710 371 710 423.5 662.5 c 128,-1,9
 476 615 476 615 502 533.5 c 128,-1,10
 528 452 528 452 528 350 c 256,11,12
 528 248 528 248 502 166.5 c 128,-1,13
 476 85 476 85 423.5 37.5 c 128,-1,14
 371 -10 371 -10 294 -10 c 256,15,0
 217 -10 217 -10 164.5 37.5 c 128,-1,1
436.5 119 m 128,-1,17
 486 206 486 206 486 350 c 256,18,19
 486 494 486 494 436.5 581 c 128,-1,20
 387 668 387 668 294 668 c 256,21,22
 201 668 201 668 151.5 581 c 128,-1,23
 102 494 102 494 102 350 c 256,24,25
 102 206 102 206 151.5 119 c 128,-1,26
 201 32 201 32 294 32 c 256,27,16
 387 32 387 32 436.5 119 c 128,-1,17
EndSplineSet
Substitution2: "'subs' Subscript lookup 18 subtable" uni2080
Substitution2: "'frac' Diagonal Fractions lookup 10 subtable" zero.numr
Substitution2: "'sups' Superscript lookup 8 subtable" uni2070
EndChar

StartChar: one
Encoding: 49 49 528
Width: 323
Flags: W
LayerCount: 2
Fore
SplineSet
217.5 695 m 128,-1,1
 223 689 223 689 223 680 c 2,2,-1
 223 20 l 2,3,4
 223 12 223 12 217 6 c 128,-1,5
 211 0 211 0 202 0 c 256,6,7
 193 0 193 0 187 6 c 128,-1,8
 181 12 181 12 181 20 c 2,9,-1
 181 642 l 1,10,-1
 35 555 l 2,11,12
 32 553 32 553 27 553 c 0,13,14
 18 553 18 553 11.5 560.5 c 128,-1,15
 5 568 5 568 5 575 c 0,16,17
 5 584 5 584 16 592 c 2,18,-1
 191 697 l 2,19,20
 196 701 196 701 203 701 c 0,21,0
 212 701 212 701 217.5 695 c 128,-1,1
EndSplineSet
Substitution2: "'subs' Subscript lookup 18 subtable" uni2081
Substitution2: "'frac' Diagonal Fractions lookup 10 subtable" one.numr
Substitution2: "'sups' Superscript lookup 8 subtable" uni00B9
EndChar

StartChar: two
Encoding: 50 50 529
Width: 577
Flags: W
LayerCount: 2
Fore
SplineSet
521 34 m 128,-1,1
 527 28 527 28 527 20 c 0,2,3
 527 11 527 11 521 5.5 c 128,-1,4
 515 0 515 0 507 0 c 2,5,-1
 121 0 l 2,6,7
 111 0 111 0 103.5 5 c 128,-1,8
 96 10 96 10 96 21 c 0,9,10
 96 27 96 27 101 34 c 2,11,-1
 336 296 l 2,12,13
 399 363 399 363 428 413.5 c 128,-1,14
 457 464 457 464 457 513 c 0,15,16
 457 588 457 588 412.5 629 c 128,-1,17
 368 670 368 670 285 670 c 0,18,19
 230 670 230 670 188.5 645.5 c 128,-1,20
 147 621 147 621 129 568 c 0,21,22
 127 562 127 562 122.5 557 c 128,-1,23
 118 552 118 552 110 552 c 0,24,25
 103 552 103 552 95.5 557 c 128,-1,26
 88 562 88 562 88 568 c 0,27,28
 88 573 88 573 93 586 c 0,29,30
 116 646 116 646 168.5 678 c 128,-1,31
 221 710 221 710 288 710 c 0,32,33
 389 710 389 710 445 657 c 128,-1,34
 501 604 501 604 501 517 c 0,35,36
 501 464 501 464 472 408 c 128,-1,37
 443 352 443 352 369 272 c 2,38,-1
 165 40 l 1,39,-1
 507 40 l 2,40,0
 515 40 515 40 521 34 c 128,-1,1
EndSplineSet
Substitution2: "'subs' Subscript lookup 18 subtable" uni2082
Substitution2: "'frac' Diagonal Fractions lookup 10 subtable" two.numr
Substitution2: "'sups' Superscript lookup 8 subtable" uni00B2
EndChar

StartChar: three
Encoding: 51 51 530
Width: 519
Flags: W
LayerCount: 2
Fore
SplineSet
348 417 m 128,-1,1
 398 392 398 392 429.5 342 c 128,-1,2
 461 292 461 292 461 221 c 0,3,4
 461 154 461 154 428.5 101.5 c 128,-1,5
 396 49 396 49 341 19.5 c 128,-1,6
 286 -10 286 -10 222 -10 c 0,7,8
 177 -10 177 -10 136.5 6 c 128,-1,9
 96 22 96 22 66 54 c 0,10,11
 60 60 60 60 60 68 c 256,12,13
 60 76 60 76 66 83 c 128,-1,14
 72 90 72 90 81 90 c 256,15,16
 90 90 90 90 99 80 c 0,17,18
 143 32 143 32 222 32 c 0,19,20
 277 32 277 32 322 56 c 128,-1,21
 367 80 367 80 393 123.5 c 128,-1,22
 419 167 419 167 419 221 c 0,23,24
 419 282 419 282 391.5 322.5 c 128,-1,25
 364 363 364 363 320 382 c 128,-1,26
 276 401 276 401 227 401 c 0,27,28
 217 401 217 401 202.5 399.5 c 128,-1,29
 188 398 188 398 186 398 c 0,30,31
 177 398 177 398 171.5 404 c 128,-1,32
 166 410 166 410 166 420 c 0,33,34
 166 429 166 429 171 434 c 2,35,-1
 373 660 l 1,36,-1
 70 660 l 2,37,38
 62 660 62 660 56 666 c 128,-1,39
 50 672 50 672 50 680 c 0,40,41
 50 689 50 689 56 694.5 c 128,-1,42
 62 700 62 700 70 700 c 2,43,-1
 416 700 l 2,44,45
 427 700 427 700 432 692.5 c 128,-1,46
 437 685 437 685 437 679 c 0,47,48
 437 671 437 671 431 665 c 2,49,-1
 232 441 l 2,50,51
 236 442 236 442 242 442 c 0,52,0
 298 442 298 442 348 417 c 128,-1,1
EndSplineSet
Substitution2: "'subs' Subscript lookup 18 subtable" uni2083
Substitution2: "'frac' Diagonal Fractions lookup 10 subtable" three.numr
Substitution2: "'sups' Superscript lookup 8 subtable" uni00B3
EndChar

StartChar: four
Encoding: 52 52 531
Width: 505
Flags: W
LayerCount: 2
Fore
SplineSet
470 257.5 m 128,-1,1
 476 252 476 252 476 244 c 256,2,3
 476 236 476 236 470 230.5 c 128,-1,4
 464 225 464 225 456 225 c 2,5,-1
 380 225 l 1,6,-1
 380 20 l 2,7,8
 380 12 380 12 374 6 c 128,-1,9
 368 0 368 0 360 0 c 0,10,11
 351 0 351 0 345.5 6 c 128,-1,12
 340 12 340 12 340 20 c 2,13,-1
 340 225 l 1,14,-1
 35 225 l 2,15,16
 26 225 26 225 20.5 231.5 c 128,-1,17
 15 238 15 238 15 246 c 256,18,19
 15 254 15 254 20 259 c 2,20,-1
 343 692 l 2,21,22
 349 700 349 700 360 700 c 0,23,24
 369 700 369 700 374.5 694 c 128,-1,25
 380 688 380 688 380 680 c 2,26,-1
 380 263 l 1,27,-1
 456 263 l 2,28,0
 464 263 464 263 470 257.5 c 128,-1,1
340 263 m 1,29,-1
 340 622 l 1,30,-1
 73 263 l 1,31,-1
 340 263 l 1,29,-1
EndSplineSet
Substitution2: "'subs' Subscript lookup 18 subtable" uni2084
Substitution2: "'frac' Diagonal Fractions lookup 10 subtable" four.numr
Substitution2: "'sups' Superscript lookup 8 subtable" uni2074
EndChar

StartChar: five
Encoding: 53 53 532
Width: 539
Flags: W
LayerCount: 2
Fore
SplineSet
360 435 m 128,-1,1
 411 407 411 407 440 356.5 c 128,-1,2
 469 306 469 306 469 242 c 0,3,4
 469 170 469 170 438.5 115.5 c 128,-1,5
 408 61 408 61 352 31 c 128,-1,6
 296 1 296 1 221 1 c 0,7,8
 177 1 177 1 136 15 c 128,-1,9
 95 29 95 29 62 57 c 0,10,11
 54 63 54 63 54 72 c 0,12,13
 54 79 54 79 60 87 c 128,-1,14
 66 95 66 95 74 95 c 256,15,16
 82 95 82 95 88 89 c 0,17,18
 147 41 147 41 221 41 c 0,19,20
 315 41 315 41 372 95.5 c 128,-1,21
 429 150 429 150 429 239 c 0,22,23
 429 322 429 322 376 373 c 128,-1,24
 323 424 323 424 231 424 c 0,25,26
 195 424 195 424 164 413.5 c 128,-1,27
 133 403 133 403 100 387 c 0,28,29
 80 378 80 378 78 378 c 0,30,31
 69 378 69 378 61.5 385 c 128,-1,32
 54 392 54 392 57 402 c 2,33,-1
 104 683 l 2,34,35
 105 689 105 689 111 694.5 c 128,-1,36
 117 700 117 700 126 700 c 2,37,-1
 431 700 l 2,38,39
 439 700 439 700 445 694 c 128,-1,40
 451 688 451 688 451 679 c 256,41,42
 451 670 451 670 445 664 c 128,-1,43
 439 658 439 658 431 658 c 2,44,-1
 141 658 l 1,45,-1
 100 430 l 1,46,47
 168 463 168 463 246 463 c 0,48,0
 309 463 309 463 360 435 c 128,-1,1
EndSplineSet
Substitution2: "'subs' Subscript lookup 18 subtable" uni2085
Substitution2: "'frac' Diagonal Fractions lookup 10 subtable" five.numr
Substitution2: "'sups' Superscript lookup 8 subtable" uni2075
EndChar

StartChar: six
Encoding: 54 54 533
Width: 533
Flags: W
LayerCount: 2
Fore
SplineSet
406.5 406.5 m 128,-1,1
 453 374 453 374 478 321.5 c 128,-1,2
 503 269 503 269 503 211 c 256,3,4
 503 153 503 153 475 102.5 c 128,-1,5
 447 52 447 52 398 21 c 128,-1,6
 349 -10 349 -10 288 -10 c 0,7,8
 211 -10 211 -10 160 24 c 128,-1,9
 109 58 109 58 84.5 113 c 128,-1,10
 60 168 60 168 60 232 c 0,11,12
 60 321 60 321 99 421.5 c 128,-1,13
 138 522 138 522 208 605 c 128,-1,14
 278 688 278 688 366 725 c 0,15,16
 372 727 372 727 375 727 c 0,17,18
 385 727 385 727 391 721 c 128,-1,19
 397 715 397 715 397 704 c 0,20,21
 397 692 397 692 383 686 c 0,22,23
 326 661 326 661 271.5 608 c 128,-1,24
 217 555 217 555 176.5 487.5 c 128,-1,25
 136 420 136 420 119 352 c 1,26,27
 152 393 152 393 199 416 c 128,-1,28
 246 439 246 439 299 439 c 0,29,0
 360 439 360 439 406.5 406.5 c 128,-1,1
376.5 53 m 128,-1,31
 416 76 416 76 438.5 117 c 128,-1,32
 461 158 461 158 461 211 c 0,33,34
 461 260 461 260 441.5 303 c 128,-1,35
 422 346 422 346 384 372 c 128,-1,36
 346 398 346 398 292 398 c 0,37,38
 233 398 233 398 189.5 372 c 128,-1,39
 146 346 146 346 123.5 302.5 c 128,-1,40
 101 259 101 259 101 207 c 0,41,42
 101 160 101 160 123 119.5 c 128,-1,43
 145 79 145 79 187 54.5 c 128,-1,44
 229 30 229 30 286 30 c 0,45,30
 337 30 337 30 376.5 53 c 128,-1,31
EndSplineSet
Substitution2: "'subs' Subscript lookup 18 subtable" uni2086
Substitution2: "'frac' Diagonal Fractions lookup 10 subtable" six.numr
Substitution2: "'sups' Superscript lookup 8 subtable" uni2076
EndChar

StartChar: seven
Encoding: 55 55 534
Width: 501
Flags: W
LayerCount: 2
Fore
SplineSet
471 682 m 0,1,2
 471 676 471 676 469 672 c 2,3,-1
 190 11 l 2,4,5
 188 5 188 5 182.5 1.5 c 128,-1,6
 177 -2 177 -2 170 -2 c 256,7,8
 163 -2 163 -2 156 3 c 128,-1,9
 149 8 149 8 149 16 c 0,10,11
 149 20 149 20 151 26 c 2,12,-1
 419 660 l 1,13,-1
 80 660 l 2,14,15
 72 660 72 660 66 665.5 c 128,-1,16
 60 671 60 671 60 680 c 256,17,18
 60 689 60 689 66 694.5 c 128,-1,19
 72 700 72 700 80 700 c 2,20,-1
 454 700 l 2,21,0
 471 700 471 700 471 682 c 0,1,2
EndSplineSet
Substitution2: "'subs' Subscript lookup 18 subtable" uni2087
Substitution2: "'frac' Diagonal Fractions lookup 10 subtable" seven.numr
Substitution2: "'sups' Superscript lookup 8 subtable" uni2077
EndChar

StartChar: eight
Encoding: 56 56 535
Width: 557
Flags: W
LayerCount: 2
Fore
SplineSet
453.5 285 m 128,-1,1
 487 239 487 239 487 179 c 0,2,3
 487 127 487 127 459.5 84 c 128,-1,4
 432 41 432 41 384 15.5 c 128,-1,5
 336 -10 336 -10 278 -10 c 256,6,7
 220 -10 220 -10 172.5 15 c 128,-1,8
 125 40 125 40 97.5 83.5 c 128,-1,9
 70 127 70 127 70 179 c 0,10,11
 70 239 70 239 103 284 c 128,-1,12
 136 329 136 329 187 352 c 1,13,14
 145 373 145 373 115.5 417 c 128,-1,15
 86 461 86 461 86 514 c 0,16,17
 86 566 86 566 111.5 608.5 c 128,-1,18
 137 651 137 651 181 675.5 c 128,-1,19
 225 700 225 700 278 700 c 0,20,21
 330 700 330 700 374 675.5 c 128,-1,22
 418 651 418 651 443.5 608.5 c 128,-1,23
 469 566 469 566 469 514 c 0,24,25
 469 460 469 460 440 417 c 128,-1,26
 411 374 411 374 369 353 c 1,27,0
 420 331 420 331 453.5 285 c 128,-1,1
149 437.5 m 128,-1,29
 170 404 170 404 204.5 385.5 c 128,-1,30
 239 367 239 367 278 367 c 256,31,32
 317 367 317 367 351 385.5 c 128,-1,33
 385 404 385 404 406 437.5 c 128,-1,34
 427 471 427 471 427 514 c 0,35,36
 427 579 427 579 385.5 619.5 c 128,-1,37
 344 660 344 660 278 660 c 0,38,39
 211 660 211 660 169.5 619.5 c 128,-1,40
 128 579 128 579 128 514 c 0,41,28
 128 471 128 471 149 437.5 c 128,-1,29
399 71.5 m 128,-1,43
 445 113 445 113 445 179 c 0,44,45
 445 222 445 222 422 256.5 c 128,-1,46
 399 291 399 291 360.5 311 c 128,-1,47
 322 331 322 331 278 331 c 256,48,49
 234 331 234 331 195.5 311 c 128,-1,50
 157 291 157 291 134.5 256.5 c 128,-1,51
 112 222 112 222 112 179 c 0,52,53
 112 113 112 113 158 71.5 c 128,-1,54
 204 30 204 30 278 30 c 0,55,42
 353 30 353 30 399 71.5 c 128,-1,43
EndSplineSet
Substitution2: "'subs' Subscript lookup 18 subtable" uni2088
Substitution2: "'frac' Diagonal Fractions lookup 10 subtable" eight.numr
Substitution2: "'sups' Superscript lookup 8 subtable" uni2078
EndChar

StartChar: nine
Encoding: 57 57 536
Width: 555
Flags: W
LayerCount: 2
Fore
SplineSet
403 676 m 128,-1,1
 454 642 454 642 478.5 587 c 128,-1,2
 503 532 503 532 503 468 c 0,3,4
 503 379 503 379 464.5 282.5 c 128,-1,5
 426 186 426 186 356 107 c 128,-1,6
 286 28 286 28 197 -10 c 0,7,8
 191 -12 191 -12 188 -12 c 0,9,10
 179 -12 179 -12 172.5 -5 c 128,-1,11
 166 2 166 2 166 11 c 0,12,13
 166 23 166 23 180 29 c 0,14,15
 237 54 237 54 291.5 104 c 128,-1,16
 346 154 346 154 386.5 218 c 128,-1,17
 427 282 427 282 444 348 c 1,18,19
 412 308 412 308 364.5 285.5 c 128,-1,20
 317 263 317 263 264 263 c 0,21,22
 203 263 203 263 156.5 295 c 128,-1,23
 110 327 110 327 85 379 c 128,-1,24
 60 431 60 431 60 489 c 256,25,26
 60 547 60 547 88 597.5 c 128,-1,27
 116 648 116 648 165 679 c 128,-1,28
 214 710 214 710 275 710 c 0,29,0
 352 710 352 710 403 676 c 128,-1,1
373.5 329.5 m 128,-1,31
 417 355 417 355 439.5 398 c 128,-1,32
 462 441 462 441 462 493 c 0,33,34
 462 540 462 540 440 580.5 c 128,-1,35
 418 621 418 621 376 645.5 c 128,-1,36
 334 670 334 670 277 670 c 0,37,38
 226 670 226 670 186.5 647 c 128,-1,39
 147 624 147 624 124.5 583 c 128,-1,40
 102 542 102 542 102 489 c 0,41,42
 102 440 102 440 121 397.5 c 128,-1,43
 140 355 140 355 178.5 329.5 c 128,-1,44
 217 304 217 304 271 304 c 0,45,30
 330 304 330 304 373.5 329.5 c 128,-1,31
EndSplineSet
Substitution2: "'subs' Subscript lookup 18 subtable" uni2089
Substitution2: "'frac' Diagonal Fractions lookup 10 subtable" nine.numr
Substitution2: "'sups' Superscript lookup 8 subtable" uni2079
EndChar

StartChar: zero.dnom
Encoding: 65579 -1 548
Width: 308
Flags: W
LayerCount: 2
Fore
SplineSet
62 35 m 128,-1,1
 30 80 30 80 30 150 c 256,2,3
 30 220 30 220 62 265 c 128,-1,4
 94 310 94 310 154 310 c 256,5,6
 214 310 214 310 246 265 c 128,-1,7
 278 220 278 220 278 150 c 256,8,9
 278 80 278 80 246 35 c 128,-1,10
 214 -10 214 -10 154 -10 c 256,11,0
 94 -10 94 -10 62 35 c 128,-1,1
217.5 60 m 128,-1,13
 240 94 240 94 240 150 c 0,14,15
 240 205 240 205 217.5 239.5 c 128,-1,16
 195 274 195 274 154 274 c 256,17,18
 113 274 113 274 90.5 239.5 c 128,-1,19
 68 205 68 205 68 150 c 0,20,21
 68 94 68 94 90.5 60 c 128,-1,22
 113 26 113 26 154 26 c 256,23,12
 195 26 195 26 217.5 60 c 128,-1,13
EndSplineSet
EndChar

StartChar: one.dnom
Encoding: 65580 -1 549
Width: 189
Flags: W
LayerCount: 2
Fore
SplineSet
139 14 m 2,0,1
 139 6 139 6 133.5 0 c 128,-1,2
 128 -6 128 -6 120 -6 c 0,3,4
 111 -6 111 -6 106 -0.5 c 128,-1,5
 101 5 101 5 101 14 c 2,6,-1
 100 243 l 1,7,-1
 55 216 l 2,8,9
 47 212 47 212 43 212 c 0,10,11
 36 212 36 212 31 217.5 c 128,-1,12
 26 223 26 223 26 230 c 0,13,14
 26 240 26 240 36 247 c 2,15,-1
 106 290 l 2,16,17
 111 294 111 294 118 294 c 0,18,19
 127 294 127 294 132.5 288 c 128,-1,20
 138 282 138 282 138 273 c 2,21,-1
 139 14 l 2,0,1
EndSplineSet
EndChar

StartChar: two.dnom
Encoding: 65581 -1 550
Width: 301
Flags: W
LayerCount: 2
Fore
SplineSet
245 31 m 128,-1,1
 251 26 251 26 251 18 c 0,2,3
 251 11 251 11 245 5.5 c 128,-1,4
 239 0 239 0 231 0 c 2,5,-1
 70 0 l 2,6,7
 50 0 50 0 50 20 c 0,8,9
 50 28 50 28 60 39 c 2,10,-1
 144 134 l 2,11,12
 151 144 151 144 167 162 c 0,13,14
 187 188 187 188 196 202.5 c 128,-1,15
 205 217 205 217 205 233 c 0,16,17
 205 250 205 250 191.5 262 c 128,-1,18
 178 274 178 274 152 274 c 0,19,20
 131 274 131 274 113 261.5 c 128,-1,21
 95 249 95 249 89 227 c 0,22,23
 85 211 85 211 70 211 c 0,24,25
 62 211 62 211 57 215 c 128,-1,26
 52 219 52 219 52 225 c 0,27,28
 52 239 52 239 63.5 259 c 128,-1,29
 75 279 75 279 98.5 294.5 c 128,-1,30
 122 310 122 310 158 310 c 0,31,32
 199 310 199 310 222 287.5 c 128,-1,33
 245 265 245 265 245 235 c 0,34,35
 245 206 245 206 233 185.5 c 128,-1,36
 221 165 221 165 198 139 c 0,37,38
 182 123 182 123 173 110 c 2,39,-1
 111 36 l 1,40,-1
 231 36 l 2,41,0
 239 36 239 36 245 31 c 128,-1,1
EndSplineSet
EndChar

StartChar: three.dnom
Encoding: 65582 -1 551
Width: 299
Flags: W
LayerCount: 2
Fore
SplineSet
227 159 m 128,-1,1
 254 139 254 139 254 92 c 0,2,3
 254 47 254 47 220.5 18.5 c 128,-1,4
 187 -10 187 -10 140 -10 c 0,5,6
 117 -10 117 -10 93.5 -2 c 128,-1,7
 70 6 70 6 54 19 c 0,8,9
 45 26 45 26 45 37 c 0,10,11
 45 45 45 45 50 51 c 128,-1,12
 55 57 55 57 63 57 c 0,13,14
 68 57 68 57 74 52.5 c 128,-1,15
 80 48 80 48 85 45 c 0,16,17
 93 40 93 40 109 35 c 128,-1,18
 125 30 125 30 140 30 c 0,19,20
 170 30 170 30 192 48 c 128,-1,21
 214 66 214 66 214 92 c 0,22,23
 214 117 214 117 197 130.5 c 128,-1,24
 180 144 180 144 153 144 c 0,25,26
 131 144 131 144 107 136 c 2,27,-1
 102 135 l 2,28,29
 94 135 94 135 89 141 c 128,-1,30
 84 147 84 147 84 154 c 0,31,32
 84 162 84 162 89 167 c 2,33,-1
 185 262 l 1,34,-1
 78 262 l 2,35,36
 70 262 70 262 64 267.5 c 128,-1,37
 58 273 58 273 58 281 c 256,38,39
 58 289 58 289 64 294.5 c 128,-1,40
 70 300 70 300 78 300 c 2,41,-1
 222 300 l 2,42,43
 229 300 229 300 234.5 295.5 c 128,-1,44
 240 291 240 291 242 284 c 0,45,46
 243 282 243 282 243 279 c 0,47,48
 243 271 243 271 237 265 c 2,49,-1
 148 178 l 1,50,-1
 160 179 l 2,51,0
 200 179 200 179 227 159 c 128,-1,1
EndSplineSet
EndChar

StartChar: four.dnom
Encoding: 65583 -1 552
Width: 272
Flags: W
LayerCount: 2
Fore
SplineSet
251.5 102 m 128,-1,1
 257 97 257 97 257 90 c 0,2,3
 257 82 257 82 251.5 77 c 128,-1,4
 246 72 246 72 238 72 c 2,5,-1
 201 72 l 1,6,-1
 201 12 l 2,7,8
 201 4 201 4 195.5 -1.5 c 128,-1,9
 190 -7 190 -7 182 -7 c 256,10,11
 174 -7 174 -7 168.5 -1.5 c 128,-1,12
 163 4 163 4 163 12 c 2,13,-1
 163 72 l 1,14,-1
 44 72 l 2,15,16
 36 72 36 72 30 78 c 128,-1,17
 24 84 24 84 24 92 c 256,18,19
 24 100 24 100 29 106 c 2,20,-1
 164 285 l 2,21,22
 170 293 170 293 181 293 c 0,23,24
 190 293 190 293 195.5 287 c 128,-1,25
 201 281 201 281 201 273 c 2,26,-1
 201 108 l 1,27,-1
 238 108 l 2,28,0
 246 107 246 107 251.5 102 c 128,-1,1
163 108 m 1,29,-1
 163 227 l 1,30,-1
 73 108 l 1,31,-1
 163 108 l 1,29,-1
EndSplineSet
EndChar

StartChar: five.dnom
Encoding: 65584 -1 553
Width: 305
Flags: W
LayerCount: 2
Fore
SplineSet
230 165 m 128,-1,1
 255 138 255 138 255 96 c 0,2,3
 255 48 255 48 226 19 c 128,-1,4
 197 -10 197 -10 147 -10 c 0,5,6
 124 -10 124 -10 100 1.5 c 128,-1,7
 76 13 76 13 58 31 c 0,8,9
 50 39 50 39 50 47 c 256,10,11
 50 55 50 55 55 61.5 c 128,-1,12
 60 68 60 68 69 68 c 0,13,14
 77 68 77 68 83 62 c 0,15,16
 115 28 115 28 147 28 c 0,17,18
 178 28 178 28 197.5 46 c 128,-1,19
 217 64 217 64 217 93 c 0,20,21
 217 120 217 120 200 138 c 128,-1,22
 183 156 183 156 155 156 c 0,23,24
 140 156 140 156 129.5 150.5 c 128,-1,25
 119 145 119 145 106 134 c 0,26,27
 93 121 93 121 85 121 c 0,28,29
 75 121 75 121 68.5 128 c 128,-1,30
 62 135 62 135 64 145 c 2,31,-1
 90 272 l 2,32,33
 94 289 94 289 112 289 c 2,34,-1
 229 289 l 2,35,36
 237 289 237 289 243 283 c 128,-1,37
 249 277 249 277 249 269 c 0,38,39
 249 260 249 260 243 254.5 c 128,-1,40
 237 249 237 249 229 249 c 2,41,-1
 120 249 l 1,42,-1
 107 180 l 1,43,44
 127 192 127 192 162 192 c 0,45,0
 205 192 205 192 230 165 c 128,-1,1
EndSplineSet
EndChar

StartChar: six.dnom
Encoding: 65585 -1 554
Width: 253
Flags: W
LayerCount: 2
Fore
SplineSet
200 150 m 128,-1,1
 223 121 223 121 223 81 c 0,2,3
 223 43 223 43 195.5 16.5 c 128,-1,4
 168 -10 168 -10 128 -10 c 0,5,6
 79 -10 79 -10 54.5 19.5 c 128,-1,7
 30 49 30 49 30 92 c 256,8,9
 30 135 30 135 59 185.5 c 128,-1,10
 88 236 88 236 127.5 271 c 128,-1,11
 167 306 167 306 193 306 c 0,12,13
 203 306 203 306 210 301 c 128,-1,14
 217 296 217 296 217 286 c 0,15,16
 217 272 217 272 203 266 c 0,17,18
 170 254 170 254 142 228 c 128,-1,19
 114 202 114 202 97 169 c 1,20,21
 113 179 113 179 133 179 c 0,22,0
 177 179 177 179 200 150 c 128,-1,1
166 43 m 128,-1,24
 183 58 183 58 183 81 c 0,25,26
 183 105 183 105 169.5 122.5 c 128,-1,27
 156 140 156 140 132 140 c 0,28,29
 103 140 103 140 86 123 c 128,-1,30
 69 106 69 106 69 83 c 0,31,32
 69 59 69 59 84 43.5 c 128,-1,33
 99 28 99 28 126 28 c 0,34,23
 149 28 149 28 166 43 c 128,-1,24
EndSplineSet
EndChar

StartChar: seven.dnom
Encoding: 65586 -1 555
Width: 272
Flags: W
LayerCount: 2
Fore
SplineSet
238 285.5 m 128,-1,1
 242 279 242 279 242 273 c 0,2,3
 242 270 242 270 240 264 c 2,4,-1
 121 3 l 2,5,6
 119 -3 119 -3 113.5 -6.5 c 128,-1,7
 108 -10 108 -10 101 -10 c 256,8,9
 94 -10 94 -10 87.5 -5 c 128,-1,10
 81 0 81 0 81 8 c 0,11,12
 81 9 81 9 84 18 c 2,13,-1
 193 254 l 1,14,-1
 60 254 l 2,15,16
 51 254 51 254 45.5 259 c 128,-1,17
 40 264 40 264 40 273 c 0,18,19
 40 281 40 281 46 286.5 c 128,-1,20
 52 292 52 292 60 292 c 2,21,-1
 225 292 l 2,22,0
 234 292 234 292 238 285.5 c 128,-1,1
EndSplineSet
EndChar

StartChar: eight.dnom
Encoding: 65587 -1 556
Width: 273
Flags: W
LayerCount: 2
Fore
SplineSet
225.5 124.5 m 128,-1,1
 243 104 243 104 243 77 c 0,2,3
 243 41 243 41 212 15.5 c 128,-1,4
 181 -10 181 -10 136 -10 c 256,5,6
 91 -10 91 -10 60.5 15.5 c 128,-1,7
 30 41 30 41 30 77 c 0,8,9
 30 104 30 104 47 124.5 c 128,-1,10
 64 145 64 145 89 155 c 1,11,12
 67 165 67 165 52.5 184 c 128,-1,13
 38 203 38 203 38 227 c 0,14,15
 38 261 38 261 66.5 284 c 128,-1,16
 95 307 95 307 136 307 c 256,17,18
 177 307 177 307 205.5 284 c 128,-1,19
 234 261 234 261 234 227 c 0,20,21
 234 204 234 204 219 185 c 128,-1,22
 204 166 204 166 183 156 c 1,23,0
 208 145 208 145 225.5 124.5 c 128,-1,1
94.5 256.5 m 128,-1,25
 78 242 78 242 78 220 c 0,26,27
 78 197 78 197 95.5 183.5 c 128,-1,28
 113 170 113 170 136 170 c 256,29,30
 159 170 159 170 176.5 183.5 c 128,-1,31
 194 197 194 197 194 220 c 0,32,33
 194 242 194 242 177.5 256.5 c 128,-1,34
 161 271 161 271 136 271 c 256,35,24
 111 271 111 271 94.5 256.5 c 128,-1,25
182 42 m 128,-1,37
 200 58 200 58 200 83 c 0,38,39
 200 106 200 106 180.5 120 c 128,-1,40
 161 134 161 134 136 134 c 256,41,42
 111 134 111 134 92 120 c 128,-1,43
 73 106 73 106 73 83 c 0,44,45
 73 58 73 58 90.5 42 c 128,-1,46
 108 26 108 26 136 26 c 256,47,36
 164 26 164 26 182 42 c 128,-1,37
EndSplineSet
EndChar

StartChar: nine.dnom
Encoding: 65588 -1 557
Width: 283
Flags: W
LayerCount: 2
Fore
SplineSet
218.5 275.5 m 128,-1,1
 243 246 243 246 243 203 c 256,2,3
 243 160 243 160 214 109.5 c 128,-1,4
 185 59 185 59 145.5 24 c 128,-1,5
 106 -11 106 -11 80 -11 c 0,6,7
 70 -11 70 -11 63 -6 c 128,-1,8
 56 -1 56 -1 56 9 c 0,9,10
 56 23 56 23 70 29 c 0,11,12
 103 41 103 41 131 67 c 128,-1,13
 159 93 159 93 176 126 c 1,14,15
 160 116 160 116 140 116 c 0,16,17
 96 116 96 116 73 145 c 128,-1,18
 50 174 50 174 50 214 c 0,19,20
 50 252 50 252 77.5 278.5 c 128,-1,21
 105 305 105 305 145 305 c 0,22,0
 194 305 194 305 218.5 275.5 c 128,-1,1
103.5 172.5 m 128,-1,24
 117 155 117 155 141 155 c 0,25,26
 170 155 170 155 187 172 c 128,-1,27
 204 189 204 189 204 212 c 0,28,29
 204 236 204 236 189 251.5 c 128,-1,30
 174 267 174 267 147 267 c 0,31,32
 124 267 124 267 107 252 c 128,-1,33
 90 237 90 237 90 214 c 0,34,23
 90 190 90 190 103.5 172.5 c 128,-1,24
EndSplineSet
EndChar

StartChar: fraction
Encoding: 8260 8260 578
Width: 527
Flags: W
LayerCount: 2
Fore
SplineSet
30.5 2 m 128,-1,1
 25 7 25 7 25 16 c 0,2,3
 25 22 25 22 28 28 c 2,4,-1
 466 694 l 2,5,6
 472 703 472 703 482 703 c 0,7,8
 491 703 491 703 496.5 698 c 128,-1,9
 502 693 502 693 502 684 c 0,10,11
 502 678 502 678 499 672 c 2,12,-1
 61 6 l 2,13,14
 55 -3 55 -3 45 -3 c 0,15,0
 36 -3 36 -3 30.5 2 c 128,-1,1
EndSplineSet
EndChar

StartChar: asterisk
Encoding: 42 42 586
Width: 291
Flags: W
LayerCount: 2
Fore
SplineSet
131.5 412.5 m 128,-1,1
 126 419 126 419 127 428 c 2,2,-1
 133 525 l 2,3,4
 134 528 134 528 132 529.5 c 128,-1,5
 130 531 130 531 128 529 c 2,6,-1
 46 473 l 2,7,8
 41 469 41 469 34 469 c 0,9,10
 23 469 23 469 17 480 c 0,11,12
 14 485 14 485 14 490 c 0,13,14
 14 502 14 502 27 508 c 2,15,-1
 117 551 l 2,16,17
 120 552 120 552 120 554 c 128,-1,18
 120 556 120 556 117 557 c 2,19,-1
 27 600 l 2,20,21
 15 606 15 606 15 619 c 0,22,23
 15 624 15 624 18 630 c 0,24,25
 24 639 24 639 34 639 c 0,26,27
 41 639 41 639 46 635 c 2,28,-1
 128 579 l 2,29,30
 130 577 130 577 132 578.5 c 128,-1,31
 134 580 134 580 133 583 c 2,32,-1
 127 680 l 1,33,-1
 127 682 l 2,34,35
 127 690 127 690 133 696 c 128,-1,36
 139 702 139 702 147 702 c 256,37,38
 155 702 155 702 160.5 695.5 c 128,-1,39
 166 689 166 689 165 680 c 2,40,-1
 159 583 l 2,41,42
 158 580 158 580 160 578.5 c 128,-1,43
 162 577 162 577 164 579 c 2,44,-1
 246 635 l 2,45,46
 251 639 251 639 258 639 c 0,47,48
 269 639 269 639 275 628 c 0,49,50
 278 624 278 624 278 618 c 0,51,52
 278 607 278 607 265 600 c 2,53,-1
 175 557 l 2,54,55
 172 556 172 556 172 554 c 128,-1,56
 172 552 172 552 175 551 c 2,57,-1
 265 508 l 2,58,59
 278 502 278 502 278 490 c 0,60,61
 278 485 278 485 275 480 c 0,62,63
 269 469 269 469 258 469 c 0,64,65
 251 469 251 469 246 473 c 2,66,-1
 164 529 l 2,67,68
 162 531 162 531 160 529.5 c 128,-1,69
 158 528 158 528 159 525 c 2,70,-1
 165 428 l 1,71,-1
 165 426 l 2,72,73
 165 418 165 418 159 412 c 128,-1,74
 153 406 153 406 145 406 c 256,75,0
 137 406 137 406 131.5 412.5 c 128,-1,1
EndSplineSet
EndChar

StartChar: backslash
Encoding: 92 92 587
Width: 508
Flags: W
LayerCount: 2
Fore
SplineSet
471.5 -128.5 m 128,-1,1
 466 -124 466 -124 461 -114 c 2,2,-1
 8 774 l 2,3,4
 5 779 5 779 5 787 c 0,5,6
 5 794 5 794 10 798.5 c 128,-1,7
 15 803 15 803 24 803 c 0,8,9
 36 803 36 803 41 799.5 c 128,-1,10
 46 796 46 796 48.5 791 c 128,-1,11
 51 786 51 786 52 784 c 2,12,-1
 505 -104 l 2,13,14
 508 -110 508 -110 508 -116 c 0,15,16
 508 -123 508 -123 502 -128 c 128,-1,17
 496 -133 496 -133 488 -133 c 0,18,0
 477 -133 477 -133 471.5 -128.5 c 128,-1,1
EndSplineSet
Substitution2: "'case' Case-Sensitive Forms lookup 14 subtable" backslash.case
EndChar

StartChar: periodcentered
Encoding: 183 183 588
Width: 186
Flags: W
LayerCount: 2
Fore
SplineSet
69 264 m 128,-1,1
 60 273 60 273 60 286 c 2,2,-1
 60 309 l 2,3,4
 60 323 60 323 69 331.5 c 128,-1,5
 78 340 78 340 91 340 c 2,6,-1
 95 340 l 2,7,8
 109 340 109 340 117.5 331.5 c 128,-1,9
 126 323 126 323 126 309 c 2,10,-1
 126 286 l 2,11,12
 126 273 126 273 117.5 264 c 128,-1,13
 109 255 109 255 95 255 c 2,14,-1
 91 255 l 2,15,0
 78 255 78 255 69 264 c 128,-1,1
EndSplineSet
Substitution2: "Single Substitution lookup 20 subtable" periodcentered.loclCAT.case
Substitution2: "Single Substitution lookup 19 subtable" periodcentered.loclCAT
Substitution2: "'case' Case-Sensitive Forms lookup 14 subtable" periodcentered.case
EndChar

StartChar: bullet
Encoding: 8226 8226 589
Width: 340
Flags: W
LayerCount: 2
Fore
SplineSet
108.5 245 m 128,-1,1
 80 262 80 262 63 290.5 c 128,-1,2
 46 319 46 319 46 352 c 256,3,4
 46 385 46 385 63 413.5 c 128,-1,5
 80 442 80 442 108.5 459 c 128,-1,6
 137 476 137 476 170 476 c 256,7,8
 203 476 203 476 231.5 459 c 128,-1,9
 260 442 260 442 277 413.5 c 128,-1,10
 294 385 294 385 294 352 c 256,11,12
 294 319 294 319 277 290.5 c 128,-1,13
 260 262 260 262 231.5 245 c 128,-1,14
 203 228 203 228 170 228 c 256,15,0
 137 228 137 228 108.5 245 c 128,-1,1
EndSplineSet
Substitution2: "'case' Case-Sensitive Forms lookup 14 subtable" bullet.case
EndChar

StartChar: colon
Encoding: 58 58 590
Width: 158
Flags: W
LayerCount: 2
Fore
SplineSet
57 433.5 m 128,-1,1
 50 442 50 442 50 456 c 2,2,-1
 50 479 l 2,3,4
 50 493 50 493 57 501.5 c 128,-1,5
 64 510 64 510 77 510 c 2,6,-1
 81 510 l 2,7,8
 94 510 94 510 101 501.5 c 128,-1,9
 108 493 108 493 108 479 c 2,10,-1
 108 456 l 2,11,12
 108 442 108 442 101 433.5 c 128,-1,13
 94 425 94 425 81 425 c 2,14,-1
 77 425 l 2,15,0
 64 425 64 425 57 433.5 c 128,-1,1
57 8.5 m 128,-1,17
 50 17 50 17 50 31 c 2,18,-1
 50 54 l 2,19,20
 50 68 50 68 57 76.5 c 128,-1,21
 64 85 64 85 77 85 c 2,22,-1
 81 85 l 2,23,24
 94 85 94 85 101 76.5 c 128,-1,25
 108 68 108 68 108 54 c 2,26,-1
 108 31 l 2,27,28
 108 17 108 17 101 8.5 c 128,-1,29
 94 0 94 0 81 0 c 2,30,-1
 77 0 l 2,31,16
 64 0 64 0 57 8.5 c 128,-1,17
EndSplineSet
EndChar

StartChar: comma
Encoding: 44 44 591
Width: 167
Flags: W
LayerCount: 2
Fore
SplineSet
121.5 -55.5 m 128,-1,1
 108 -82 108 -82 87.5 -97.5 c 128,-1,2
 67 -113 67 -113 49 -113 c 0,3,4
 42 -113 42 -113 36.5 -109 c 128,-1,5
 31 -105 31 -105 31 -97 c 0,6,7
 31 -88 31 -88 35 -85 c 128,-1,8
 39 -82 39 -82 49.5 -79 c 128,-1,9
 60 -76 60 -76 66 -73 c 0,10,11
 80 -66 80 -66 87.5 -51 c 128,-1,12
 95 -36 95 -36 95 -20 c 0,13,14
 95 4 95 4 78 4 c 0,15,16
 63 4 63 4 52 -5 c 1,17,18
 44 5 44 5 44 15 c 0,19,20
 44 28 44 28 57.5 38 c 128,-1,21
 71 48 71 48 88 48 c 0,22,23
 109 48 109 48 122 35 c 128,-1,24
 135 22 135 22 135 1 c 0,25,0
 135 -29 135 -29 121.5 -55.5 c 128,-1,1
EndSplineSet
EndChar

StartChar: exclam
Encoding: 33 33 593
Width: 158
Flags: W
LayerCount: 2
Fore
SplineSet
64 203 m 2,1,-1
 59 669 l 2,2,3
 59 684 59 684 63 692 c 128,-1,4
 67 700 67 700 79 700 c 256,5,6
 91 700 91 700 95 692 c 128,-1,7
 99 684 99 684 99 669 c 2,8,-1
 94 203 l 2,9,10
 93 187 93 187 79 187 c 256,11,0
 65 187 65 187 64 203 c 2,1,-1
57 8.5 m 128,-1,13
 50 17 50 17 50 31 c 2,14,-1
 50 54 l 2,15,16
 50 68 50 68 57 76.5 c 128,-1,17
 64 85 64 85 77 85 c 2,18,-1
 81 85 l 2,19,20
 94 85 94 85 101 76.5 c 128,-1,21
 108 68 108 68 108 54 c 2,22,-1
 108 31 l 2,23,24
 108 17 108 17 101 8.5 c 128,-1,25
 94 0 94 0 81 0 c 2,26,-1
 77 0 l 2,27,12
 64 0 64 0 57 8.5 c 128,-1,13
EndSplineSet
EndChar

StartChar: exclamdown
Encoding: 161 161 594
Width: 158
Flags: W
LayerCount: 2
Fore
SplineSet
101 492.5 m 128,-1,1
 108 484 108 484 108 470 c 2,2,-1
 108 447 l 2,3,4
 108 433 108 433 101 424.5 c 128,-1,5
 94 416 94 416 81 416 c 2,6,-1
 77 416 l 2,7,8
 64 416 64 416 57 424.5 c 128,-1,9
 50 433 50 433 50 447 c 2,10,-1
 50 470 l 2,11,12
 50 484 50 484 57 492.5 c 128,-1,13
 64 501 64 501 77 501 c 2,14,-1
 81 501 l 2,15,0
 94 501 94 501 101 492.5 c 128,-1,1
94 298 m 2,17,-1
 99 -168 l 2,18,19
 99 -183 99 -183 95 -191 c 128,-1,20
 91 -199 91 -199 79 -199 c 256,21,22
 67 -199 67 -199 63 -191 c 128,-1,23
 59 -183 59 -183 59 -168 c 2,24,-1
 64 298 l 2,25,26
 65 314 65 314 79 314 c 256,27,16
 93 314 93 314 94 298 c 2,17,-1
EndSplineSet
EndChar

StartChar: numbersign
Encoding: 35 35 595
Width: 641
Flags: W
LayerCount: 2
Fore
SplineSet
614 510 m 128,-1,1
 621 503 621 503 621 492 c 0,2,3
 621 482 621 482 614 476 c 128,-1,4
 607 470 607 470 596 470 c 2,5,-1
 493 470 l 1,6,-1
 452 234 l 1,7,-1
 556 234 l 2,8,9
 567 234 567 234 574 227 c 128,-1,10
 581 220 581 220 581 209 c 0,11,12
 581 199 581 199 574 193 c 128,-1,13
 567 187 567 187 556 187 c 2,14,-1
 444 187 l 1,15,-1
 415 20 l 2,16,17
 413 11 413 11 407 5.5 c 128,-1,18
 401 0 401 0 392 0 c 0,19,20
 380 0 380 0 373.5 9 c 128,-1,21
 367 18 367 18 369 32 c 2,22,-1
 396 187 l 1,23,-1
 189 187 l 1,24,-1
 160 20 l 2,25,26
 158 11 158 11 152 5.5 c 128,-1,27
 146 0 146 0 137 0 c 0,28,29
 125 0 125 0 118.5 9 c 128,-1,30
 112 18 112 18 114 32 c 2,31,-1
 141 187 l 1,32,-1
 45 187 l 2,33,34
 35 187 35 187 27.5 194.5 c 128,-1,35
 20 202 20 202 20 212 c 256,36,37
 20 222 20 222 27 228 c 128,-1,38
 34 234 34 234 45 234 c 2,39,-1
 149 234 l 1,40,-1
 190 470 l 1,41,-1
 86 470 l 2,42,43
 75 470 75 470 67.5 477 c 128,-1,44
 60 484 60 484 60 495 c 0,45,46
 60 505 60 505 67 511 c 128,-1,47
 74 517 74 517 85 517 c 2,48,-1
 198 517 l 1,49,-1
 226 680 l 2,50,51
 228 689 228 689 234 694.5 c 128,-1,52
 240 700 240 700 249 700 c 0,53,54
 261 700 261 700 267.5 691 c 128,-1,55
 274 682 274 682 272 669 c 2,56,-1
 246 517 l 1,57,-1
 453 517 l 1,58,-1
 481 680 l 2,59,60
 483 689 483 689 489 694.5 c 128,-1,61
 495 700 495 700 504 700 c 0,62,63
 516 700 516 700 522.5 691 c 128,-1,64
 529 682 529 682 527 669 c 2,65,-1
 501 517 l 1,66,-1
 596 517 l 2,67,0
 607 517 607 517 614 510 c 128,-1,1
445 470 m 1,68,-1
 238 470 l 1,69,-1
 197 234 l 1,70,-1
 404 234 l 1,71,-1
 445 470 l 1,68,-1
EndSplineSet
EndChar

StartChar: period
Encoding: 46 46 596
Width: 158
Flags: W
LayerCount: 2
Fore
SplineSet
57 8.5 m 128,-1,1
 50 17 50 17 50 31 c 2,2,-1
 50 54 l 2,3,4
 50 68 50 68 57 76.5 c 128,-1,5
 64 85 64 85 77 85 c 2,6,-1
 81 85 l 2,7,8
 94 85 94 85 101 76.5 c 128,-1,9
 108 68 108 68 108 54 c 2,10,-1
 108 31 l 2,11,12
 108 17 108 17 101 8.5 c 128,-1,13
 94 0 94 0 81 0 c 2,14,-1
 77 0 l 2,15,0
 64 0 64 0 57 8.5 c 128,-1,1
EndSplineSet
EndChar

StartChar: question
Encoding: 63 63 597
Width: 471
Flags: W
LayerCount: 2
Fore
SplineSet
346 710 m 128,-1,1
 391 685 391 685 417 638.5 c 128,-1,2
 443 592 443 592 443 529 c 0,3,4
 443 483 443 483 417.5 438 c 128,-1,5
 392 393 392 393 348.5 362.5 c 128,-1,6
 305 332 305 332 254 327 c 1,7,-1
 254 209 l 2,8,9
 254 201 254 201 248.5 195 c 128,-1,10
 243 189 243 189 235 189 c 0,11,12
 226 189 226 189 220.5 195 c 128,-1,13
 215 201 215 201 216 209 c 2,14,-1
 216 343 l 2,15,16
 216 351 216 351 222 357 c 128,-1,17
 228 363 228 363 236 363 c 0,18,19
 282 366 282 366 319.5 389 c 128,-1,20
 357 412 357 412 378.5 449 c 128,-1,21
 400 486 400 486 400 529 c 0,22,23
 400 578 400 578 380 616.5 c 128,-1,24
 360 655 360 655 325 676 c 128,-1,25
 290 697 290 697 247 697 c 0,26,27
 202 697 202 697 162 675.5 c 128,-1,28
 122 654 122 654 96 618 c 0,29,30
 89 609 89 609 79 609 c 0,31,32
 73 609 73 609 70 611 c 0,33,34
 59 617 59 617 59 628 c 0,35,36
 59 635 59 635 63 640 c 0,37,38
 94 683 94 683 143 709 c 128,-1,39
 192 735 192 735 247 735 c 0,40,0
 301 735 301 735 346 710 c 128,-1,1
261 76.5 m 128,-1,42
 268 68 268 68 268 54 c 2,43,-1
 268 31 l 2,44,45
 268 17 268 17 261 8.5 c 128,-1,46
 254 0 254 0 241 0 c 2,47,-1
 237 0 l 2,48,49
 224 0 224 0 217 8.5 c 128,-1,50
 210 17 210 17 210 31 c 2,51,-1
 210 54 l 2,52,53
 210 68 210 68 217 76.5 c 128,-1,54
 224 85 224 85 237 85 c 2,55,-1
 241 85 l 2,56,41
 254 85 254 85 261 76.5 c 128,-1,42
EndSplineSet
EndChar

StartChar: questiondown
Encoding: 191 191 598
Width: 459
Flags: W
LayerCount: 2
Fore
SplineSet
232 480.5 m 128,-1,1
 225 489 225 489 225 503 c 2,2,-1
 225 526 l 2,3,4
 225 540 225 540 232 548.5 c 128,-1,5
 239 557 239 557 252 557 c 2,6,-1
 256 557 l 2,7,8
 269 557 269 557 276 548.5 c 128,-1,9
 283 540 283 540 283 526 c 2,10,-1
 283 503 l 2,11,12
 283 489 283 489 276 480.5 c 128,-1,13
 269 472 269 472 256 472 c 2,14,-1
 252 472 l 2,15,0
 239 472 239 472 232 480.5 c 128,-1,1
434 -71 m 0,17,18
 434 -78 434 -78 430 -83 c 0,19,20
 399 -126 399 -126 350 -152 c 128,-1,21
 301 -178 301 -178 246 -178 c 0,22,23
 192 -178 192 -178 147 -153 c 128,-1,24
 102 -128 102 -128 76 -81.5 c 128,-1,25
 50 -35 50 -35 50 28 c 0,26,27
 50 74 50 74 75.5 119 c 128,-1,28
 101 164 101 164 144.5 194.5 c 128,-1,29
 188 225 188 225 239 230 c 1,30,-1
 239 348 l 2,31,32
 239 356 239 356 244.5 362 c 128,-1,33
 250 368 250 368 258 368 c 0,34,35
 267 368 267 368 272.5 362 c 128,-1,36
 278 356 278 356 277 348 c 2,37,-1
 277 214 l 2,38,39
 277 206 277 206 271 200 c 128,-1,40
 265 194 265 194 257 194 c 0,41,42
 211 191 211 191 173.5 168 c 128,-1,43
 136 145 136 145 114.5 108 c 128,-1,44
 93 71 93 71 93 28 c 0,45,46
 93 -21 93 -21 113 -59.5 c 128,-1,47
 133 -98 133 -98 168 -119 c 128,-1,48
 203 -140 203 -140 246 -140 c 0,49,50
 291 -140 291 -140 331 -118.5 c 128,-1,51
 371 -97 371 -97 397 -61 c 0,52,53
 405 -52 405 -52 414 -52 c 0,54,55
 420 -52 420 -52 423 -54 c 0,56,16
 434 -60 434 -60 434 -71 c 0,17,18
EndSplineSet
EndChar

StartChar: quotedbl
Encoding: 34 34 599
Width: 367
Flags: W
LayerCount: 2
Fore
SplineSet
98 700 m 2,1,-1
 131 700 l 2,2,3
 141 700 141 700 141 689 c 0,4,5
 141 684 141 684 140 681 c 2,6,-1
 78 463 l 2,7,8
 74 446 74 446 55 446 c 0,9,10
 44 446 44 446 47 467 c 2,11,-1
 76 681 l 2,12,0
 79 700 79 700 98 700 c 2,1,-1
278 700 m 2,14,-1
 311 700 l 2,15,16
 325 699 325 699 320 681 c 2,17,-1
 258 463 l 2,18,19
 254 446 254 446 235 446 c 0,20,21
 224 446 224 446 227 467 c 2,22,-1
 256 681 l 2,23,13
 259 700 259 700 278 700 c 2,14,-1
EndSplineSet
EndChar

StartChar: quotesingle
Encoding: 39 39 600
Width: 187
Flags: W
LayerCount: 2
Fore
SplineSet
98 700 m 2,1,-1
 131 700 l 2,2,3
 145 699 145 699 140 681 c 2,4,-1
 78 463 l 2,5,6
 74 446 74 446 55 446 c 0,7,8
 44 446 44 446 47 467 c 2,9,-1
 76 681 l 2,10,0
 79 700 79 700 98 700 c 2,1,-1
EndSplineSet
EndChar

StartChar: semicolon
Encoding: 59 59 601
Width: 167
Flags: W
LayerCount: 2
Fore
SplineSet
72 434 m 128,-1,1
 63 443 63 443 63 456 c 2,2,-1
 63 479 l 2,3,4
 63 493 63 493 72 501.5 c 128,-1,5
 81 510 81 510 94 510 c 2,6,-1
 98 510 l 2,7,8
 112 510 112 510 120.5 501.5 c 128,-1,9
 129 493 129 493 129 479 c 2,10,-1
 129 456 l 2,11,12
 129 443 129 443 120.5 434 c 128,-1,13
 112 425 112 425 98 425 c 2,14,-1
 94 425 l 2,15,0
 81 425 81 425 72 434 c 128,-1,1
121.5 -55.5 m 128,-1,17
 108 -82 108 -82 87.5 -97.5 c 128,-1,18
 67 -113 67 -113 49 -113 c 0,19,20
 42 -113 42 -113 36.5 -109 c 128,-1,21
 31 -105 31 -105 31 -97 c 0,22,23
 31 -88 31 -88 35 -85 c 128,-1,24
 39 -82 39 -82 49.5 -79 c 128,-1,25
 60 -76 60 -76 66 -73 c 0,26,27
 80 -66 80 -66 87.5 -51 c 128,-1,28
 95 -36 95 -36 95 -20 c 0,29,30
 95 4 95 4 78 4 c 0,31,32
 63 4 63 4 52 -5 c 1,33,34
 44 5 44 5 44 15 c 0,35,36
 44 28 44 28 57.5 38 c 128,-1,37
 71 48 71 48 88 48 c 0,38,39
 109 48 109 48 122 35 c 128,-1,40
 135 22 135 22 135 1 c 0,41,16
 135 -29 135 -29 121.5 -55.5 c 128,-1,17
EndSplineSet
EndChar

StartChar: slash
Encoding: 47 47 602
Width: 507
Flags: W
LayerCount: 2
Fore
SplineSet
5 -122 m 128,-1,1
 0 -116 0 -116 0 -107 c 0,2,3
 0 -101 0 -101 3 -95 c 2,4,-1
 448 776 l 2,5,6
 455 789 455 789 461 793.5 c 128,-1,7
 467 798 467 798 477 798 c 0,8,9
 484 798 484 798 489.5 793 c 128,-1,10
 495 788 495 788 495 779 c 0,11,12
 495 771 495 771 491 763 c 2,13,-1
 46 -109 l 2,14,15
 40 -120 40 -120 34.5 -124 c 128,-1,16
 29 -128 29 -128 20 -128 c 0,17,0
 10 -128 10 -128 5 -122 c 128,-1,1
EndSplineSet
Substitution2: "'case' Case-Sensitive Forms lookup 14 subtable" slash.case
Substitution2: "'frac' Diagonal Fractions lookup 9 subtable" fraction
EndChar

StartChar: underscore
Encoding: 95 95 603
Width: 654
Flags: W
LayerCount: 2
Fore
SplineSet
66 -154 m 128,-1,1
 60 -148 60 -148 60 -140 c 0,2,3
 60 -130 60 -130 66 -125 c 128,-1,4
 72 -120 72 -120 82 -120 c 2,5,-1
 572 -120 l 2,6,7
 582 -120 582 -120 588 -125 c 128,-1,8
 594 -130 594 -130 594 -140 c 0,9,10
 594 -148 594 -148 588 -154 c 128,-1,11
 582 -160 582 -160 572 -160 c 2,12,-1
 82 -160 l 2,13,0
 72 -160 72 -160 66 -154 c 128,-1,1
EndSplineSet
EndChar

StartChar: braceleft
Encoding: 123 123 610
Width: 436
Flags: W
LayerCount: 2
Fore
SplineSet
382 -174.5 m 128,-1,1
 386 -181 386 -181 385 -189 c 0,2,3
 381 -200 381 -200 369 -200 c 2,4,-1
 362 -199 l 1,5,6
 284 -182 284 -182 242.5 -155 c 128,-1,7
 201 -128 201 -128 186 -91 c 128,-1,8
 171 -54 171 -54 171 0 c 2,9,-1
 171 79 l 2,10,11
 171 147 171 147 143.5 191.5 c 128,-1,12
 116 236 116 236 51 236 c 2,13,-1
 45 236 l 2,14,15
 37 236 37 236 31 242 c 128,-1,16
 25 248 25 248 25 256 c 0,17,18
 25 263 25 263 31 268.5 c 128,-1,19
 37 274 37 274 45 274 c 2,20,-1
 51 274 l 2,21,22
 171 274 171 274 171 431 c 2,23,-1
 171 510 l 2,24,25
 171 575 171 575 195 613 c 128,-1,26
 219 651 219 651 257.5 670 c 128,-1,27
 296 689 296 689 360 708 c 0,28,29
 368 710 368 710 370 710 c 0,30,31
 379 710 379 710 382.5 705 c 128,-1,32
 386 700 386 700 386 694 c 0,33,34
 386 681 386 681 370 676 c 0,35,36
 302 656 302 656 268.5 635 c 128,-1,37
 235 614 235 614 223 584.5 c 128,-1,38
 211 555 211 555 211 504 c 2,39,-1
 211 429 l 2,40,41
 211 363 211 363 187.5 314.5 c 128,-1,42
 164 266 164 266 122 255 c 1,43,44
 165 243 165 243 188 195.5 c 128,-1,45
 211 148 211 148 211 81 c 2,46,-1
 211 6 l 2,47,48
 211 -45 211 -45 223 -75 c 128,-1,49
 235 -105 235 -105 268.5 -126 c 128,-1,50
 302 -147 302 -147 370 -166 c 0,51,0
 378 -168 378 -168 382 -174.5 c 128,-1,1
EndSplineSet
Substitution2: "'case' Case-Sensitive Forms lookup 14 subtable" braceleft.case
EndChar

StartChar: braceright
Encoding: 125 125 611
Width: 436
Flags: W
LayerCount: 2
Fore
SplineSet
405 268 m 128,-1,1
 411 262 411 262 411 254 c 0,2,3
 411 247 411 247 405 241.5 c 128,-1,4
 399 236 399 236 391 236 c 2,5,-1
 385 236 l 2,6,7
 265 236 265 236 265 79 c 2,8,-1
 265 0 l 2,9,10
 265 -50 265 -50 248.5 -79.5 c 128,-1,11
 232 -109 232 -109 195 -133 c 128,-1,12
 158 -157 158 -157 74 -199 c 0,13,14
 72 -200 72 -200 68 -200 c 0,15,16
 58 -200 58 -200 54 -195 c 128,-1,17
 50 -190 50 -190 50 -184 c 0,18,19
 50 -171 50 -171 66 -166 c 0,20,21
 134 -146 134 -146 167.5 -125 c 128,-1,22
 201 -104 201 -104 213 -74.5 c 128,-1,23
 225 -45 225 -45 225 6 c 2,24,-1
 225 81 l 2,25,26
 225 147 225 147 248.5 195.5 c 128,-1,27
 272 244 272 244 314 255 c 1,28,29
 271 267 271 267 248 314.5 c 128,-1,30
 225 362 225 362 225 429 c 2,31,-1
 225 504 l 2,32,33
 225 555 225 555 213 585 c 128,-1,34
 201 615 201 615 167.5 636 c 128,-1,35
 134 657 134 657 66 676 c 0,36,37
 58 678 58 678 54 684.5 c 128,-1,38
 50 691 50 691 51 699 c 0,39,40
 55 710 55 710 67 710 c 2,41,-1
 74 709 l 1,42,43
 152 692 152 692 193.5 665 c 128,-1,44
 235 638 235 638 250 601 c 128,-1,45
 265 564 265 564 265 510 c 2,46,-1
 265 431 l 2,47,48
 265 363 265 363 292.5 318.5 c 128,-1,49
 320 274 320 274 385 274 c 2,50,-1
 391 274 l 2,51,0
 399 274 399 274 405 268 c 128,-1,1
EndSplineSet
Substitution2: "'case' Case-Sensitive Forms lookup 14 subtable" braceright.case
EndChar

